<?xml version="1.0" encoding="utf-8" standalone="no"?>
<!DOCTYPE svg PUBLIC "-//W3C//DTD SVG 1.1//EN"
  "http://www.w3.org/Graphics/SVG/1.1/DTD/svg11.dtd">
<!-- Created with matplotlib (https://matplotlib.org/) -->
<svg height="345.6pt" version="1.1" viewBox="0 0 460.8 345.6" width="460.8pt" xmlns="http://www.w3.org/2000/svg" xmlns:xlink="http://www.w3.org/1999/xlink">
 <metadata>
  <rdf:RDF xmlns:cc="http://creativecommons.org/ns#" xmlns:dc="http://purl.org/dc/elements/1.1/" xmlns:rdf="http://www.w3.org/1999/02/22-rdf-syntax-ns#">
   <cc:Work>
    <dc:type rdf:resource="http://purl.org/dc/dcmitype/StillImage"/>
    <dc:date>2020-11-09T11:44:53.981125</dc:date>
    <dc:format>image/svg+xml</dc:format>
    <dc:creator>
     <cc:Agent>
      <dc:title>Matplotlib v3.3.2, https://matplotlib.org/</dc:title>
     </cc:Agent>
    </dc:creator>
   </cc:Work>
  </rdf:RDF>
 </metadata>
 <defs>
  <style type="text/css">*{stroke-linecap:butt;stroke-linejoin:round;}</style>
 </defs>
 <g id="figure_1">
  <g id="patch_1">
   <path d="M 0 345.6 
L 460.8 345.6 
L 460.8 0 
L 0 0 
z
" style="fill:#ffffff;"/>
  </g>
  <g id="axes_1">
   <g id="patch_2">
    <path d="M 57.6 307.584 
L 414.72 307.584 
L 414.72 41.472 
L 57.6 41.472 
z
" style="fill:#ffffff;"/>
   </g>
   <g id="patch_3">
    <path clip-path="url(#p98bb284724)" d="M 73.832727 307.584 
L 75.208382 307.584 
L 75.208382 290.681792 
L 73.832727 290.681792 
z
" style="fill:#1f77b4;stroke:#000000;stroke-linejoin:miter;stroke-width:0.4;"/>
   </g>
   <g id="patch_4">
    <path clip-path="url(#p98bb284724)" d="M 75.208382 307.584 
L 76.584037 307.584 
L 76.584037 292.293189 
L 75.208382 292.293189 
z
" style="fill:#1f77b4;stroke:#000000;stroke-linejoin:miter;stroke-width:0.4;"/>
   </g>
   <g id="patch_5">
    <path clip-path="url(#p98bb284724)" d="M 76.584037 307.584 
L 77.959692 307.584 
L 77.959692 288.310427 
L 76.584037 288.310427 
z
" style="fill:#1f77b4;stroke:#000000;stroke-linejoin:miter;stroke-width:0.4;"/>
   </g>
   <g id="patch_6">
    <path clip-path="url(#p98bb284724)" d="M 77.959692 307.584 
L 79.335347 307.584 
L 79.335347 285.127544 
L 77.959692 285.127544 
z
" style="fill:#1f77b4;stroke:#000000;stroke-linejoin:miter;stroke-width:0.4;"/>
   </g>
   <g id="patch_7">
    <path clip-path="url(#p98bb284724)" d="M 79.335347 307.584 
L 80.711002 307.584 
L 80.711002 281.415843 
L 79.335347 281.415843 
z
" style="fill:#1f77b4;stroke:#000000;stroke-linejoin:miter;stroke-width:0.4;"/>
   </g>
   <g id="patch_8">
    <path clip-path="url(#p98bb284724)" d="M 80.711002 307.584 
L 82.086656 307.584 
L 82.086656 275.575568 
L 80.711002 275.575568 
z
" style="fill:#1f77b4;stroke:#000000;stroke-linejoin:miter;stroke-width:0.4;"/>
   </g>
   <g id="patch_9">
    <path clip-path="url(#p98bb284724)" d="M 82.086656 307.584 
L 83.462311 307.584 
L 83.462311 268.246954 
L 82.086656 268.246954 
z
" style="fill:#1f77b4;stroke:#000000;stroke-linejoin:miter;stroke-width:0.4;"/>
   </g>
   <g id="patch_10">
    <path clip-path="url(#p98bb284724)" d="M 83.462311 307.584 
L 84.837966 307.584 
L 84.837966 261.1894 
L 83.462311 261.1894 
z
" style="fill:#1f77b4;stroke:#000000;stroke-linejoin:miter;stroke-width:0.4;"/>
   </g>
   <g id="patch_11">
    <path clip-path="url(#p98bb284724)" d="M 84.837966 307.584 
L 86.213621 307.584 
L 86.213621 253.044279 
L 84.837966 253.044279 
z
" style="fill:#1f77b4;stroke:#000000;stroke-linejoin:miter;stroke-width:0.4;"/>
   </g>
   <g id="patch_12">
    <path clip-path="url(#p98bb284724)" d="M 86.213621 307.584 
L 87.589276 307.584 
L 87.589276 238.200801 
L 86.213621 238.200801 
z
" style="fill:#1f77b4;stroke:#000000;stroke-linejoin:miter;stroke-width:0.4;"/>
   </g>
   <g id="patch_13">
    <path clip-path="url(#p98bb284724)" d="M 87.589276 307.584 
L 88.964931 307.584 
L 88.964931 216.823598 
L 87.589276 216.823598 
z
" style="fill:#1f77b4;stroke:#000000;stroke-linejoin:miter;stroke-width:0.4;"/>
   </g>
   <g id="patch_14">
    <path clip-path="url(#p98bb284724)" d="M 88.964931 307.584 
L 90.340586 307.584 
L 90.340586 184.101761 
L 88.964931 184.101761 
z
" style="fill:#1f77b4;stroke:#000000;stroke-linejoin:miter;stroke-width:0.4;"/>
   </g>
   <g id="patch_15">
    <path clip-path="url(#p98bb284724)" d="M 90.340586 307.584 
L 91.71624 307.584 
L 91.71624 161.60872 
L 90.340586 161.60872 
z
" style="fill:#1f77b4;stroke:#000000;stroke-linejoin:miter;stroke-width:0.4;"/>
   </g>
   <g id="patch_16">
    <path clip-path="url(#p98bb284724)" d="M 91.71624 307.584 
L 93.091895 307.584 
L 93.091895 131.486071 
L 91.71624 131.486071 
z
" style="fill:#1f77b4;stroke:#000000;stroke-linejoin:miter;stroke-width:0.4;"/>
   </g>
   <g id="patch_17">
    <path clip-path="url(#p98bb284724)" d="M 93.091895 307.584 
L 94.46755 307.584 
L 94.46755 130.682867 
L 93.091895 130.682867 
z
" style="fill:#1f77b4;stroke:#000000;stroke-linejoin:miter;stroke-width:0.4;"/>
   </g>
   <g id="patch_18">
    <path clip-path="url(#p98bb284724)" d="M 94.46755 307.584 
L 95.843205 307.584 
L 95.843205 103.084574 
L 94.46755 103.084574 
z
" style="fill:#1f77b4;stroke:#000000;stroke-linejoin:miter;stroke-width:0.4;"/>
   </g>
   <g id="patch_19">
    <path clip-path="url(#p98bb284724)" d="M 95.843205 307.584 
L 97.21886 307.584 
L 97.21886 130.2056 
L 95.843205 130.2056 
z
" style="fill:#1f77b4;stroke:#000000;stroke-linejoin:miter;stroke-width:0.4;"/>
   </g>
   <g id="patch_20">
    <path clip-path="url(#p98bb284724)" d="M 97.21886 307.584 
L 98.594515 307.584 
L 98.594515 129.846404 
L 97.21886 129.846404 
z
" style="fill:#1f77b4;stroke:#000000;stroke-linejoin:miter;stroke-width:0.4;"/>
   </g>
   <g id="patch_21">
    <path clip-path="url(#p98bb284724)" d="M 98.594515 307.584 
L 99.970169 307.584 
L 99.970169 143.213183 
L 98.594515 143.213183 
z
" style="fill:#1f77b4;stroke:#000000;stroke-linejoin:miter;stroke-width:0.4;"/>
   </g>
   <g id="patch_22">
    <path clip-path="url(#p98bb284724)" d="M 99.970169 307.584 
L 101.345824 307.584 
L 101.345824 198.017314 
L 99.970169 198.017314 
z
" style="fill:#1f77b4;stroke:#000000;stroke-linejoin:miter;stroke-width:0.4;"/>
   </g>
   <g id="patch_23">
    <path clip-path="url(#p98bb284724)" d="M 101.345824 307.584 
L 102.721479 307.584 
L 102.721479 226.32236 
L 101.345824 226.32236 
z
" style="fill:#1f77b4;stroke:#000000;stroke-linejoin:miter;stroke-width:0.4;"/>
   </g>
   <g id="patch_24">
    <path clip-path="url(#p98bb284724)" d="M 102.721479 307.584 
L 104.097134 307.584 
L 104.097134 244.910798 
L 102.721479 244.910798 
z
" style="fill:#1f77b4;stroke:#000000;stroke-linejoin:miter;stroke-width:0.4;"/>
   </g>
   <g id="patch_25">
    <path clip-path="url(#p98bb284724)" d="M 104.097134 307.584 
L 105.472789 307.584 
L 105.472789 252.141298 
L 104.097134 252.141298 
z
" style="fill:#1f77b4;stroke:#000000;stroke-linejoin:miter;stroke-width:0.4;"/>
   </g>
   <g id="patch_26">
    <path clip-path="url(#p98bb284724)" d="M 105.472789 307.584 
L 106.848444 307.584 
L 106.848444 248.682365 
L 105.472789 248.682365 
z
" style="fill:#1f77b4;stroke:#000000;stroke-linejoin:miter;stroke-width:0.4;"/>
   </g>
   <g id="patch_27">
    <path clip-path="url(#p98bb284724)" d="M 106.848444 307.584 
L 108.224099 307.584 
L 108.224099 246.698467 
L 106.848444 246.698467 
z
" style="fill:#1f77b4;stroke:#000000;stroke-linejoin:miter;stroke-width:0.4;"/>
   </g>
   <g id="patch_28">
    <path clip-path="url(#p98bb284724)" d="M 108.224099 307.584 
L 109.599753 307.584 
L 109.599753 253.674536 
L 108.224099 253.674536 
z
" style="fill:#1f77b4;stroke:#000000;stroke-linejoin:miter;stroke-width:0.4;"/>
   </g>
   <g id="patch_29">
    <path clip-path="url(#p98bb284724)" d="M 109.599753 307.584 
L 110.975408 307.584 
L 110.975408 255.685041 
L 109.599753 255.685041 
z
" style="fill:#1f77b4;stroke:#000000;stroke-linejoin:miter;stroke-width:0.4;"/>
   </g>
   <g id="patch_30">
    <path clip-path="url(#p98bb284724)" d="M 110.975408 307.584 
L 112.351063 307.584 
L 112.351063 263.550787 
L 110.975408 263.550787 
z
" style="fill:#1f77b4;stroke:#000000;stroke-linejoin:miter;stroke-width:0.4;"/>
   </g>
   <g id="patch_31">
    <path clip-path="url(#p98bb284724)" d="M 112.351063 307.584 
L 113.726718 307.584 
L 113.726718 262.890597 
L 112.351063 262.890597 
z
" style="fill:#1f77b4;stroke:#000000;stroke-linejoin:miter;stroke-width:0.4;"/>
   </g>
   <g id="patch_32">
    <path clip-path="url(#p98bb284724)" d="M 113.726718 307.584 
L 115.102373 307.584 
L 115.102373 269.030202 
L 113.726718 269.030202 
z
" style="fill:#1f77b4;stroke:#000000;stroke-linejoin:miter;stroke-width:0.4;"/>
   </g>
   <g id="patch_33">
    <path clip-path="url(#p98bb284724)" d="M 115.102373 307.584 
L 116.478028 307.584 
L 116.478028 263.312986 
L 115.102373 263.312986 
z
" style="fill:#1f77b4;stroke:#000000;stroke-linejoin:miter;stroke-width:0.4;"/>
   </g>
   <g id="patch_34">
    <path clip-path="url(#p98bb284724)" d="M 116.478028 307.584 
L 117.853683 307.584 
L 117.853683 264.555208 
L 116.478028 264.555208 
z
" style="fill:#1f77b4;stroke:#000000;stroke-linejoin:miter;stroke-width:0.4;"/>
   </g>
   <g id="patch_35">
    <path clip-path="url(#p98bb284724)" d="M 117.853683 307.584 
L 119.229337 307.584 
L 119.229337 258.94442 
L 117.853683 258.94442 
z
" style="fill:#1f77b4;stroke:#000000;stroke-linejoin:miter;stroke-width:0.4;"/>
   </g>
   <g id="patch_36">
    <path clip-path="url(#p98bb284724)" d="M 119.229337 307.584 
L 120.604992 307.584 
L 120.604992 259.228784 
L 119.229337 259.228784 
z
" style="fill:#1f77b4;stroke:#000000;stroke-linejoin:miter;stroke-width:0.4;"/>
   </g>
   <g id="patch_37">
    <path clip-path="url(#p98bb284724)" d="M 120.604992 307.584 
L 121.980647 307.584 
L 121.980647 266.630568 
L 120.604992 266.630568 
z
" style="fill:#1f77b4;stroke:#000000;stroke-linejoin:miter;stroke-width:0.4;"/>
   </g>
   <g id="patch_38">
    <path clip-path="url(#p98bb284724)" d="M 121.980647 307.584 
L 123.356302 307.584 
L 123.356302 268.020793 
L 121.980647 268.020793 
z
" style="fill:#1f77b4;stroke:#000000;stroke-linejoin:miter;stroke-width:0.4;"/>
   </g>
   <g id="patch_39">
    <path clip-path="url(#p98bb284724)" d="M 123.356302 307.584 
L 124.731957 307.584 
L 124.731957 275.434217 
L 123.356302 275.434217 
z
" style="fill:#1f77b4;stroke:#000000;stroke-linejoin:miter;stroke-width:0.4;"/>
   </g>
   <g id="patch_40">
    <path clip-path="url(#p98bb284724)" d="M 124.731957 307.584 
L 126.107612 307.584 
L 126.107612 274.793982 
L 124.731957 274.793982 
z
" style="fill:#1f77b4;stroke:#000000;stroke-linejoin:miter;stroke-width:0.4;"/>
   </g>
   <g id="patch_41">
    <path clip-path="url(#p98bb284724)" d="M 126.107612 307.584 
L 127.483267 307.584 
L 127.483267 269.484187 
L 126.107612 269.484187 
z
" style="fill:#1f77b4;stroke:#000000;stroke-linejoin:miter;stroke-width:0.4;"/>
   </g>
   <g id="patch_42">
    <path clip-path="url(#p98bb284724)" d="M 127.483267 307.584 
L 128.858921 307.584 
L 128.858921 266.214831 
L 127.483267 266.214831 
z
" style="fill:#1f77b4;stroke:#000000;stroke-linejoin:miter;stroke-width:0.4;"/>
   </g>
   <g id="patch_43">
    <path clip-path="url(#p98bb284724)" d="M 128.858921 307.584 
L 130.234576 307.584 
L 130.234576 268.943729 
L 128.858921 268.943729 
z
" style="fill:#1f77b4;stroke:#000000;stroke-linejoin:miter;stroke-width:0.4;"/>
   </g>
   <g id="patch_44">
    <path clip-path="url(#p98bb284724)" d="M 130.234576 307.584 
L 131.610231 307.584 
L 131.610231 266.13002 
L 130.234576 266.13002 
z
" style="fill:#1f77b4;stroke:#000000;stroke-linejoin:miter;stroke-width:0.4;"/>
   </g>
   <g id="patch_45">
    <path clip-path="url(#p98bb284724)" d="M 131.610231 307.584 
L 132.985886 307.584 
L 132.985886 269.281308 
L 131.610231 269.281308 
z
" style="fill:#1f77b4;stroke:#000000;stroke-linejoin:miter;stroke-width:0.4;"/>
   </g>
   <g id="patch_46">
    <path clip-path="url(#p98bb284724)" d="M 132.985886 307.584 
L 134.361541 307.584 
L 134.361541 265.070722 
L 132.985886 265.070722 
z
" style="fill:#1f77b4;stroke:#000000;stroke-linejoin:miter;stroke-width:0.4;"/>
   </g>
   <g id="patch_47">
    <path clip-path="url(#p98bb284724)" d="M 134.361541 307.584 
L 135.737196 307.584 
L 135.737196 265.034137 
L 134.361541 265.034137 
z
" style="fill:#1f77b4;stroke:#000000;stroke-linejoin:miter;stroke-width:0.4;"/>
   </g>
   <g id="patch_48">
    <path clip-path="url(#p98bb284724)" d="M 135.737196 307.584 
L 137.112851 307.584 
L 137.112851 272.966402 
L 135.737196 272.966402 
z
" style="fill:#1f77b4;stroke:#000000;stroke-linejoin:miter;stroke-width:0.4;"/>
   </g>
   <g id="patch_49">
    <path clip-path="url(#p98bb284724)" d="M 137.112851 307.584 
L 138.488505 307.584 
L 138.488505 274.221928 
L 137.112851 274.221928 
z
" style="fill:#1f77b4;stroke:#000000;stroke-linejoin:miter;stroke-width:0.4;"/>
   </g>
   <g id="patch_50">
    <path clip-path="url(#p98bb284724)" d="M 138.488505 307.584 
L 139.86416 307.584 
L 139.86416 280.597672 
L 138.488505 280.597672 
z
" style="fill:#1f77b4;stroke:#000000;stroke-linejoin:miter;stroke-width:0.4;"/>
   </g>
   <g id="patch_51">
    <path clip-path="url(#p98bb284724)" d="M 139.86416 307.584 
L 141.239815 307.584 
L 141.239815 278.726855 
L 139.86416 278.726855 
z
" style="fill:#1f77b4;stroke:#000000;stroke-linejoin:miter;stroke-width:0.4;"/>
   </g>
   <g id="patch_52">
    <path clip-path="url(#p98bb284724)" d="M 141.239815 307.584 
L 142.61547 307.584 
L 142.61547 273.922597 
L 141.239815 273.922597 
z
" style="fill:#1f77b4;stroke:#000000;stroke-linejoin:miter;stroke-width:0.4;"/>
   </g>
   <g id="patch_53">
    <path clip-path="url(#p98bb284724)" d="M 142.61547 307.584 
L 143.991125 307.584 
L 143.991125 270.067882 
L 142.61547 270.067882 
z
" style="fill:#1f77b4;stroke:#000000;stroke-linejoin:miter;stroke-width:0.4;"/>
   </g>
   <g id="patch_54">
    <path clip-path="url(#p98bb284724)" d="M 143.991125 307.584 
L 145.36678 307.584 
L 145.36678 274.436448 
L 143.991125 274.436448 
z
" style="fill:#1f77b4;stroke:#000000;stroke-linejoin:miter;stroke-width:0.4;"/>
   </g>
   <g id="patch_55">
    <path clip-path="url(#p98bb284724)" d="M 145.36678 307.584 
L 146.742435 307.584 
L 146.742435 274.158736 
L 145.36678 274.158736 
z
" style="fill:#1f77b4;stroke:#000000;stroke-linejoin:miter;stroke-width:0.4;"/>
   </g>
   <g id="patch_56">
    <path clip-path="url(#p98bb284724)" d="M 146.742435 307.584 
L 148.118089 307.584 
L 148.118089 276.182544 
L 146.742435 276.182544 
z
" style="fill:#1f77b4;stroke:#000000;stroke-linejoin:miter;stroke-width:0.4;"/>
   </g>
   <g id="patch_57">
    <path clip-path="url(#p98bb284724)" d="M 148.118089 307.584 
L 149.493744 307.584 
L 149.493744 272.898221 
L 148.118089 272.898221 
z
" style="fill:#1f77b4;stroke:#000000;stroke-linejoin:miter;stroke-width:0.4;"/>
   </g>
   <g id="patch_58">
    <path clip-path="url(#p98bb284724)" d="M 149.493744 307.584 
L 150.869399 307.584 
L 150.869399 272.251334 
L 149.493744 272.251334 
z
" style="fill:#1f77b4;stroke:#000000;stroke-linejoin:miter;stroke-width:0.4;"/>
   </g>
   <g id="patch_59">
    <path clip-path="url(#p98bb284724)" d="M 150.869399 307.584 
L 152.245054 307.584 
L 152.245054 275.858269 
L 150.869399 275.858269 
z
" style="fill:#1f77b4;stroke:#000000;stroke-linejoin:miter;stroke-width:0.4;"/>
   </g>
   <g id="patch_60">
    <path clip-path="url(#p98bb284724)" d="M 152.245054 307.584 
L 153.620709 307.584 
L 153.620709 276.593292 
L 152.245054 276.593292 
z
" style="fill:#1f77b4;stroke:#000000;stroke-linejoin:miter;stroke-width:0.4;"/>
   </g>
   <g id="patch_61">
    <path clip-path="url(#p98bb284724)" d="M 153.620709 307.584 
L 154.996364 307.584 
L 154.996364 281.422495 
L 153.620709 281.422495 
z
" style="fill:#1f77b4;stroke:#000000;stroke-linejoin:miter;stroke-width:0.4;"/>
   </g>
   <g id="patch_62">
    <path clip-path="url(#p98bb284724)" d="M 154.996364 307.584 
L 156.372018 307.584 
L 156.372018 281.623711 
L 154.996364 281.623711 
z
" style="fill:#1f77b4;stroke:#000000;stroke-linejoin:miter;stroke-width:0.4;"/>
   </g>
   <g id="patch_63">
    <path clip-path="url(#p98bb284724)" d="M 156.372018 307.584 
L 157.747673 307.584 
L 157.747673 278.572201 
L 156.372018 278.572201 
z
" style="fill:#1f77b4;stroke:#000000;stroke-linejoin:miter;stroke-width:0.4;"/>
   </g>
   <g id="patch_64">
    <path clip-path="url(#p98bb284724)" d="M 157.747673 307.584 
L 159.123328 307.584 
L 159.123328 273.757965 
L 157.747673 273.757965 
z
" style="fill:#1f77b4;stroke:#000000;stroke-linejoin:miter;stroke-width:0.4;"/>
   </g>
   <g id="patch_65">
    <path clip-path="url(#p98bb284724)" d="M 159.123328 307.584 
L 160.498983 307.584 
L 160.498983 273.194225 
L 159.123328 273.194225 
z
" style="fill:#1f77b4;stroke:#000000;stroke-linejoin:miter;stroke-width:0.4;"/>
   </g>
   <g id="patch_66">
    <path clip-path="url(#p98bb284724)" d="M 160.498983 307.584 
L 161.874638 307.584 
L 161.874638 270.003027 
L 160.498983 270.003027 
z
" style="fill:#1f77b4;stroke:#000000;stroke-linejoin:miter;stroke-width:0.4;"/>
   </g>
   <g id="patch_67">
    <path clip-path="url(#p98bb284724)" d="M 161.874638 307.584 
L 163.250293 307.584 
L 163.250293 271.567862 
L 161.874638 271.567862 
z
" style="fill:#1f77b4;stroke:#000000;stroke-linejoin:miter;stroke-width:0.4;"/>
   </g>
   <g id="patch_68">
    <path clip-path="url(#p98bb284724)" d="M 163.250293 307.584 
L 164.625948 307.584 
L 164.625948 275.11992 
L 163.250293 275.11992 
z
" style="fill:#1f77b4;stroke:#000000;stroke-linejoin:miter;stroke-width:0.4;"/>
   </g>
   <g id="patch_69">
    <path clip-path="url(#p98bb284724)" d="M 164.625948 307.584 
L 166.001602 307.584 
L 166.001602 274.675913 
L 164.625948 274.675913 
z
" style="fill:#1f77b4;stroke:#000000;stroke-linejoin:miter;stroke-width:0.4;"/>
   </g>
   <g id="patch_70">
    <path clip-path="url(#p98bb284724)" d="M 166.001602 307.584 
L 167.377257 307.584 
L 167.377257 275.349407 
L 166.001602 275.349407 
z
" style="fill:#1f77b4;stroke:#000000;stroke-linejoin:miter;stroke-width:0.4;"/>
   </g>
   <g id="patch_71">
    <path clip-path="url(#p98bb284724)" d="M 167.377257 307.584 
L 168.752912 307.584 
L 168.752912 272.25466 
L 167.377257 272.25466 
z
" style="fill:#1f77b4;stroke:#000000;stroke-linejoin:miter;stroke-width:0.4;"/>
   </g>
   <g id="patch_72">
    <path clip-path="url(#p98bb284724)" d="M 168.752912 307.584 
L 170.128567 307.584 
L 170.128567 273.501871 
L 168.752912 273.501871 
z
" style="fill:#1f77b4;stroke:#000000;stroke-linejoin:miter;stroke-width:0.4;"/>
   </g>
   <g id="patch_73">
    <path clip-path="url(#p98bb284724)" d="M 170.128567 307.584 
L 171.504222 307.584 
L 171.504222 276.826105 
L 170.128567 276.826105 
z
" style="fill:#1f77b4;stroke:#000000;stroke-linejoin:miter;stroke-width:0.4;"/>
   </g>
   <g id="patch_74">
    <path clip-path="url(#p98bb284724)" d="M 171.504222 307.584 
L 172.879877 307.584 
L 172.879877 278.652022 
L 171.504222 278.652022 
z
" style="fill:#1f77b4;stroke:#000000;stroke-linejoin:miter;stroke-width:0.4;"/>
   </g>
   <g id="patch_75">
    <path clip-path="url(#p98bb284724)" d="M 172.879877 307.584 
L 174.255532 307.584 
L 174.255532 283.018925 
L 172.879877 283.018925 
z
" style="fill:#1f77b4;stroke:#000000;stroke-linejoin:miter;stroke-width:0.4;"/>
   </g>
   <g id="patch_76">
    <path clip-path="url(#p98bb284724)" d="M 174.255532 307.584 
L 175.631186 307.584 
L 175.631186 279.814423 
L 174.255532 279.814423 
z
" style="fill:#1f77b4;stroke:#000000;stroke-linejoin:miter;stroke-width:0.4;"/>
   </g>
   <g id="patch_77">
    <path clip-path="url(#p98bb284724)" d="M 175.631186 307.584 
L 177.006841 307.584 
L 177.006841 276.412031 
L 175.631186 276.412031 
z
" style="fill:#1f77b4;stroke:#000000;stroke-linejoin:miter;stroke-width:0.4;"/>
   </g>
   <g id="patch_78">
    <path clip-path="url(#p98bb284724)" d="M 177.006841 307.584 
L 178.382496 307.584 
L 178.382496 273.857742 
L 177.006841 273.857742 
z
" style="fill:#1f77b4;stroke:#000000;stroke-linejoin:miter;stroke-width:0.4;"/>
   </g>
   <g id="patch_79">
    <path clip-path="url(#p98bb284724)" d="M 178.382496 307.584 
L 179.758151 307.584 
L 179.758151 276.132655 
L 178.382496 276.132655 
z
" style="fill:#1f77b4;stroke:#000000;stroke-linejoin:miter;stroke-width:0.4;"/>
   </g>
   <g id="patch_80">
    <path clip-path="url(#p98bb284724)" d="M 179.758151 307.584 
L 181.133806 307.584 
L 181.133806 275.051739 
L 179.758151 275.051739 
z
" style="fill:#1f77b4;stroke:#000000;stroke-linejoin:miter;stroke-width:0.4;"/>
   </g>
   <g id="patch_81">
    <path clip-path="url(#p98bb284724)" d="M 181.133806 307.584 
L 182.509461 307.584 
L 182.509461 275.347744 
L 181.133806 275.347744 
z
" style="fill:#1f77b4;stroke:#000000;stroke-linejoin:miter;stroke-width:0.4;"/>
   </g>
   <g id="patch_82">
    <path clip-path="url(#p98bb284724)" d="M 182.509461 307.584 
L 183.885116 307.584 
L 183.885116 271.993577 
L 182.509461 271.993577 
z
" style="fill:#1f77b4;stroke:#000000;stroke-linejoin:miter;stroke-width:0.4;"/>
   </g>
   <g id="patch_83">
    <path clip-path="url(#p98bb284724)" d="M 183.885116 307.584 
L 185.26077 307.584 
L 185.26077 270.814546 
L 183.885116 270.814546 
z
" style="fill:#1f77b4;stroke:#000000;stroke-linejoin:miter;stroke-width:0.4;"/>
   </g>
   <g id="patch_84">
    <path clip-path="url(#p98bb284724)" d="M 185.26077 307.584 
L 186.636425 307.584 
L 186.636425 272.733589 
L 185.26077 272.733589 
z
" style="fill:#1f77b4;stroke:#000000;stroke-linejoin:miter;stroke-width:0.4;"/>
   </g>
   <g id="patch_85">
    <path clip-path="url(#p98bb284724)" d="M 186.636425 307.584 
L 188.01208 307.584 
L 188.01208 272.710307 
L 186.636425 272.710307 
z
" style="fill:#1f77b4;stroke:#000000;stroke-linejoin:miter;stroke-width:0.4;"/>
   </g>
   <g id="patch_86">
    <path clip-path="url(#p98bb284724)" d="M 188.01208 307.584 
L 189.387735 307.584 
L 189.387735 272.736915 
L 188.01208 272.736915 
z
" style="fill:#1f77b4;stroke:#000000;stroke-linejoin:miter;stroke-width:0.4;"/>
   </g>
   <g id="patch_87">
    <path clip-path="url(#p98bb284724)" d="M 189.387735 307.584 
L 190.76339 307.584 
L 190.76339 269.241397 
L 189.387735 269.241397 
z
" style="fill:#1f77b4;stroke:#000000;stroke-linejoin:miter;stroke-width:0.4;"/>
   </g>
   <g id="patch_88">
    <path clip-path="url(#p98bb284724)" d="M 190.76339 307.584 
L 192.139045 307.584 
L 192.139045 270.792928 
L 190.76339 270.792928 
z
" style="fill:#1f77b4;stroke:#000000;stroke-linejoin:miter;stroke-width:0.4;"/>
   </g>
   <g id="patch_89">
    <path clip-path="url(#p98bb284724)" d="M 192.139045 307.584 
L 193.5147 307.584 
L 193.5147 276.816127 
L 192.139045 276.816127 
z
" style="fill:#1f77b4;stroke:#000000;stroke-linejoin:miter;stroke-width:0.4;"/>
   </g>
   <g id="patch_90">
    <path clip-path="url(#p98bb284724)" d="M 193.5147 307.584 
L 194.890354 307.584 
L 194.890354 278.455794 
L 193.5147 278.455794 
z
" style="fill:#1f77b4;stroke:#000000;stroke-linejoin:miter;stroke-width:0.4;"/>
   </g>
   <g id="patch_91">
    <path clip-path="url(#p98bb284724)" d="M 194.890354 307.584 
L 196.266009 307.584 
L 196.266009 275.457498 
L 194.890354 275.457498 
z
" style="fill:#1f77b4;stroke:#000000;stroke-linejoin:miter;stroke-width:0.4;"/>
   </g>
   <g id="patch_92">
    <path clip-path="url(#p98bb284724)" d="M 196.266009 307.584 
L 197.641664 307.584 
L 197.641664 271.394915 
L 196.266009 271.394915 
z
" style="fill:#1f77b4;stroke:#000000;stroke-linejoin:miter;stroke-width:0.4;"/>
   </g>
   <g id="patch_93">
    <path clip-path="url(#p98bb284724)" d="M 197.641664 307.584 
L 199.017319 307.584 
L 199.017319 274.522921 
L 197.641664 274.522921 
z
" style="fill:#1f77b4;stroke:#000000;stroke-linejoin:miter;stroke-width:0.4;"/>
   </g>
   <g id="patch_94">
    <path clip-path="url(#p98bb284724)" d="M 199.017319 307.584 
L 200.392974 307.584 
L 200.392974 272.560642 
L 199.017319 272.560642 
z
" style="fill:#1f77b4;stroke:#000000;stroke-linejoin:miter;stroke-width:0.4;"/>
   </g>
   <g id="patch_95">
    <path clip-path="url(#p98bb284724)" d="M 200.392974 307.584 
L 201.768629 307.584 
L 201.768629 273.761291 
L 200.392974 273.761291 
z
" style="fill:#1f77b4;stroke:#000000;stroke-linejoin:miter;stroke-width:0.4;"/>
   </g>
   <g id="patch_96">
    <path clip-path="url(#p98bb284724)" d="M 201.768629 307.584 
L 203.144284 307.584 
L 203.144284 271.619413 
L 201.768629 271.619413 
z
" style="fill:#1f77b4;stroke:#000000;stroke-linejoin:miter;stroke-width:0.4;"/>
   </g>
   <g id="patch_97">
    <path clip-path="url(#p98bb284724)" d="M 203.144284 307.584 
L 204.519938 307.584 
L 204.519938 269.735293 
L 203.144284 269.735293 
z
" style="fill:#1f77b4;stroke:#000000;stroke-linejoin:miter;stroke-width:0.4;"/>
   </g>
   <g id="patch_98">
    <path clip-path="url(#p98bb284724)" d="M 204.519938 307.584 
L 205.895593 307.584 
L 205.895593 273.059527 
L 204.519938 273.059527 
z
" style="fill:#1f77b4;stroke:#000000;stroke-linejoin:miter;stroke-width:0.4;"/>
   </g>
   <g id="patch_99">
    <path clip-path="url(#p98bb284724)" d="M 205.895593 307.584 
L 207.271248 307.584 
L 207.271248 269.637179 
L 205.895593 269.637179 
z
" style="fill:#1f77b4;stroke:#000000;stroke-linejoin:miter;stroke-width:0.4;"/>
   </g>
   <g id="patch_100">
    <path clip-path="url(#p98bb284724)" d="M 207.271248 307.584 
L 208.646903 307.584 
L 208.646903 271.175406 
L 207.271248 271.175406 
z
" style="fill:#1f77b4;stroke:#000000;stroke-linejoin:miter;stroke-width:0.4;"/>
   </g>
   <g id="patch_101">
    <path clip-path="url(#p98bb284724)" d="M 208.646903 307.584 
L 210.022558 307.584 
L 210.022558 266.730345 
L 208.646903 266.730345 
z
" style="fill:#1f77b4;stroke:#000000;stroke-linejoin:miter;stroke-width:0.4;"/>
   </g>
   <g id="patch_102">
    <path clip-path="url(#p98bb284724)" d="M 210.022558 307.584 
L 211.398213 307.584 
L 211.398213 266.211505 
L 210.022558 266.211505 
z
" style="fill:#1f77b4;stroke:#000000;stroke-linejoin:miter;stroke-width:0.4;"/>
   </g>
   <g id="patch_103">
    <path clip-path="url(#p98bb284724)" d="M 211.398213 307.584 
L 212.773867 307.584 
L 212.773867 269.805136 
L 211.398213 269.805136 
z
" style="fill:#1f77b4;stroke:#000000;stroke-linejoin:miter;stroke-width:0.4;"/>
   </g>
   <g id="patch_104">
    <path clip-path="url(#p98bb284724)" d="M 212.773867 307.584 
L 214.149522 307.584 
L 214.149522 265.857297 
L 212.773867 265.857297 
z
" style="fill:#1f77b4;stroke:#000000;stroke-linejoin:miter;stroke-width:0.4;"/>
   </g>
   <g id="patch_105">
    <path clip-path="url(#p98bb284724)" d="M 214.149522 307.584 
L 215.525177 307.584 
L 215.525177 267.166037 
L 214.149522 267.166037 
z
" style="fill:#1f77b4;stroke:#000000;stroke-linejoin:miter;stroke-width:0.4;"/>
   </g>
   <g id="patch_106">
    <path clip-path="url(#p98bb284724)" d="M 215.525177 307.584 
L 216.900832 307.584 
L 216.900832 264.879483 
L 215.525177 264.879483 
z
" style="fill:#1f77b4;stroke:#000000;stroke-linejoin:miter;stroke-width:0.4;"/>
   </g>
   <g id="patch_107">
    <path clip-path="url(#p98bb284724)" d="M 216.900832 307.584 
L 218.276487 307.584 
L 218.276487 264.93436 
L 216.900832 264.93436 
z
" style="fill:#1f77b4;stroke:#000000;stroke-linejoin:miter;stroke-width:0.4;"/>
   </g>
   <g id="patch_108">
    <path clip-path="url(#p98bb284724)" d="M 218.276487 307.584 
L 219.652142 307.584 
L 219.652142 269.24306 
L 218.276487 269.24306 
z
" style="fill:#1f77b4;stroke:#000000;stroke-linejoin:miter;stroke-width:0.4;"/>
   </g>
   <g id="patch_109">
    <path clip-path="url(#p98bb284724)" d="M 219.652142 307.584 
L 221.027797 307.584 
L 221.027797 267.994186 
L 219.652142 267.994186 
z
" style="fill:#1f77b4;stroke:#000000;stroke-linejoin:miter;stroke-width:0.4;"/>
   </g>
   <g id="patch_110">
    <path clip-path="url(#p98bb284724)" d="M 221.027797 307.584 
L 222.403451 307.584 
L 222.403451 269.090069 
L 221.027797 269.090069 
z
" style="fill:#1f77b4;stroke:#000000;stroke-linejoin:miter;stroke-width:0.4;"/>
   </g>
   <g id="patch_111">
    <path clip-path="url(#p98bb284724)" d="M 222.403451 307.584 
L 223.779106 307.584 
L 223.779106 267.523571 
L 222.403451 267.523571 
z
" style="fill:#1f77b4;stroke:#000000;stroke-linejoin:miter;stroke-width:0.4;"/>
   </g>
   <g id="patch_112">
    <path clip-path="url(#p98bb284724)" d="M 223.779106 307.584 
L 225.154761 307.584 
L 225.154761 268.760805 
L 223.779106 268.760805 
z
" style="fill:#1f77b4;stroke:#000000;stroke-linejoin:miter;stroke-width:0.4;"/>
   </g>
   <g id="patch_113">
    <path clip-path="url(#p98bb284724)" d="M 225.154761 307.584 
L 226.530416 307.584 
L 226.530416 273.914282 
L 225.154761 273.914282 
z
" style="fill:#1f77b4;stroke:#000000;stroke-linejoin:miter;stroke-width:0.4;"/>
   </g>
   <g id="patch_114">
    <path clip-path="url(#p98bb284724)" d="M 226.530416 307.584 
L 227.906071 307.584 
L 227.906071 274.245209 
L 226.530416 274.245209 
z
" style="fill:#1f77b4;stroke:#000000;stroke-linejoin:miter;stroke-width:0.4;"/>
   </g>
   <g id="patch_115">
    <path clip-path="url(#p98bb284724)" d="M 227.906071 307.584 
L 229.281726 307.584 
L 229.281726 278.108238 
L 227.906071 278.108238 
z
" style="fill:#1f77b4;stroke:#000000;stroke-linejoin:miter;stroke-width:0.4;"/>
   </g>
   <g id="patch_116">
    <path clip-path="url(#p98bb284724)" d="M 229.281726 307.584 
L 230.657381 307.584 
L 230.657381 275.928113 
L 229.281726 275.928113 
z
" style="fill:#1f77b4;stroke:#000000;stroke-linejoin:miter;stroke-width:0.4;"/>
   </g>
   <g id="patch_117">
    <path clip-path="url(#p98bb284724)" d="M 230.657381 307.584 
L 232.033035 307.584 
L 232.033035 269.708685 
L 230.657381 269.708685 
z
" style="fill:#1f77b4;stroke:#000000;stroke-linejoin:miter;stroke-width:0.4;"/>
   </g>
   <g id="patch_118">
    <path clip-path="url(#p98bb284724)" d="M 232.033035 307.584 
L 233.40869 307.584 
L 233.40869 264.892787 
L 232.033035 264.892787 
z
" style="fill:#1f77b4;stroke:#000000;stroke-linejoin:miter;stroke-width:0.4;"/>
   </g>
   <g id="patch_119">
    <path clip-path="url(#p98bb284724)" d="M 233.40869 307.584 
L 234.784345 307.584 
L 234.784345 265.883904 
L 233.40869 265.883904 
z
" style="fill:#1f77b4;stroke:#000000;stroke-linejoin:miter;stroke-width:0.4;"/>
   </g>
   <g id="patch_120">
    <path clip-path="url(#p98bb284724)" d="M 234.784345 307.584 
L 236.16 307.584 
L 236.16 260.757034 
L 234.784345 260.757034 
z
" style="fill:#1f77b4;stroke:#000000;stroke-linejoin:miter;stroke-width:0.4;"/>
   </g>
   <g id="patch_121">
    <path clip-path="url(#p98bb284724)" d="M 236.16 307.584 
L 237.535655 307.584 
L 237.535655 258.823025 
L 236.16 258.823025 
z
" style="fill:#1f77b4;stroke:#000000;stroke-linejoin:miter;stroke-width:0.4;"/>
   </g>
   <g id="patch_122">
    <path clip-path="url(#p98bb284724)" d="M 237.535655 307.584 
L 238.91131 307.584 
L 238.91131 264.6633 
L 237.535655 264.6633 
z
" style="fill:#1f77b4;stroke:#000000;stroke-linejoin:miter;stroke-width:0.4;"/>
   </g>
   <g id="patch_123">
    <path clip-path="url(#p98bb284724)" d="M 238.91131 307.584 
L 240.286965 307.584 
L 240.286965 263.118421 
L 238.91131 263.118421 
z
" style="fill:#1f77b4;stroke:#000000;stroke-linejoin:miter;stroke-width:0.4;"/>
   </g>
   <g id="patch_124">
    <path clip-path="url(#p98bb284724)" d="M 240.286965 307.584 
L 241.662619 307.584 
L 241.662619 267.87279 
L 240.286965 267.87279 
z
" style="fill:#1f77b4;stroke:#000000;stroke-linejoin:miter;stroke-width:0.4;"/>
   </g>
   <g id="patch_125">
    <path clip-path="url(#p98bb284724)" d="M 241.662619 307.584 
L 243.038274 307.584 
L 243.038274 264.013087 
L 241.662619 264.013087 
z
" style="fill:#1f77b4;stroke:#000000;stroke-linejoin:miter;stroke-width:0.4;"/>
   </g>
   <g id="patch_126">
    <path clip-path="url(#p98bb284724)" d="M 243.038274 307.584 
L 244.413929 307.584 
L 244.413929 260.620672 
L 243.038274 260.620672 
z
" style="fill:#1f77b4;stroke:#000000;stroke-linejoin:miter;stroke-width:0.4;"/>
   </g>
   <g id="patch_127">
    <path clip-path="url(#p98bb284724)" d="M 244.413929 307.584 
L 245.789584 307.584 
L 245.789584 268.055715 
L 244.413929 268.055715 
z
" style="fill:#1f77b4;stroke:#000000;stroke-linejoin:miter;stroke-width:0.4;"/>
   </g>
   <g id="patch_128">
    <path clip-path="url(#p98bb284724)" d="M 245.789584 307.584 
L 247.165239 307.584 
L 247.165239 265.403312 
L 245.789584 265.403312 
z
" style="fill:#1f77b4;stroke:#000000;stroke-linejoin:miter;stroke-width:0.4;"/>
   </g>
   <g id="patch_129">
    <path clip-path="url(#p98bb284724)" d="M 247.165239 307.584 
L 248.540894 307.584 
L 248.540894 269.292948 
L 247.165239 269.292948 
z
" style="fill:#1f77b4;stroke:#000000;stroke-linejoin:miter;stroke-width:0.4;"/>
   </g>
   <g id="patch_130">
    <path clip-path="url(#p98bb284724)" d="M 248.540894 307.584 
L 249.916549 307.584 
L 249.916549 264.593456 
L 248.540894 264.593456 
z
" style="fill:#1f77b4;stroke:#000000;stroke-linejoin:miter;stroke-width:0.4;"/>
   </g>
   <g id="patch_131">
    <path clip-path="url(#p98bb284724)" d="M 249.916549 307.584 
L 251.292203 307.584 
L 251.292203 262.93217 
L 249.916549 262.93217 
z
" style="fill:#1f77b4;stroke:#000000;stroke-linejoin:miter;stroke-width:0.4;"/>
   </g>
   <g id="patch_132">
    <path clip-path="url(#p98bb284724)" d="M 251.292203 307.584 
L 252.667858 307.584 
L 252.667858 268.647724 
L 251.292203 268.647724 
z
" style="fill:#1f77b4;stroke:#000000;stroke-linejoin:miter;stroke-width:0.4;"/>
   </g>
   <g id="patch_133">
    <path clip-path="url(#p98bb284724)" d="M 252.667858 307.584 
L 254.043513 307.584 
L 254.043513 267.385546 
L 252.667858 267.385546 
z
" style="fill:#1f77b4;stroke:#000000;stroke-linejoin:miter;stroke-width:0.4;"/>
   </g>
   <g id="patch_134">
    <path clip-path="url(#p98bb284724)" d="M 254.043513 307.584 
L 255.419168 307.584 
L 255.419168 267.942634 
L 254.043513 267.942634 
z
" style="fill:#1f77b4;stroke:#000000;stroke-linejoin:miter;stroke-width:0.4;"/>
   </g>
   <g id="patch_135">
    <path clip-path="url(#p98bb284724)" d="M 255.419168 307.584 
L 256.794823 307.584 
L 256.794823 263.314649 
L 255.419168 263.314649 
z
" style="fill:#1f77b4;stroke:#000000;stroke-linejoin:miter;stroke-width:0.4;"/>
   </g>
   <g id="patch_136">
    <path clip-path="url(#p98bb284724)" d="M 256.794823 307.584 
L 258.170478 307.584 
L 258.170478 262.281958 
L 256.794823 262.281958 
z
" style="fill:#1f77b4;stroke:#000000;stroke-linejoin:miter;stroke-width:0.4;"/>
   </g>
   <g id="patch_137">
    <path clip-path="url(#p98bb284724)" d="M 258.170478 307.584 
L 259.546133 307.584 
L 259.546133 265.338457 
L 258.170478 265.338457 
z
" style="fill:#1f77b4;stroke:#000000;stroke-linejoin:miter;stroke-width:0.4;"/>
   </g>
   <g id="patch_138">
    <path clip-path="url(#p98bb284724)" d="M 259.546133 307.584 
L 260.921787 307.584 
L 260.921787 264.724829 
L 259.546133 264.724829 
z
" style="fill:#1f77b4;stroke:#000000;stroke-linejoin:miter;stroke-width:0.4;"/>
   </g>
   <g id="patch_139">
    <path clip-path="url(#p98bb284724)" d="M 260.921787 307.584 
L 262.297442 307.584 
L 262.297442 265.669384 
L 260.921787 265.669384 
z
" style="fill:#1f77b4;stroke:#000000;stroke-linejoin:miter;stroke-width:0.4;"/>
   </g>
   <g id="patch_140">
    <path clip-path="url(#p98bb284724)" d="M 262.297442 307.584 
L 263.673097 307.584 
L 263.673097 260.968228 
L 262.297442 260.968228 
z
" style="fill:#1f77b4;stroke:#000000;stroke-linejoin:miter;stroke-width:0.4;"/>
   </g>
   <g id="patch_141">
    <path clip-path="url(#p98bb284724)" d="M 263.673097 307.584 
L 265.048752 307.584 
L 265.048752 258.370703 
L 263.673097 258.370703 
z
" style="fill:#1f77b4;stroke:#000000;stroke-linejoin:miter;stroke-width:0.4;"/>
   </g>
   <g id="patch_142">
    <path clip-path="url(#p98bb284724)" d="M 265.048752 307.584 
L 266.424407 307.584 
L 266.424407 257.264842 
L 265.048752 257.264842 
z
" style="fill:#1f77b4;stroke:#000000;stroke-linejoin:miter;stroke-width:0.4;"/>
   </g>
   <g id="patch_143">
    <path clip-path="url(#p98bb284724)" d="M 266.424407 307.584 
L 267.800062 307.584 
L 267.800062 255.505442 
L 266.424407 255.505442 
z
" style="fill:#1f77b4;stroke:#000000;stroke-linejoin:miter;stroke-width:0.4;"/>
   </g>
   <g id="patch_144">
    <path clip-path="url(#p98bb284724)" d="M 267.800062 307.584 
L 269.175716 307.584 
L 269.175716 253.852472 
L 267.800062 253.852472 
z
" style="fill:#1f77b4;stroke:#000000;stroke-linejoin:miter;stroke-width:0.4;"/>
   </g>
   <g id="patch_145">
    <path clip-path="url(#p98bb284724)" d="M 269.175716 307.584 
L 270.551371 307.584 
L 270.551371 260.372893 
L 269.175716 260.372893 
z
" style="fill:#1f77b4;stroke:#000000;stroke-linejoin:miter;stroke-width:0.4;"/>
   </g>
   <g id="patch_146">
    <path clip-path="url(#p98bb284724)" d="M 270.551371 307.584 
L 271.927026 307.584 
L 271.927026 259.278673 
L 270.551371 259.278673 
z
" style="fill:#1f77b4;stroke:#000000;stroke-linejoin:miter;stroke-width:0.4;"/>
   </g>
   <g id="patch_147">
    <path clip-path="url(#p98bb284724)" d="M 271.927026 307.584 
L 273.302681 307.584 
L 273.302681 259.662814 
L 271.927026 259.662814 
z
" style="fill:#1f77b4;stroke:#000000;stroke-linejoin:miter;stroke-width:0.4;"/>
   </g>
   <g id="patch_148">
    <path clip-path="url(#p98bb284724)" d="M 273.302681 307.584 
L 274.678336 307.584 
L 274.678336 251.271576 
L 273.302681 251.271576 
z
" style="fill:#1f77b4;stroke:#000000;stroke-linejoin:miter;stroke-width:0.4;"/>
   </g>
   <g id="patch_149">
    <path clip-path="url(#p98bb284724)" d="M 274.678336 307.584 
L 276.053991 307.584 
L 276.053991 250.736106 
L 274.678336 250.736106 
z
" style="fill:#1f77b4;stroke:#000000;stroke-linejoin:miter;stroke-width:0.4;"/>
   </g>
   <g id="patch_150">
    <path clip-path="url(#p98bb284724)" d="M 276.053991 307.584 
L 277.429646 307.584 
L 277.429646 256.155655 
L 276.053991 256.155655 
z
" style="fill:#1f77b4;stroke:#000000;stroke-linejoin:miter;stroke-width:0.4;"/>
   </g>
   <g id="patch_151">
    <path clip-path="url(#p98bb284724)" d="M 277.429646 307.584 
L 278.8053 307.584 
L 278.8053 254.600799 
L 277.429646 254.600799 
z
" style="fill:#1f77b4;stroke:#000000;stroke-linejoin:miter;stroke-width:0.4;"/>
   </g>
   <g id="patch_152">
    <path clip-path="url(#p98bb284724)" d="M 278.8053 307.584 
L 280.180955 307.584 
L 280.180955 254.923411 
L 278.8053 254.923411 
z
" style="fill:#1f77b4;stroke:#000000;stroke-linejoin:miter;stroke-width:0.4;"/>
   </g>
   <g id="patch_153">
    <path clip-path="url(#p98bb284724)" d="M 280.180955 307.584 
L 281.55661 307.584 
L 281.55661 249.362511 
L 280.180955 249.362511 
z
" style="fill:#1f77b4;stroke:#000000;stroke-linejoin:miter;stroke-width:0.4;"/>
   </g>
   <g id="patch_154">
    <path clip-path="url(#p98bb284724)" d="M 281.55661 307.584 
L 282.932265 307.584 
L 282.932265 247.453446 
L 281.55661 247.453446 
z
" style="fill:#1f77b4;stroke:#000000;stroke-linejoin:miter;stroke-width:0.4;"/>
   </g>
   <g id="patch_155">
    <path clip-path="url(#p98bb284724)" d="M 282.932265 307.584 
L 284.30792 307.584 
L 284.30792 251.780438 
L 282.932265 251.780438 
z
" style="fill:#1f77b4;stroke:#000000;stroke-linejoin:miter;stroke-width:0.4;"/>
   </g>
   <g id="patch_156">
    <path clip-path="url(#p98bb284724)" d="M 284.30792 307.584 
L 285.683575 307.584 
L 285.683575 249.503861 
L 284.30792 249.503861 
z
" style="fill:#1f77b4;stroke:#000000;stroke-linejoin:miter;stroke-width:0.4;"/>
   </g>
   <g id="patch_157">
    <path clip-path="url(#p98bb284724)" d="M 285.683575 307.584 
L 287.05923 307.584 
L 287.05923 250.684555 
L 285.683575 250.684555 
z
" style="fill:#1f77b4;stroke:#000000;stroke-linejoin:miter;stroke-width:0.4;"/>
   </g>
   <g id="patch_158">
    <path clip-path="url(#p98bb284724)" d="M 287.05923 307.584 
L 288.434884 307.584 
L 288.434884 242.694087 
L 287.05923 242.694087 
z
" style="fill:#1f77b4;stroke:#000000;stroke-linejoin:miter;stroke-width:0.4;"/>
   </g>
   <g id="patch_159">
    <path clip-path="url(#p98bb284724)" d="M 288.434884 307.584 
L 289.810539 307.584 
L 289.810539 242.283339 
L 288.434884 242.283339 
z
" style="fill:#1f77b4;stroke:#000000;stroke-linejoin:miter;stroke-width:0.4;"/>
   </g>
   <g id="patch_160">
    <path clip-path="url(#p98bb284724)" d="M 289.810539 307.584 
L 291.186194 307.584 
L 291.186194 250.543204 
L 289.810539 250.543204 
z
" style="fill:#1f77b4;stroke:#000000;stroke-linejoin:miter;stroke-width:0.4;"/>
   </g>
   <g id="patch_161">
    <path clip-path="url(#p98bb284724)" d="M 291.186194 307.584 
L 292.561849 307.584 
L 292.561849 251.082 
L 291.186194 251.082 
z
" style="fill:#1f77b4;stroke:#000000;stroke-linejoin:miter;stroke-width:0.4;"/>
   </g>
   <g id="patch_162">
    <path clip-path="url(#p98bb284724)" d="M 292.561849 307.584 
L 293.937504 307.584 
L 293.937504 256.371839 
L 292.561849 256.371839 
z
" style="fill:#1f77b4;stroke:#000000;stroke-linejoin:miter;stroke-width:0.4;"/>
   </g>
   <g id="patch_163">
    <path clip-path="url(#p98bb284724)" d="M 293.937504 307.584 
L 295.313159 307.584 
L 295.313159 257.194998 
L 293.937504 257.194998 
z
" style="fill:#1f77b4;stroke:#000000;stroke-linejoin:miter;stroke-width:0.4;"/>
   </g>
   <g id="patch_164">
    <path clip-path="url(#p98bb284724)" d="M 295.313159 307.584 
L 296.688814 307.584 
L 296.688814 239.140366 
L 295.313159 239.140366 
z
" style="fill:#1f77b4;stroke:#000000;stroke-linejoin:miter;stroke-width:0.4;"/>
   </g>
   <g id="patch_165">
    <path clip-path="url(#p98bb284724)" d="M 296.688814 307.584 
L 298.064468 307.584 
L 298.064468 227.152171 
L 296.688814 227.152171 
z
" style="fill:#1f77b4;stroke:#000000;stroke-linejoin:miter;stroke-width:0.4;"/>
   </g>
   <g id="patch_166">
    <path clip-path="url(#p98bb284724)" d="M 298.064468 307.584 
L 299.440123 307.584 
L 299.440123 232.749655 
L 298.064468 232.749655 
z
" style="fill:#1f77b4;stroke:#000000;stroke-linejoin:miter;stroke-width:0.4;"/>
   </g>
   <g id="patch_167">
    <path clip-path="url(#p98bb284724)" d="M 299.440123 307.584 
L 300.815778 307.584 
L 300.815778 223.159432 
L 299.440123 223.159432 
z
" style="fill:#1f77b4;stroke:#000000;stroke-linejoin:miter;stroke-width:0.4;"/>
   </g>
   <g id="patch_168">
    <path clip-path="url(#p98bb284724)" d="M 300.815778 307.584 
L 302.191433 307.584 
L 302.191433 222.093482 
L 300.815778 222.093482 
z
" style="fill:#1f77b4;stroke:#000000;stroke-linejoin:miter;stroke-width:0.4;"/>
   </g>
   <g id="patch_169">
    <path clip-path="url(#p98bb284724)" d="M 302.191433 307.584 
L 303.567088 307.584 
L 303.567088 202.00839 
L 302.191433 202.00839 
z
" style="fill:#1f77b4;stroke:#000000;stroke-linejoin:miter;stroke-width:0.4;"/>
   </g>
   <g id="patch_170">
    <path clip-path="url(#p98bb284724)" d="M 303.567088 307.584 
L 304.942743 307.584 
L 304.942743 194.131003 
L 303.567088 194.131003 
z
" style="fill:#1f77b4;stroke:#000000;stroke-linejoin:miter;stroke-width:0.4;"/>
   </g>
   <g id="patch_171">
    <path clip-path="url(#p98bb284724)" d="M 304.942743 307.584 
L 306.318398 307.584 
L 306.318398 209.184013 
L 304.942743 209.184013 
z
" style="fill:#1f77b4;stroke:#000000;stroke-linejoin:miter;stroke-width:0.4;"/>
   </g>
   <g id="patch_172">
    <path clip-path="url(#p98bb284724)" d="M 306.318398 307.584 
L 307.694052 307.584 
L 307.694052 201.188556 
L 306.318398 201.188556 
z
" style="fill:#1f77b4;stroke:#000000;stroke-linejoin:miter;stroke-width:0.4;"/>
   </g>
   <g id="patch_173">
    <path clip-path="url(#p98bb284724)" d="M 307.694052 307.584 
L 309.069707 307.584 
L 309.069707 187.989734 
L 307.694052 187.989734 
z
" style="fill:#1f77b4;stroke:#000000;stroke-linejoin:miter;stroke-width:0.4;"/>
   </g>
   <g id="patch_174">
    <path clip-path="url(#p98bb284724)" d="M 309.069707 307.584 
L 310.445362 307.584 
L 310.445362 189.775741 
L 309.069707 189.775741 
z
" style="fill:#1f77b4;stroke:#000000;stroke-linejoin:miter;stroke-width:0.4;"/>
   </g>
   <g id="patch_175">
    <path clip-path="url(#p98bb284724)" d="M 310.445362 307.584 
L 311.821017 307.584 
L 311.821017 187.179878 
L 310.445362 187.179878 
z
" style="fill:#1f77b4;stroke:#000000;stroke-linejoin:miter;stroke-width:0.4;"/>
   </g>
   <g id="patch_176">
    <path clip-path="url(#p98bb284724)" d="M 311.821017 307.584 
L 313.196672 307.584 
L 313.196672 193.025142 
L 311.821017 193.025142 
z
" style="fill:#1f77b4;stroke:#000000;stroke-linejoin:miter;stroke-width:0.4;"/>
   </g>
   <g id="patch_177">
    <path clip-path="url(#p98bb284724)" d="M 313.196672 307.584 
L 314.572327 307.584 
L 314.572327 195.487969 
L 313.196672 195.487969 
z
" style="fill:#1f77b4;stroke:#000000;stroke-linejoin:miter;stroke-width:0.4;"/>
   </g>
   <g id="patch_178">
    <path clip-path="url(#p98bb284724)" d="M 314.572327 307.584 
L 315.947982 307.584 
L 315.947982 172.333074 
L 314.572327 172.333074 
z
" style="fill:#1f77b4;stroke:#000000;stroke-linejoin:miter;stroke-width:0.4;"/>
   </g>
   <g id="patch_179">
    <path clip-path="url(#p98bb284724)" d="M 315.947982 307.584 
L 317.323636 307.584 
L 317.323636 178.288093 
L 315.947982 178.288093 
z
" style="fill:#1f77b4;stroke:#000000;stroke-linejoin:miter;stroke-width:0.4;"/>
   </g>
   <g id="patch_180">
    <path clip-path="url(#p98bb284724)" d="M 317.323636 307.584 
L 318.699291 307.584 
L 318.699291 171.701154 
L 317.323636 171.701154 
z
" style="fill:#1f77b4;stroke:#000000;stroke-linejoin:miter;stroke-width:0.4;"/>
   </g>
   <g id="patch_181">
    <path clip-path="url(#p98bb284724)" d="M 318.699291 307.584 
L 320.074946 307.584 
L 320.074946 171.701154 
L 318.699291 171.701154 
z
" style="fill:#1f77b4;stroke:#000000;stroke-linejoin:miter;stroke-width:0.4;"/>
   </g>
   <g id="patch_182">
    <path clip-path="url(#p98bb284724)" d="M 320.074946 307.584 
L 321.450601 307.584 
L 321.450601 179.824657 
L 320.074946 179.824657 
z
" style="fill:#1f77b4;stroke:#000000;stroke-linejoin:miter;stroke-width:0.4;"/>
   </g>
   <g id="patch_183">
    <path clip-path="url(#p98bb284724)" d="M 321.450601 307.584 
L 322.826256 307.584 
L 322.826256 153.157615 
L 321.450601 153.157615 
z
" style="fill:#1f77b4;stroke:#000000;stroke-linejoin:miter;stroke-width:0.4;"/>
   </g>
   <g id="patch_184">
    <path clip-path="url(#p98bb284724)" d="M 322.826256 307.584 
L 324.201911 307.584 
L 324.201911 158.886473 
L 322.826256 158.886473 
z
" style="fill:#1f77b4;stroke:#000000;stroke-linejoin:miter;stroke-width:0.4;"/>
   </g>
   <g id="patch_185">
    <path clip-path="url(#p98bb284724)" d="M 324.201911 307.584 
L 325.577565 307.584 
L 325.577565 155.713567 
L 324.201911 155.713567 
z
" style="fill:#1f77b4;stroke:#000000;stroke-linejoin:miter;stroke-width:0.4;"/>
   </g>
   <g id="patch_186">
    <path clip-path="url(#p98bb284724)" d="M 325.577565 307.584 
L 326.95322 307.584 
L 326.95322 154.569459 
L 325.577565 154.569459 
z
" style="fill:#1f77b4;stroke:#000000;stroke-linejoin:miter;stroke-width:0.4;"/>
   </g>
   <g id="patch_187">
    <path clip-path="url(#p98bb284724)" d="M 326.95322 307.584 
L 328.328875 307.584 
L 328.328875 165.228958 
L 326.95322 165.228958 
z
" style="fill:#1f77b4;stroke:#000000;stroke-linejoin:miter;stroke-width:0.4;"/>
   </g>
   <g id="patch_188">
    <path clip-path="url(#p98bb284724)" d="M 328.328875 307.584 
L 329.70453 307.584 
L 329.70453 133.250459 
L 328.328875 133.250459 
z
" style="fill:#1f77b4;stroke:#000000;stroke-linejoin:miter;stroke-width:0.4;"/>
   </g>
   <g id="patch_189">
    <path clip-path="url(#p98bb284724)" d="M 329.70453 307.584 
L 331.080185 307.584 
L 331.080185 139.97376 
L 329.70453 139.97376 
z
" style="fill:#1f77b4;stroke:#000000;stroke-linejoin:miter;stroke-width:0.4;"/>
   </g>
   <g id="patch_190">
    <path clip-path="url(#p98bb284724)" d="M 331.080185 307.584 
L 332.45584 307.584 
L 332.45584 137.910041 
L 331.080185 137.910041 
z
" style="fill:#1f77b4;stroke:#000000;stroke-linejoin:miter;stroke-width:0.4;"/>
   </g>
   <g id="patch_191">
    <path clip-path="url(#p98bb284724)" d="M 332.45584 307.584 
L 333.831495 307.584 
L 333.831495 135.65342 
L 332.45584 135.65342 
z
" style="fill:#1f77b4;stroke:#000000;stroke-linejoin:miter;stroke-width:0.4;"/>
   </g>
   <g id="patch_192">
    <path clip-path="url(#p98bb284724)" d="M 333.831495 307.584 
L 335.207149 307.584 
L 335.207149 156.169215 
L 333.831495 156.169215 
z
" style="fill:#1f77b4;stroke:#000000;stroke-linejoin:miter;stroke-width:0.4;"/>
   </g>
   <g id="patch_193">
    <path clip-path="url(#p98bb284724)" d="M 335.207149 307.584 
L 336.582804 307.584 
L 336.582804 123.294387 
L 335.207149 123.294387 
z
" style="fill:#1f77b4;stroke:#000000;stroke-linejoin:miter;stroke-width:0.4;"/>
   </g>
   <g id="patch_194">
    <path clip-path="url(#p98bb284724)" d="M 336.582804 307.584 
L 337.958459 307.584 
L 337.958459 126.162973 
L 336.582804 126.162973 
z
" style="fill:#1f77b4;stroke:#000000;stroke-linejoin:miter;stroke-width:0.4;"/>
   </g>
   <g id="patch_195">
    <path clip-path="url(#p98bb284724)" d="M 337.958459 307.584 
L 339.334114 307.584 
L 339.334114 116.634278 
L 337.958459 116.634278 
z
" style="fill:#1f77b4;stroke:#000000;stroke-linejoin:miter;stroke-width:0.4;"/>
   </g>
   <g id="patch_196">
    <path clip-path="url(#p98bb284724)" d="M 339.334114 307.584 
L 340.709769 307.584 
L 340.709769 96.214934 
L 339.334114 96.214934 
z
" style="fill:#1f77b4;stroke:#000000;stroke-linejoin:miter;stroke-width:0.4;"/>
   </g>
   <g id="patch_197">
    <path clip-path="url(#p98bb284724)" d="M 340.709769 307.584 
L 342.085424 307.584 
L 342.085424 96.120146 
L 340.709769 96.120146 
z
" style="fill:#1f77b4;stroke:#000000;stroke-linejoin:miter;stroke-width:0.4;"/>
   </g>
   <g id="patch_198">
    <path clip-path="url(#p98bb284724)" d="M 342.085424 307.584 
L 343.461079 307.584 
L 343.461079 58.178313 
L 342.085424 58.178313 
z
" style="fill:#1f77b4;stroke:#000000;stroke-linejoin:miter;stroke-width:0.4;"/>
   </g>
   <g id="patch_199">
    <path clip-path="url(#p98bb284724)" d="M 343.461079 307.584 
L 344.836733 307.584 
L 344.836733 108.936489 
L 343.461079 108.936489 
z
" style="fill:#1f77b4;stroke:#000000;stroke-linejoin:miter;stroke-width:0.4;"/>
   </g>
   <g id="patch_200">
    <path clip-path="url(#p98bb284724)" d="M 344.836733 307.584 
L 346.212388 307.584 
L 346.212388 100.620084 
L 344.836733 100.620084 
z
" style="fill:#1f77b4;stroke:#000000;stroke-linejoin:miter;stroke-width:0.4;"/>
   </g>
   <g id="patch_201">
    <path clip-path="url(#p98bb284724)" d="M 346.212388 307.584 
L 347.588043 307.584 
L 347.588043 112.007955 
L 346.212388 112.007955 
z
" style="fill:#1f77b4;stroke:#000000;stroke-linejoin:miter;stroke-width:0.4;"/>
   </g>
   <g id="patch_202">
    <path clip-path="url(#p98bb284724)" d="M 347.588043 307.584 
L 348.963698 307.584 
L 348.963698 138.571894 
L 347.588043 138.571894 
z
" style="fill:#1f77b4;stroke:#000000;stroke-linejoin:miter;stroke-width:0.4;"/>
   </g>
   <g id="patch_203">
    <path clip-path="url(#p98bb284724)" d="M 348.963698 307.584 
L 350.339353 307.584 
L 350.339353 119.808847 
L 348.963698 119.808847 
z
" style="fill:#1f77b4;stroke:#000000;stroke-linejoin:miter;stroke-width:0.4;"/>
   </g>
   <g id="patch_204">
    <path clip-path="url(#p98bb284724)" d="M 350.339353 307.584 
L 351.715008 307.584 
L 351.715008 140.148369 
L 350.339353 140.148369 
z
" style="fill:#1f77b4;stroke:#000000;stroke-linejoin:miter;stroke-width:0.4;"/>
   </g>
   <g id="patch_205">
    <path clip-path="url(#p98bb284724)" d="M 351.715008 307.584 
L 353.090663 307.584 
L 353.090663 92.972184 
L 351.715008 92.972184 
z
" style="fill:#1f77b4;stroke:#000000;stroke-linejoin:miter;stroke-width:0.4;"/>
   </g>
   <g id="patch_206">
    <path clip-path="url(#p98bb284724)" d="M 353.090663 307.584 
L 354.466317 307.584 
L 354.466317 86.684576 
L 353.090663 86.684576 
z
" style="fill:#1f77b4;stroke:#000000;stroke-linejoin:miter;stroke-width:0.4;"/>
   </g>
   <g id="patch_207">
    <path clip-path="url(#p98bb284724)" d="M 354.466317 307.584 
L 355.841972 307.584 
L 355.841972 127.393555 
L 354.466317 127.393555 
z
" style="fill:#1f77b4;stroke:#000000;stroke-linejoin:miter;stroke-width:0.4;"/>
   </g>
   <g id="patch_208">
    <path clip-path="url(#p98bb284724)" d="M 355.841972 307.584 
L 357.217627 307.584 
L 357.217627 84.531058 
L 355.841972 84.531058 
z
" style="fill:#1f77b4;stroke:#000000;stroke-linejoin:miter;stroke-width:0.4;"/>
   </g>
   <g id="patch_209">
    <path clip-path="url(#p98bb284724)" d="M 357.217627 307.584 
L 358.593282 307.584 
L 358.593282 121.769463 
L 357.217627 121.769463 
z
" style="fill:#1f77b4;stroke:#000000;stroke-linejoin:miter;stroke-width:0.4;"/>
   </g>
   <g id="patch_210">
    <path clip-path="url(#p98bb284724)" d="M 358.593282 307.584 
L 359.968937 307.584 
L 359.968937 61.603987 
L 358.593282 61.603987 
z
" style="fill:#1f77b4;stroke:#000000;stroke-linejoin:miter;stroke-width:0.4;"/>
   </g>
   <g id="patch_211">
    <path clip-path="url(#p98bb284724)" d="M 359.968937 307.584 
L 361.344592 307.584 
L 361.344592 57.582977 
L 359.968937 57.582977 
z
" style="fill:#1f77b4;stroke:#000000;stroke-linejoin:miter;stroke-width:0.4;"/>
   </g>
   <g id="patch_212">
    <path clip-path="url(#p98bb284724)" d="M 361.344592 307.584 
L 362.720247 307.584 
L 362.720247 111.204751 
L 361.344592 111.204751 
z
" style="fill:#1f77b4;stroke:#000000;stroke-linejoin:miter;stroke-width:0.4;"/>
   </g>
   <g id="patch_213">
    <path clip-path="url(#p98bb284724)" d="M 362.720247 307.584 
L 364.095901 307.584 
L 364.095901 72.882103 
L 362.720247 72.882103 
z
" style="fill:#1f77b4;stroke:#000000;stroke-linejoin:miter;stroke-width:0.4;"/>
   </g>
   <g id="patch_214">
    <path clip-path="url(#p98bb284724)" d="M 364.095901 307.584 
L 365.471556 307.584 
L 365.471556 119.773925 
L 364.095901 119.773925 
z
" style="fill:#1f77b4;stroke:#000000;stroke-linejoin:miter;stroke-width:0.4;"/>
   </g>
   <g id="patch_215">
    <path clip-path="url(#p98bb284724)" d="M 365.471556 307.584 
L 366.847211 307.584 
L 366.847211 62.475372 
L 365.471556 62.475372 
z
" style="fill:#1f77b4;stroke:#000000;stroke-linejoin:miter;stroke-width:0.4;"/>
   </g>
   <g id="patch_216">
    <path clip-path="url(#p98bb284724)" d="M 366.847211 307.584 
L 368.222866 307.584 
L 368.222866 54.144 
L 366.847211 54.144 
z
" style="fill:#1f77b4;stroke:#000000;stroke-linejoin:miter;stroke-width:0.4;"/>
   </g>
   <g id="patch_217">
    <path clip-path="url(#p98bb284724)" d="M 368.222866 307.584 
L 369.598521 307.584 
L 369.598521 115.561676 
L 368.222866 115.561676 
z
" style="fill:#1f77b4;stroke:#000000;stroke-linejoin:miter;stroke-width:0.4;"/>
   </g>
   <g id="patch_218">
    <path clip-path="url(#p98bb284724)" d="M 369.598521 307.584 
L 370.974176 307.584 
L 370.974176 69.722501 
L 369.598521 69.722501 
z
" style="fill:#1f77b4;stroke:#000000;stroke-linejoin:miter;stroke-width:0.4;"/>
   </g>
   <g id="patch_219">
    <path clip-path="url(#p98bb284724)" d="M 370.974176 307.584 
L 372.349831 307.584 
L 372.349831 134.1418 
L 370.974176 134.1418 
z
" style="fill:#1f77b4;stroke:#000000;stroke-linejoin:miter;stroke-width:0.4;"/>
   </g>
   <g id="patch_220">
    <path clip-path="url(#p98bb284724)" d="M 372.349831 307.584 
L 373.725485 307.584 
L 373.725485 72.268475 
L 372.349831 72.268475 
z
" style="fill:#1f77b4;stroke:#000000;stroke-linejoin:miter;stroke-width:0.4;"/>
   </g>
   <g id="patch_221">
    <path clip-path="url(#p98bb284724)" d="M 373.725485 307.584 
L 375.10114 307.584 
L 375.10114 56.718244 
L 373.725485 56.718244 
z
" style="fill:#1f77b4;stroke:#000000;stroke-linejoin:miter;stroke-width:0.4;"/>
   </g>
   <g id="patch_222">
    <path clip-path="url(#p98bb284724)" d="M 375.10114 307.584 
L 376.476795 307.584 
L 376.476795 112.58001 
L 375.10114 112.58001 
z
" style="fill:#1f77b4;stroke:#000000;stroke-linejoin:miter;stroke-width:0.4;"/>
   </g>
   <g id="patch_223">
    <path clip-path="url(#p98bb284724)" d="M 376.476795 307.584 
L 377.85245 307.584 
L 377.85245 58.066895 
L 376.476795 58.066895 
z
" style="fill:#1f77b4;stroke:#000000;stroke-linejoin:miter;stroke-width:0.4;"/>
   </g>
   <g id="patch_224">
    <path clip-path="url(#p98bb284724)" d="M 377.85245 307.584 
L 379.228105 307.584 
L 379.228105 132.231072 
L 377.85245 132.231072 
z
" style="fill:#1f77b4;stroke:#000000;stroke-linejoin:miter;stroke-width:0.4;"/>
   </g>
   <g id="patch_225">
    <path clip-path="url(#p98bb284724)" d="M 379.228105 307.584 
L 380.60376 307.584 
L 380.60376 207.012202 
L 379.228105 207.012202 
z
" style="fill:#1f77b4;stroke:#000000;stroke-linejoin:miter;stroke-width:0.4;"/>
   </g>
   <g id="patch_226">
    <path clip-path="url(#p98bb284724)" d="M 380.60376 307.584 
L 381.979414 307.584 
L 381.979414 228.349494 
L 380.60376 228.349494 
z
" style="fill:#1f77b4;stroke:#000000;stroke-linejoin:miter;stroke-width:0.4;"/>
   </g>
   <g id="patch_227">
    <path clip-path="url(#p98bb284724)" d="M 381.979414 307.584 
L 383.355069 307.584 
L 383.355069 274.654294 
L 381.979414 274.654294 
z
" style="fill:#1f77b4;stroke:#000000;stroke-linejoin:miter;stroke-width:0.4;"/>
   </g>
   <g id="patch_228">
    <path clip-path="url(#p98bb284724)" d="M 383.355069 307.584 
L 384.730724 307.584 
L 384.730724 285.069341 
L 383.355069 285.069341 
z
" style="fill:#1f77b4;stroke:#000000;stroke-linejoin:miter;stroke-width:0.4;"/>
   </g>
   <g id="patch_229">
    <path clip-path="url(#p98bb284724)" d="M 384.730724 307.584 
L 386.106379 307.584 
L 386.106379 297.71939 
L 384.730724 297.71939 
z
" style="fill:#1f77b4;stroke:#000000;stroke-linejoin:miter;stroke-width:0.4;"/>
   </g>
   <g id="patch_230">
    <path clip-path="url(#p98bb284724)" d="M 386.106379 307.584 
L 387.482034 307.584 
L 387.482034 303.619531 
L 386.106379 303.619531 
z
" style="fill:#1f77b4;stroke:#000000;stroke-linejoin:miter;stroke-width:0.4;"/>
   </g>
   <g id="patch_231">
    <path clip-path="url(#p98bb284724)" d="M 387.482034 307.584 
L 388.857689 307.584 
L 388.857689 306.138898 
L 387.482034 306.138898 
z
" style="fill:#1f77b4;stroke:#000000;stroke-linejoin:miter;stroke-width:0.4;"/>
   </g>
   <g id="patch_232">
    <path clip-path="url(#p98bb284724)" d="M 388.857689 307.584 
L 390.233344 307.584 
L 390.233344 306.898865 
L 388.857689 306.898865 
z
" style="fill:#1f77b4;stroke:#000000;stroke-linejoin:miter;stroke-width:0.4;"/>
   </g>
   <g id="patch_233">
    <path clip-path="url(#p98bb284724)" d="M 390.233344 307.584 
L 391.608998 307.584 
L 391.608998 307.319591 
L 390.233344 307.319591 
z
" style="fill:#1f77b4;stroke:#000000;stroke-linejoin:miter;stroke-width:0.4;"/>
   </g>
   <g id="patch_234">
    <path clip-path="url(#p98bb284724)" d="M 391.608998 307.584 
L 392.984653 307.584 
L 392.984653 307.49919 
L 391.608998 307.49919 
z
" style="fill:#1f77b4;stroke:#000000;stroke-linejoin:miter;stroke-width:0.4;"/>
   </g>
   <g id="patch_235">
    <path clip-path="url(#p98bb284724)" d="M 392.984653 307.584 
L 394.360308 307.584 
L 394.360308 307.532449 
L 392.984653 307.532449 
z
" style="fill:#1f77b4;stroke:#000000;stroke-linejoin:miter;stroke-width:0.4;"/>
   </g>
   <g id="patch_236">
    <path clip-path="url(#p98bb284724)" d="M 394.360308 307.584 
L 395.735963 307.584 
L 395.735963 307.570696 
L 394.360308 307.570696 
z
" style="fill:#1f77b4;stroke:#000000;stroke-linejoin:miter;stroke-width:0.4;"/>
   </g>
   <g id="patch_237">
    <path clip-path="url(#p98bb284724)" d="M 395.735963 307.584 
L 397.111618 307.584 
L 397.111618 307.580674 
L 395.735963 307.580674 
z
" style="fill:#1f77b4;stroke:#000000;stroke-linejoin:miter;stroke-width:0.4;"/>
   </g>
   <g id="patch_238">
    <path clip-path="url(#p98bb284724)" d="M 397.111618 307.584 
L 398.487273 307.584 
L 398.487273 307.579011 
L 397.111618 307.579011 
z
" style="fill:#1f77b4;stroke:#000000;stroke-linejoin:miter;stroke-width:0.4;"/>
   </g>
   <g id="matplotlib.axis_1">
    <g id="xtick_1">
     <g id="line2d_1">
      <defs>
       <path d="M 0 0 
L 0 3.5 
" id="ma432c6f066" style="stroke:#000000;stroke-width:0.8;"/>
      </defs>
      <g>
       <use style="stroke:#000000;stroke-width:0.8;" x="74.520555" xlink:href="#ma432c6f066" y="307.584"/>
      </g>
     </g>
     <g id="text_1">
      <!-- 0 -->
      <g transform="translate(71.339305 322.182437)scale(0.1 -0.1)">
       <defs>
        <path d="M 31.78125 66.40625 
Q 24.171875 66.40625 20.328125 58.90625 
Q 16.5 51.421875 16.5 36.375 
Q 16.5 21.390625 20.328125 13.890625 
Q 24.171875 6.390625 31.78125 6.390625 
Q 39.453125 6.390625 43.28125 13.890625 
Q 47.125 21.390625 47.125 36.375 
Q 47.125 51.421875 43.28125 58.90625 
Q 39.453125 66.40625 31.78125 66.40625 
z
M 31.78125 74.21875 
Q 44.046875 74.21875 50.515625 64.515625 
Q 56.984375 54.828125 56.984375 36.375 
Q 56.984375 17.96875 50.515625 8.265625 
Q 44.046875 -1.421875 31.78125 -1.421875 
Q 19.53125 -1.421875 13.0625 8.265625 
Q 6.59375 17.96875 6.59375 36.375 
Q 6.59375 54.828125 13.0625 64.515625 
Q 19.53125 74.21875 31.78125 74.21875 
z
" id="DejaVuSans-48"/>
       </defs>
       <use xlink:href="#DejaVuSans-48"/>
      </g>
     </g>
    </g>
    <g id="xtick_2">
     <g id="line2d_2">
      <g>
       <use style="stroke:#000000;stroke-width:0.8;" x="143.303297" xlink:href="#ma432c6f066" y="307.584"/>
      </g>
     </g>
     <g id="text_2">
      <!-- 50 -->
      <g transform="translate(136.940797 322.182437)scale(0.1 -0.1)">
       <defs>
        <path d="M 10.796875 72.90625 
L 49.515625 72.90625 
L 49.515625 64.59375 
L 19.828125 64.59375 
L 19.828125 46.734375 
Q 21.96875 47.46875 24.109375 47.828125 
Q 26.265625 48.1875 28.421875 48.1875 
Q 40.625 48.1875 47.75 41.5 
Q 54.890625 34.8125 54.890625 23.390625 
Q 54.890625 11.625 47.5625 5.09375 
Q 40.234375 -1.421875 26.90625 -1.421875 
Q 22.3125 -1.421875 17.546875 -0.640625 
Q 12.796875 0.140625 7.71875 1.703125 
L 7.71875 11.625 
Q 12.109375 9.234375 16.796875 8.0625 
Q 21.484375 6.890625 26.703125 6.890625 
Q 35.15625 6.890625 40.078125 11.328125 
Q 45.015625 15.765625 45.015625 23.390625 
Q 45.015625 31 40.078125 35.4375 
Q 35.15625 39.890625 26.703125 39.890625 
Q 22.75 39.890625 18.8125 39.015625 
Q 14.890625 38.140625 10.796875 36.28125 
z
" id="DejaVuSans-53"/>
       </defs>
       <use xlink:href="#DejaVuSans-53"/>
       <use x="63.623047" xlink:href="#DejaVuSans-48"/>
      </g>
     </g>
    </g>
    <g id="xtick_3">
     <g id="line2d_3">
      <g>
       <use style="stroke:#000000;stroke-width:0.8;" x="212.08604" xlink:href="#ma432c6f066" y="307.584"/>
      </g>
     </g>
     <g id="text_3">
      <!-- 100 -->
      <g transform="translate(202.54229 322.182437)scale(0.1 -0.1)">
       <defs>
        <path d="M 12.40625 8.296875 
L 28.515625 8.296875 
L 28.515625 63.921875 
L 10.984375 60.40625 
L 10.984375 69.390625 
L 28.421875 72.90625 
L 38.28125 72.90625 
L 38.28125 8.296875 
L 54.390625 8.296875 
L 54.390625 0 
L 12.40625 0 
z
" id="DejaVuSans-49"/>
       </defs>
       <use xlink:href="#DejaVuSans-49"/>
       <use x="63.623047" xlink:href="#DejaVuSans-48"/>
       <use x="127.246094" xlink:href="#DejaVuSans-48"/>
      </g>
     </g>
    </g>
    <g id="xtick_4">
     <g id="line2d_4">
      <g>
       <use style="stroke:#000000;stroke-width:0.8;" x="280.868783" xlink:href="#ma432c6f066" y="307.584"/>
      </g>
     </g>
     <g id="text_4">
      <!-- 150 -->
      <g transform="translate(271.325033 322.182437)scale(0.1 -0.1)">
       <use xlink:href="#DejaVuSans-49"/>
       <use x="63.623047" xlink:href="#DejaVuSans-53"/>
       <use x="127.246094" xlink:href="#DejaVuSans-48"/>
      </g>
     </g>
    </g>
    <g id="xtick_5">
     <g id="line2d_5">
      <g>
       <use style="stroke:#000000;stroke-width:0.8;" x="349.651525" xlink:href="#ma432c6f066" y="307.584"/>
      </g>
     </g>
     <g id="text_5">
      <!-- 200 -->
      <g transform="translate(340.107775 322.182437)scale(0.1 -0.1)">
       <defs>
        <path d="M 19.1875 8.296875 
L 53.609375 8.296875 
L 53.609375 0 
L 7.328125 0 
L 7.328125 8.296875 
Q 12.9375 14.109375 22.625 23.890625 
Q 32.328125 33.6875 34.8125 36.53125 
Q 39.546875 41.84375 41.421875 45.53125 
Q 43.3125 49.21875 43.3125 52.78125 
Q 43.3125 58.59375 39.234375 62.25 
Q 35.15625 65.921875 28.609375 65.921875 
Q 23.96875 65.921875 18.8125 64.3125 
Q 13.671875 62.703125 7.8125 59.421875 
L 7.8125 69.390625 
Q 13.765625 71.78125 18.9375 73 
Q 24.125 74.21875 28.421875 74.21875 
Q 39.75 74.21875 46.484375 68.546875 
Q 53.21875 62.890625 53.21875 53.421875 
Q 53.21875 48.921875 51.53125 44.890625 
Q 49.859375 40.875 45.40625 35.40625 
Q 44.1875 33.984375 37.640625 27.21875 
Q 31.109375 20.453125 19.1875 8.296875 
z
" id="DejaVuSans-50"/>
       </defs>
       <use xlink:href="#DejaVuSans-50"/>
       <use x="63.623047" xlink:href="#DejaVuSans-48"/>
       <use x="127.246094" xlink:href="#DejaVuSans-48"/>
      </g>
     </g>
    </g>
    <g id="text_6">
     <!-- Symbols -->
     <g transform="translate(214.92875 335.860562)scale(0.1 -0.1)">
      <defs>
       <path d="M 53.515625 70.515625 
L 53.515625 60.890625 
Q 47.90625 63.578125 42.921875 64.890625 
Q 37.9375 66.21875 33.296875 66.21875 
Q 25.25 66.21875 20.875 63.09375 
Q 16.5 59.96875 16.5 54.203125 
Q 16.5 49.359375 19.40625 46.890625 
Q 22.3125 44.4375 30.421875 42.921875 
L 36.375 41.703125 
Q 47.40625 39.59375 52.65625 34.296875 
Q 57.90625 29 57.90625 20.125 
Q 57.90625 9.515625 50.796875 4.046875 
Q 43.703125 -1.421875 29.984375 -1.421875 
Q 24.8125 -1.421875 18.96875 -0.25 
Q 13.140625 0.921875 6.890625 3.21875 
L 6.890625 13.375 
Q 12.890625 10.015625 18.65625 8.296875 
Q 24.421875 6.59375 29.984375 6.59375 
Q 38.421875 6.59375 43.015625 9.90625 
Q 47.609375 13.234375 47.609375 19.390625 
Q 47.609375 24.75 44.3125 27.78125 
Q 41.015625 30.8125 33.5 32.328125 
L 27.484375 33.5 
Q 16.453125 35.6875 11.515625 40.375 
Q 6.59375 45.0625 6.59375 53.421875 
Q 6.59375 63.09375 13.40625 68.65625 
Q 20.21875 74.21875 32.171875 74.21875 
Q 37.3125 74.21875 42.625 73.28125 
Q 47.953125 72.359375 53.515625 70.515625 
z
" id="DejaVuSans-83"/>
       <path d="M 32.171875 -5.078125 
Q 28.375 -14.84375 24.75 -17.8125 
Q 21.140625 -20.796875 15.09375 -20.796875 
L 7.90625 -20.796875 
L 7.90625 -13.28125 
L 13.1875 -13.28125 
Q 16.890625 -13.28125 18.9375 -11.515625 
Q 21 -9.765625 23.484375 -3.21875 
L 25.09375 0.875 
L 2.984375 54.6875 
L 12.5 54.6875 
L 29.59375 11.921875 
L 46.6875 54.6875 
L 56.203125 54.6875 
z
" id="DejaVuSans-121"/>
       <path d="M 52 44.1875 
Q 55.375 50.25 60.0625 53.125 
Q 64.75 56 71.09375 56 
Q 79.640625 56 84.28125 50.015625 
Q 88.921875 44.046875 88.921875 33.015625 
L 88.921875 0 
L 79.890625 0 
L 79.890625 32.71875 
Q 79.890625 40.578125 77.09375 44.375 
Q 74.3125 48.1875 68.609375 48.1875 
Q 61.625 48.1875 57.5625 43.546875 
Q 53.515625 38.921875 53.515625 30.90625 
L 53.515625 0 
L 44.484375 0 
L 44.484375 32.71875 
Q 44.484375 40.625 41.703125 44.40625 
Q 38.921875 48.1875 33.109375 48.1875 
Q 26.21875 48.1875 22.15625 43.53125 
Q 18.109375 38.875 18.109375 30.90625 
L 18.109375 0 
L 9.078125 0 
L 9.078125 54.6875 
L 18.109375 54.6875 
L 18.109375 46.1875 
Q 21.1875 51.21875 25.484375 53.609375 
Q 29.78125 56 35.6875 56 
Q 41.65625 56 45.828125 52.96875 
Q 50 49.953125 52 44.1875 
z
" id="DejaVuSans-109"/>
       <path d="M 48.6875 27.296875 
Q 48.6875 37.203125 44.609375 42.84375 
Q 40.53125 48.484375 33.40625 48.484375 
Q 26.265625 48.484375 22.1875 42.84375 
Q 18.109375 37.203125 18.109375 27.296875 
Q 18.109375 17.390625 22.1875 11.75 
Q 26.265625 6.109375 33.40625 6.109375 
Q 40.53125 6.109375 44.609375 11.75 
Q 48.6875 17.390625 48.6875 27.296875 
z
M 18.109375 46.390625 
Q 20.953125 51.265625 25.265625 53.625 
Q 29.59375 56 35.59375 56 
Q 45.5625 56 51.78125 48.09375 
Q 58.015625 40.1875 58.015625 27.296875 
Q 58.015625 14.40625 51.78125 6.484375 
Q 45.5625 -1.421875 35.59375 -1.421875 
Q 29.59375 -1.421875 25.265625 0.953125 
Q 20.953125 3.328125 18.109375 8.203125 
L 18.109375 0 
L 9.078125 0 
L 9.078125 75.984375 
L 18.109375 75.984375 
z
" id="DejaVuSans-98"/>
       <path d="M 30.609375 48.390625 
Q 23.390625 48.390625 19.1875 42.75 
Q 14.984375 37.109375 14.984375 27.296875 
Q 14.984375 17.484375 19.15625 11.84375 
Q 23.34375 6.203125 30.609375 6.203125 
Q 37.796875 6.203125 41.984375 11.859375 
Q 46.1875 17.53125 46.1875 27.296875 
Q 46.1875 37.015625 41.984375 42.703125 
Q 37.796875 48.390625 30.609375 48.390625 
z
M 30.609375 56 
Q 42.328125 56 49.015625 48.375 
Q 55.71875 40.765625 55.71875 27.296875 
Q 55.71875 13.875 49.015625 6.21875 
Q 42.328125 -1.421875 30.609375 -1.421875 
Q 18.84375 -1.421875 12.171875 6.21875 
Q 5.515625 13.875 5.515625 27.296875 
Q 5.515625 40.765625 12.171875 48.375 
Q 18.84375 56 30.609375 56 
z
" id="DejaVuSans-111"/>
       <path d="M 9.421875 75.984375 
L 18.40625 75.984375 
L 18.40625 0 
L 9.421875 0 
z
" id="DejaVuSans-108"/>
       <path d="M 44.28125 53.078125 
L 44.28125 44.578125 
Q 40.484375 46.53125 36.375 47.5 
Q 32.28125 48.484375 27.875 48.484375 
Q 21.1875 48.484375 17.84375 46.4375 
Q 14.5 44.390625 14.5 40.28125 
Q 14.5 37.15625 16.890625 35.375 
Q 19.28125 33.59375 26.515625 31.984375 
L 29.59375 31.296875 
Q 39.15625 29.25 43.1875 25.515625 
Q 47.21875 21.78125 47.21875 15.09375 
Q 47.21875 7.46875 41.1875 3.015625 
Q 35.15625 -1.421875 24.609375 -1.421875 
Q 20.21875 -1.421875 15.453125 -0.5625 
Q 10.6875 0.296875 5.421875 2 
L 5.421875 11.28125 
Q 10.40625 8.6875 15.234375 7.390625 
Q 20.0625 6.109375 24.8125 6.109375 
Q 31.15625 6.109375 34.5625 8.28125 
Q 37.984375 10.453125 37.984375 14.40625 
Q 37.984375 18.0625 35.515625 20.015625 
Q 33.0625 21.96875 24.703125 23.78125 
L 21.578125 24.515625 
Q 13.234375 26.265625 9.515625 29.90625 
Q 5.8125 33.546875 5.8125 39.890625 
Q 5.8125 47.609375 11.28125 51.796875 
Q 16.75 56 26.8125 56 
Q 31.78125 56 36.171875 55.265625 
Q 40.578125 54.546875 44.28125 53.078125 
z
" id="DejaVuSans-115"/>
      </defs>
      <use xlink:href="#DejaVuSans-83"/>
      <use x="63.476562" xlink:href="#DejaVuSans-121"/>
      <use x="122.65625" xlink:href="#DejaVuSans-109"/>
      <use x="220.068359" xlink:href="#DejaVuSans-98"/>
      <use x="283.544922" xlink:href="#DejaVuSans-111"/>
      <use x="344.726562" xlink:href="#DejaVuSans-108"/>
      <use x="372.509766" xlink:href="#DejaVuSans-115"/>
     </g>
    </g>
   </g>
   <g id="matplotlib.axis_2">
    <g id="ytick_1">
     <g id="line2d_6">
      <defs>
       <path d="M 0 0 
L -3.5 0 
" id="m9aec04e581" style="stroke:#000000;stroke-width:0.8;"/>
      </defs>
      <g>
       <use style="stroke:#000000;stroke-width:0.8;" x="57.6" xlink:href="#m9aec04e581" y="307.584"/>
      </g>
     </g>
     <g id="text_7">
      <!-- 0 -->
      <g transform="translate(44.2375 311.383219)scale(0.1 -0.1)">
       <use xlink:href="#DejaVuSans-48"/>
      </g>
     </g>
    </g>
    <g id="ytick_2">
     <g id="line2d_7">
      <g>
       <use style="stroke:#000000;stroke-width:0.8;" x="57.6" xlink:href="#m9aec04e581" y="274.32503"/>
      </g>
     </g>
     <g id="text_8">
      <!-- 20000 -->
      <g transform="translate(18.7875 278.124249)scale(0.1 -0.1)">
       <use xlink:href="#DejaVuSans-50"/>
       <use x="63.623047" xlink:href="#DejaVuSans-48"/>
       <use x="127.246094" xlink:href="#DejaVuSans-48"/>
       <use x="190.869141" xlink:href="#DejaVuSans-48"/>
       <use x="254.492188" xlink:href="#DejaVuSans-48"/>
      </g>
     </g>
    </g>
    <g id="ytick_3">
     <g id="line2d_8">
      <g>
       <use style="stroke:#000000;stroke-width:0.8;" x="57.6" xlink:href="#m9aec04e581" y="241.066061"/>
      </g>
     </g>
     <g id="text_9">
      <!-- 40000 -->
      <g transform="translate(18.7875 244.86528)scale(0.1 -0.1)">
       <defs>
        <path d="M 37.796875 64.3125 
L 12.890625 25.390625 
L 37.796875 25.390625 
z
M 35.203125 72.90625 
L 47.609375 72.90625 
L 47.609375 25.390625 
L 58.015625 25.390625 
L 58.015625 17.1875 
L 47.609375 17.1875 
L 47.609375 0 
L 37.796875 0 
L 37.796875 17.1875 
L 4.890625 17.1875 
L 4.890625 26.703125 
z
" id="DejaVuSans-52"/>
       </defs>
       <use xlink:href="#DejaVuSans-52"/>
       <use x="63.623047" xlink:href="#DejaVuSans-48"/>
       <use x="127.246094" xlink:href="#DejaVuSans-48"/>
       <use x="190.869141" xlink:href="#DejaVuSans-48"/>
       <use x="254.492188" xlink:href="#DejaVuSans-48"/>
      </g>
     </g>
    </g>
    <g id="ytick_4">
     <g id="line2d_9">
      <g>
       <use style="stroke:#000000;stroke-width:0.8;" x="57.6" xlink:href="#m9aec04e581" y="207.807091"/>
      </g>
     </g>
     <g id="text_10">
      <!-- 60000 -->
      <g transform="translate(18.7875 211.60631)scale(0.1 -0.1)">
       <defs>
        <path d="M 33.015625 40.375 
Q 26.375 40.375 22.484375 35.828125 
Q 18.609375 31.296875 18.609375 23.390625 
Q 18.609375 15.53125 22.484375 10.953125 
Q 26.375 6.390625 33.015625 6.390625 
Q 39.65625 6.390625 43.53125 10.953125 
Q 47.40625 15.53125 47.40625 23.390625 
Q 47.40625 31.296875 43.53125 35.828125 
Q 39.65625 40.375 33.015625 40.375 
z
M 52.59375 71.296875 
L 52.59375 62.3125 
Q 48.875 64.0625 45.09375 64.984375 
Q 41.3125 65.921875 37.59375 65.921875 
Q 27.828125 65.921875 22.671875 59.328125 
Q 17.53125 52.734375 16.796875 39.40625 
Q 19.671875 43.65625 24.015625 45.921875 
Q 28.375 48.1875 33.59375 48.1875 
Q 44.578125 48.1875 50.953125 41.515625 
Q 57.328125 34.859375 57.328125 23.390625 
Q 57.328125 12.15625 50.6875 5.359375 
Q 44.046875 -1.421875 33.015625 -1.421875 
Q 20.359375 -1.421875 13.671875 8.265625 
Q 6.984375 17.96875 6.984375 36.375 
Q 6.984375 53.65625 15.1875 63.9375 
Q 23.390625 74.21875 37.203125 74.21875 
Q 40.921875 74.21875 44.703125 73.484375 
Q 48.484375 72.75 52.59375 71.296875 
z
" id="DejaVuSans-54"/>
       </defs>
       <use xlink:href="#DejaVuSans-54"/>
       <use x="63.623047" xlink:href="#DejaVuSans-48"/>
       <use x="127.246094" xlink:href="#DejaVuSans-48"/>
       <use x="190.869141" xlink:href="#DejaVuSans-48"/>
       <use x="254.492188" xlink:href="#DejaVuSans-48"/>
      </g>
     </g>
    </g>
    <g id="ytick_5">
     <g id="line2d_10">
      <g>
       <use style="stroke:#000000;stroke-width:0.8;" x="57.6" xlink:href="#m9aec04e581" y="174.548122"/>
      </g>
     </g>
     <g id="text_11">
      <!-- 80000 -->
      <g transform="translate(18.7875 178.34734)scale(0.1 -0.1)">
       <defs>
        <path d="M 31.78125 34.625 
Q 24.75 34.625 20.71875 30.859375 
Q 16.703125 27.09375 16.703125 20.515625 
Q 16.703125 13.921875 20.71875 10.15625 
Q 24.75 6.390625 31.78125 6.390625 
Q 38.8125 6.390625 42.859375 10.171875 
Q 46.921875 13.96875 46.921875 20.515625 
Q 46.921875 27.09375 42.890625 30.859375 
Q 38.875 34.625 31.78125 34.625 
z
M 21.921875 38.8125 
Q 15.578125 40.375 12.03125 44.71875 
Q 8.5 49.078125 8.5 55.328125 
Q 8.5 64.0625 14.71875 69.140625 
Q 20.953125 74.21875 31.78125 74.21875 
Q 42.671875 74.21875 48.875 69.140625 
Q 55.078125 64.0625 55.078125 55.328125 
Q 55.078125 49.078125 51.53125 44.71875 
Q 48 40.375 41.703125 38.8125 
Q 48.828125 37.15625 52.796875 32.3125 
Q 56.78125 27.484375 56.78125 20.515625 
Q 56.78125 9.90625 50.3125 4.234375 
Q 43.84375 -1.421875 31.78125 -1.421875 
Q 19.734375 -1.421875 13.25 4.234375 
Q 6.78125 9.90625 6.78125 20.515625 
Q 6.78125 27.484375 10.78125 32.3125 
Q 14.796875 37.15625 21.921875 38.8125 
z
M 18.3125 54.390625 
Q 18.3125 48.734375 21.84375 45.5625 
Q 25.390625 42.390625 31.78125 42.390625 
Q 38.140625 42.390625 41.71875 45.5625 
Q 45.3125 48.734375 45.3125 54.390625 
Q 45.3125 60.0625 41.71875 63.234375 
Q 38.140625 66.40625 31.78125 66.40625 
Q 25.390625 66.40625 21.84375 63.234375 
Q 18.3125 60.0625 18.3125 54.390625 
z
" id="DejaVuSans-56"/>
       </defs>
       <use xlink:href="#DejaVuSans-56"/>
       <use x="63.623047" xlink:href="#DejaVuSans-48"/>
       <use x="127.246094" xlink:href="#DejaVuSans-48"/>
       <use x="190.869141" xlink:href="#DejaVuSans-48"/>
       <use x="254.492188" xlink:href="#DejaVuSans-48"/>
      </g>
     </g>
    </g>
    <g id="ytick_6">
     <g id="line2d_11">
      <g>
       <use style="stroke:#000000;stroke-width:0.8;" x="57.6" xlink:href="#m9aec04e581" y="141.289152"/>
      </g>
     </g>
     <g id="text_12">
      <!-- 100000 -->
      <g transform="translate(12.425 145.088371)scale(0.1 -0.1)">
       <use xlink:href="#DejaVuSans-49"/>
       <use x="63.623047" xlink:href="#DejaVuSans-48"/>
       <use x="127.246094" xlink:href="#DejaVuSans-48"/>
       <use x="190.869141" xlink:href="#DejaVuSans-48"/>
       <use x="254.492188" xlink:href="#DejaVuSans-48"/>
       <use x="318.115234" xlink:href="#DejaVuSans-48"/>
      </g>
     </g>
    </g>
    <g id="ytick_7">
     <g id="line2d_12">
      <g>
       <use style="stroke:#000000;stroke-width:0.8;" x="57.6" xlink:href="#m9aec04e581" y="108.030183"/>
      </g>
     </g>
     <g id="text_13">
      <!-- 120000 -->
      <g transform="translate(12.425 111.829401)scale(0.1 -0.1)">
       <use xlink:href="#DejaVuSans-49"/>
       <use x="63.623047" xlink:href="#DejaVuSans-50"/>
       <use x="127.246094" xlink:href="#DejaVuSans-48"/>
       <use x="190.869141" xlink:href="#DejaVuSans-48"/>
       <use x="254.492188" xlink:href="#DejaVuSans-48"/>
       <use x="318.115234" xlink:href="#DejaVuSans-48"/>
      </g>
     </g>
    </g>
    <g id="ytick_8">
     <g id="line2d_13">
      <g>
       <use style="stroke:#000000;stroke-width:0.8;" x="57.6" xlink:href="#m9aec04e581" y="74.771213"/>
      </g>
     </g>
     <g id="text_14">
      <!-- 140000 -->
      <g transform="translate(12.425 78.570432)scale(0.1 -0.1)">
       <use xlink:href="#DejaVuSans-49"/>
       <use x="63.623047" xlink:href="#DejaVuSans-52"/>
       <use x="127.246094" xlink:href="#DejaVuSans-48"/>
       <use x="190.869141" xlink:href="#DejaVuSans-48"/>
       <use x="254.492188" xlink:href="#DejaVuSans-48"/>
       <use x="318.115234" xlink:href="#DejaVuSans-48"/>
      </g>
     </g>
    </g>
    <g id="ytick_9">
     <g id="line2d_14">
      <g>
       <use style="stroke:#000000;stroke-width:0.8;" x="57.6" xlink:href="#m9aec04e581" y="41.512243"/>
      </g>
     </g>
     <g id="text_15">
      <!-- 160000 -->
      <g transform="translate(12.425 45.311462)scale(0.1 -0.1)">
       <use xlink:href="#DejaVuSans-49"/>
       <use x="63.623047" xlink:href="#DejaVuSans-54"/>
       <use x="127.246094" xlink:href="#DejaVuSans-48"/>
       <use x="190.869141" xlink:href="#DejaVuSans-48"/>
       <use x="254.492188" xlink:href="#DejaVuSans-48"/>
       <use x="318.115234" xlink:href="#DejaVuSans-48"/>
      </g>
     </g>
    </g>
    <g id="text_16">
     <!-- Absolute frequency -->
     <g transform="translate(6.345312 223.04675)rotate(-90)scale(0.1 -0.1)">
      <defs>
       <path d="M 34.1875 63.1875 
L 20.796875 26.90625 
L 47.609375 26.90625 
z
M 28.609375 72.90625 
L 39.796875 72.90625 
L 67.578125 0 
L 57.328125 0 
L 50.6875 18.703125 
L 17.828125 18.703125 
L 11.1875 0 
L 0.78125 0 
z
" id="DejaVuSans-65"/>
       <path d="M 8.5 21.578125 
L 8.5 54.6875 
L 17.484375 54.6875 
L 17.484375 21.921875 
Q 17.484375 14.15625 20.5 10.265625 
Q 23.53125 6.390625 29.59375 6.390625 
Q 36.859375 6.390625 41.078125 11.03125 
Q 45.3125 15.671875 45.3125 23.6875 
L 45.3125 54.6875 
L 54.296875 54.6875 
L 54.296875 0 
L 45.3125 0 
L 45.3125 8.40625 
Q 42.046875 3.421875 37.71875 1 
Q 33.40625 -1.421875 27.6875 -1.421875 
Q 18.265625 -1.421875 13.375 4.4375 
Q 8.5 10.296875 8.5 21.578125 
z
M 31.109375 56 
z
" id="DejaVuSans-117"/>
       <path d="M 18.3125 70.21875 
L 18.3125 54.6875 
L 36.8125 54.6875 
L 36.8125 47.703125 
L 18.3125 47.703125 
L 18.3125 18.015625 
Q 18.3125 11.328125 20.140625 9.421875 
Q 21.96875 7.515625 27.59375 7.515625 
L 36.8125 7.515625 
L 36.8125 0 
L 27.59375 0 
Q 17.1875 0 13.234375 3.875 
Q 9.28125 7.765625 9.28125 18.015625 
L 9.28125 47.703125 
L 2.6875 47.703125 
L 2.6875 54.6875 
L 9.28125 54.6875 
L 9.28125 70.21875 
z
" id="DejaVuSans-116"/>
       <path d="M 56.203125 29.59375 
L 56.203125 25.203125 
L 14.890625 25.203125 
Q 15.484375 15.921875 20.484375 11.0625 
Q 25.484375 6.203125 34.421875 6.203125 
Q 39.59375 6.203125 44.453125 7.46875 
Q 49.3125 8.734375 54.109375 11.28125 
L 54.109375 2.78125 
Q 49.265625 0.734375 44.1875 -0.34375 
Q 39.109375 -1.421875 33.890625 -1.421875 
Q 20.796875 -1.421875 13.15625 6.1875 
Q 5.515625 13.8125 5.515625 26.8125 
Q 5.515625 40.234375 12.765625 48.109375 
Q 20.015625 56 32.328125 56 
Q 43.359375 56 49.78125 48.890625 
Q 56.203125 41.796875 56.203125 29.59375 
z
M 47.21875 32.234375 
Q 47.125 39.59375 43.09375 43.984375 
Q 39.0625 48.390625 32.421875 48.390625 
Q 24.90625 48.390625 20.390625 44.140625 
Q 15.875 39.890625 15.1875 32.171875 
z
" id="DejaVuSans-101"/>
       <path id="DejaVuSans-32"/>
       <path d="M 37.109375 75.984375 
L 37.109375 68.5 
L 28.515625 68.5 
Q 23.6875 68.5 21.796875 66.546875 
Q 19.921875 64.59375 19.921875 59.515625 
L 19.921875 54.6875 
L 34.71875 54.6875 
L 34.71875 47.703125 
L 19.921875 47.703125 
L 19.921875 0 
L 10.890625 0 
L 10.890625 47.703125 
L 2.296875 47.703125 
L 2.296875 54.6875 
L 10.890625 54.6875 
L 10.890625 58.5 
Q 10.890625 67.625 15.140625 71.796875 
Q 19.390625 75.984375 28.609375 75.984375 
z
" id="DejaVuSans-102"/>
       <path d="M 41.109375 46.296875 
Q 39.59375 47.171875 37.8125 47.578125 
Q 36.03125 48 33.890625 48 
Q 26.265625 48 22.1875 43.046875 
Q 18.109375 38.09375 18.109375 28.8125 
L 18.109375 0 
L 9.078125 0 
L 9.078125 54.6875 
L 18.109375 54.6875 
L 18.109375 46.1875 
Q 20.953125 51.171875 25.484375 53.578125 
Q 30.03125 56 36.53125 56 
Q 37.453125 56 38.578125 55.875 
Q 39.703125 55.765625 41.0625 55.515625 
z
" id="DejaVuSans-114"/>
       <path d="M 14.796875 27.296875 
Q 14.796875 17.390625 18.875 11.75 
Q 22.953125 6.109375 30.078125 6.109375 
Q 37.203125 6.109375 41.296875 11.75 
Q 45.40625 17.390625 45.40625 27.296875 
Q 45.40625 37.203125 41.296875 42.84375 
Q 37.203125 48.484375 30.078125 48.484375 
Q 22.953125 48.484375 18.875 42.84375 
Q 14.796875 37.203125 14.796875 27.296875 
z
M 45.40625 8.203125 
Q 42.578125 3.328125 38.25 0.953125 
Q 33.9375 -1.421875 27.875 -1.421875 
Q 17.96875 -1.421875 11.734375 6.484375 
Q 5.515625 14.40625 5.515625 27.296875 
Q 5.515625 40.1875 11.734375 48.09375 
Q 17.96875 56 27.875 56 
Q 33.9375 56 38.25 53.625 
Q 42.578125 51.265625 45.40625 46.390625 
L 45.40625 54.6875 
L 54.390625 54.6875 
L 54.390625 -20.796875 
L 45.40625 -20.796875 
z
" id="DejaVuSans-113"/>
       <path d="M 54.890625 33.015625 
L 54.890625 0 
L 45.90625 0 
L 45.90625 32.71875 
Q 45.90625 40.484375 42.875 44.328125 
Q 39.84375 48.1875 33.796875 48.1875 
Q 26.515625 48.1875 22.3125 43.546875 
Q 18.109375 38.921875 18.109375 30.90625 
L 18.109375 0 
L 9.078125 0 
L 9.078125 54.6875 
L 18.109375 54.6875 
L 18.109375 46.1875 
Q 21.34375 51.125 25.703125 53.5625 
Q 30.078125 56 35.796875 56 
Q 45.21875 56 50.046875 50.171875 
Q 54.890625 44.34375 54.890625 33.015625 
z
" id="DejaVuSans-110"/>
       <path d="M 48.78125 52.59375 
L 48.78125 44.1875 
Q 44.96875 46.296875 41.140625 47.34375 
Q 37.3125 48.390625 33.40625 48.390625 
Q 24.65625 48.390625 19.8125 42.84375 
Q 14.984375 37.3125 14.984375 27.296875 
Q 14.984375 17.28125 19.8125 11.734375 
Q 24.65625 6.203125 33.40625 6.203125 
Q 37.3125 6.203125 41.140625 7.25 
Q 44.96875 8.296875 48.78125 10.40625 
L 48.78125 2.09375 
Q 45.015625 0.34375 40.984375 -0.53125 
Q 36.96875 -1.421875 32.421875 -1.421875 
Q 20.0625 -1.421875 12.78125 6.34375 
Q 5.515625 14.109375 5.515625 27.296875 
Q 5.515625 40.671875 12.859375 48.328125 
Q 20.21875 56 33.015625 56 
Q 37.15625 56 41.109375 55.140625 
Q 45.0625 54.296875 48.78125 52.59375 
z
" id="DejaVuSans-99"/>
      </defs>
      <use xlink:href="#DejaVuSans-65"/>
      <use x="68.408203" xlink:href="#DejaVuSans-98"/>
      <use x="131.884766" xlink:href="#DejaVuSans-115"/>
      <use x="183.984375" xlink:href="#DejaVuSans-111"/>
      <use x="245.166016" xlink:href="#DejaVuSans-108"/>
      <use x="272.949219" xlink:href="#DejaVuSans-117"/>
      <use x="336.328125" xlink:href="#DejaVuSans-116"/>
      <use x="375.537109" xlink:href="#DejaVuSans-101"/>
      <use x="437.060547" xlink:href="#DejaVuSans-32"/>
      <use x="468.847656" xlink:href="#DejaVuSans-102"/>
      <use x="504.052734" xlink:href="#DejaVuSans-114"/>
      <use x="542.916016" xlink:href="#DejaVuSans-101"/>
      <use x="604.439453" xlink:href="#DejaVuSans-113"/>
      <use x="667.916016" xlink:href="#DejaVuSans-117"/>
      <use x="731.294922" xlink:href="#DejaVuSans-101"/>
      <use x="792.818359" xlink:href="#DejaVuSans-110"/>
      <use x="856.197266" xlink:href="#DejaVuSans-99"/>
      <use x="911.177734" xlink:href="#DejaVuSans-121"/>
     </g>
    </g>
   </g>
   <g id="patch_239">
    <path d="M 57.6 307.584 
L 57.6 41.472 
" style="fill:none;stroke:#000000;stroke-linecap:square;stroke-linejoin:miter;stroke-width:0.8;"/>
   </g>
   <g id="patch_240">
    <path d="M 414.72 307.584 
L 414.72 41.472 
" style="fill:none;stroke:#000000;stroke-linecap:square;stroke-linejoin:miter;stroke-width:0.8;"/>
   </g>
   <g id="patch_241">
    <path d="M 57.6 307.584 
L 414.72 307.584 
" style="fill:none;stroke:#000000;stroke-linecap:square;stroke-linejoin:miter;stroke-width:0.8;"/>
   </g>
   <g id="patch_242">
    <path d="M 57.6 41.472 
L 414.72 41.472 
" style="fill:none;stroke:#000000;stroke-linecap:square;stroke-linejoin:miter;stroke-width:0.8;"/>
   </g>
   <g id="text_17">
    <!-- Histogram of data\original\landscape.bmp -->
    <g transform="translate(109.52625 35.472)scale(0.12 -0.12)">
     <defs>
      <path d="M 9.8125 72.90625 
L 19.671875 72.90625 
L 19.671875 43.015625 
L 55.515625 43.015625 
L 55.515625 72.90625 
L 65.375 72.90625 
L 65.375 0 
L 55.515625 0 
L 55.515625 34.71875 
L 19.671875 34.71875 
L 19.671875 0 
L 9.8125 0 
z
" id="DejaVuSans-72"/>
      <path d="M 9.421875 54.6875 
L 18.40625 54.6875 
L 18.40625 0 
L 9.421875 0 
z
M 9.421875 75.984375 
L 18.40625 75.984375 
L 18.40625 64.59375 
L 9.421875 64.59375 
z
" id="DejaVuSans-105"/>
      <path d="M 45.40625 27.984375 
Q 45.40625 37.75 41.375 43.109375 
Q 37.359375 48.484375 30.078125 48.484375 
Q 22.859375 48.484375 18.828125 43.109375 
Q 14.796875 37.75 14.796875 27.984375 
Q 14.796875 18.265625 18.828125 12.890625 
Q 22.859375 7.515625 30.078125 7.515625 
Q 37.359375 7.515625 41.375 12.890625 
Q 45.40625 18.265625 45.40625 27.984375 
z
M 54.390625 6.78125 
Q 54.390625 -7.171875 48.1875 -13.984375 
Q 42 -20.796875 29.203125 -20.796875 
Q 24.46875 -20.796875 20.265625 -20.09375 
Q 16.0625 -19.390625 12.109375 -17.921875 
L 12.109375 -9.1875 
Q 16.0625 -11.328125 19.921875 -12.34375 
Q 23.78125 -13.375 27.78125 -13.375 
Q 36.625 -13.375 41.015625 -8.765625 
Q 45.40625 -4.15625 45.40625 5.171875 
L 45.40625 9.625 
Q 42.625 4.78125 38.28125 2.390625 
Q 33.9375 0 27.875 0 
Q 17.828125 0 11.671875 7.65625 
Q 5.515625 15.328125 5.515625 27.984375 
Q 5.515625 40.671875 11.671875 48.328125 
Q 17.828125 56 27.875 56 
Q 33.9375 56 38.28125 53.609375 
Q 42.625 51.21875 45.40625 46.390625 
L 45.40625 54.6875 
L 54.390625 54.6875 
z
" id="DejaVuSans-103"/>
      <path d="M 34.28125 27.484375 
Q 23.390625 27.484375 19.1875 25 
Q 14.984375 22.515625 14.984375 16.5 
Q 14.984375 11.71875 18.140625 8.90625 
Q 21.296875 6.109375 26.703125 6.109375 
Q 34.1875 6.109375 38.703125 11.40625 
Q 43.21875 16.703125 43.21875 25.484375 
L 43.21875 27.484375 
z
M 52.203125 31.203125 
L 52.203125 0 
L 43.21875 0 
L 43.21875 8.296875 
Q 40.140625 3.328125 35.546875 0.953125 
Q 30.953125 -1.421875 24.3125 -1.421875 
Q 15.921875 -1.421875 10.953125 3.296875 
Q 6 8.015625 6 15.921875 
Q 6 25.140625 12.171875 29.828125 
Q 18.359375 34.515625 30.609375 34.515625 
L 43.21875 34.515625 
L 43.21875 35.40625 
Q 43.21875 41.609375 39.140625 45 
Q 35.0625 48.390625 27.6875 48.390625 
Q 23 48.390625 18.546875 47.265625 
Q 14.109375 46.140625 10.015625 43.890625 
L 10.015625 52.203125 
Q 14.9375 54.109375 19.578125 55.046875 
Q 24.21875 56 28.609375 56 
Q 40.484375 56 46.34375 49.84375 
Q 52.203125 43.703125 52.203125 31.203125 
z
" id="DejaVuSans-97"/>
      <path d="M 45.40625 46.390625 
L 45.40625 75.984375 
L 54.390625 75.984375 
L 54.390625 0 
L 45.40625 0 
L 45.40625 8.203125 
Q 42.578125 3.328125 38.25 0.953125 
Q 33.9375 -1.421875 27.875 -1.421875 
Q 17.96875 -1.421875 11.734375 6.484375 
Q 5.515625 14.40625 5.515625 27.296875 
Q 5.515625 40.1875 11.734375 48.09375 
Q 17.96875 56 27.875 56 
Q 33.9375 56 38.25 53.625 
Q 42.578125 51.265625 45.40625 46.390625 
z
M 14.796875 27.296875 
Q 14.796875 17.390625 18.875 11.75 
Q 22.953125 6.109375 30.078125 6.109375 
Q 37.203125 6.109375 41.296875 11.75 
Q 45.40625 17.390625 45.40625 27.296875 
Q 45.40625 37.203125 41.296875 42.84375 
Q 37.203125 48.484375 30.078125 48.484375 
Q 22.953125 48.484375 18.875 42.84375 
Q 14.796875 37.203125 14.796875 27.296875 
z
" id="DejaVuSans-100"/>
      <path d="M 8.296875 72.90625 
L 33.6875 -9.28125 
L 25.390625 -9.28125 
L 0 72.90625 
z
" id="DejaVuSans-92"/>
      <path d="M 18.109375 8.203125 
L 18.109375 -20.796875 
L 9.078125 -20.796875 
L 9.078125 54.6875 
L 18.109375 54.6875 
L 18.109375 46.390625 
Q 20.953125 51.265625 25.265625 53.625 
Q 29.59375 56 35.59375 56 
Q 45.5625 56 51.78125 48.09375 
Q 58.015625 40.1875 58.015625 27.296875 
Q 58.015625 14.40625 51.78125 6.484375 
Q 45.5625 -1.421875 35.59375 -1.421875 
Q 29.59375 -1.421875 25.265625 0.953125 
Q 20.953125 3.328125 18.109375 8.203125 
z
M 48.6875 27.296875 
Q 48.6875 37.203125 44.609375 42.84375 
Q 40.53125 48.484375 33.40625 48.484375 
Q 26.265625 48.484375 22.1875 42.84375 
Q 18.109375 37.203125 18.109375 27.296875 
Q 18.109375 17.390625 22.1875 11.75 
Q 26.265625 6.109375 33.40625 6.109375 
Q 40.53125 6.109375 44.609375 11.75 
Q 48.6875 17.390625 48.6875 27.296875 
z
" id="DejaVuSans-112"/>
      <path d="M 10.6875 12.40625 
L 21 12.40625 
L 21 0 
L 10.6875 0 
z
" id="DejaVuSans-46"/>
     </defs>
     <use xlink:href="#DejaVuSans-72"/>
     <use x="75.195312" xlink:href="#DejaVuSans-105"/>
     <use x="102.978516" xlink:href="#DejaVuSans-115"/>
     <use x="155.078125" xlink:href="#DejaVuSans-116"/>
     <use x="194.287109" xlink:href="#DejaVuSans-111"/>
     <use x="255.46875" xlink:href="#DejaVuSans-103"/>
     <use x="318.945312" xlink:href="#DejaVuSans-114"/>
     <use x="360.058594" xlink:href="#DejaVuSans-97"/>
     <use x="421.337891" xlink:href="#DejaVuSans-109"/>
     <use x="518.75" xlink:href="#DejaVuSans-32"/>
     <use x="550.537109" xlink:href="#DejaVuSans-111"/>
     <use x="611.71875" xlink:href="#DejaVuSans-102"/>
     <use x="646.923828" xlink:href="#DejaVuSans-32"/>
     <use x="678.710938" xlink:href="#DejaVuSans-100"/>
     <use x="742.1875" xlink:href="#DejaVuSans-97"/>
     <use x="803.466797" xlink:href="#DejaVuSans-116"/>
     <use x="842.675781" xlink:href="#DejaVuSans-97"/>
     <use x="903.955078" xlink:href="#DejaVuSans-92"/>
     <use x="937.646484" xlink:href="#DejaVuSans-111"/>
     <use x="998.828125" xlink:href="#DejaVuSans-114"/>
     <use x="1039.941406" xlink:href="#DejaVuSans-105"/>
     <use x="1067.724609" xlink:href="#DejaVuSans-103"/>
     <use x="1131.201172" xlink:href="#DejaVuSans-105"/>
     <use x="1158.984375" xlink:href="#DejaVuSans-110"/>
     <use x="1222.363281" xlink:href="#DejaVuSans-97"/>
     <use x="1283.642578" xlink:href="#DejaVuSans-108"/>
     <use x="1311.425781" xlink:href="#DejaVuSans-92"/>
     <use x="1345.117188" xlink:href="#DejaVuSans-108"/>
     <use x="1372.900391" xlink:href="#DejaVuSans-97"/>
     <use x="1434.179688" xlink:href="#DejaVuSans-110"/>
     <use x="1497.558594" xlink:href="#DejaVuSans-100"/>
     <use x="1561.035156" xlink:href="#DejaVuSans-115"/>
     <use x="1613.134766" xlink:href="#DejaVuSans-99"/>
     <use x="1668.115234" xlink:href="#DejaVuSans-97"/>
     <use x="1729.394531" xlink:href="#DejaVuSans-112"/>
     <use x="1792.871094" xlink:href="#DejaVuSans-101"/>
     <use x="1854.394531" xlink:href="#DejaVuSans-46"/>
     <use x="1886.181641" xlink:href="#DejaVuSans-98"/>
     <use x="1949.658203" xlink:href="#DejaVuSans-109"/>
     <use x="2047.070312" xlink:href="#DejaVuSans-112"/>
    </g>
   </g>
  </g>
 </g>
 <defs>
  <clipPath id="p98bb284724">
   <rect height="266.112" width="357.12" x="57.6" y="41.472"/>
  </clipPath>
 </defs>
</svg>
