<?xml version="1.0" encoding="utf-8" standalone="no"?>
<!DOCTYPE svg PUBLIC "-//W3C//DTD SVG 1.1//EN"
  "http://www.w3.org/Graphics/SVG/1.1/DTD/svg11.dtd">
<!-- Created with matplotlib (https://matplotlib.org/) -->
<svg height="345.6pt" version="1.1" viewBox="0 0 460.8 345.6" width="460.8pt" xmlns="http://www.w3.org/2000/svg" xmlns:xlink="http://www.w3.org/1999/xlink">
 <metadata>
  <rdf:RDF xmlns:cc="http://creativecommons.org/ns#" xmlns:dc="http://purl.org/dc/elements/1.1/" xmlns:rdf="http://www.w3.org/1999/02/22-rdf-syntax-ns#">
   <cc:Work>
    <dc:type rdf:resource="http://purl.org/dc/dcmitype/StillImage"/>
    <dc:date>2020-11-09T11:51:39.956350</dc:date>
    <dc:format>image/svg+xml</dc:format>
    <dc:creator>
     <cc:Agent>
      <dc:title>Matplotlib v3.3.2, https://matplotlib.org/</dc:title>
     </cc:Agent>
    </dc:creator>
   </cc:Work>
  </rdf:RDF>
 </metadata>
 <defs>
  <style type="text/css">*{stroke-linecap:butt;stroke-linejoin:round;}</style>
 </defs>
 <g id="figure_1">
  <g id="patch_1">
   <path d="M 0 345.6 
L 460.8 345.6 
L 460.8 0 
L 0 0 
z
" style="fill:#ffffff;"/>
  </g>
  <g id="axes_1">
   <g id="patch_2">
    <path d="M 57.6 307.584 
L 414.72 307.584 
L 414.72 41.472 
L 57.6 41.472 
z
" style="fill:#ffffff;"/>
   </g>
   <g id="patch_3">
    <path clip-path="url(#pfbb9442694)" d="M 73.832727 307.584 
L 75.100909 307.584 
L 75.100909 301.38558 
L 73.832727 301.38558 
z
" style="fill:#1f77b4;stroke:#000000;stroke-linejoin:miter;stroke-width:0.4;"/>
   </g>
   <g id="patch_4">
    <path clip-path="url(#pfbb9442694)" d="M 75.100909 307.584 
L 76.369091 307.584 
L 76.369091 306.688816 
L 75.100909 306.688816 
z
" style="fill:#1f77b4;stroke:#000000;stroke-linejoin:miter;stroke-width:0.4;"/>
   </g>
   <g id="patch_5">
    <path clip-path="url(#pfbb9442694)" d="M 76.369091 307.584 
L 77.637273 307.584 
L 77.637273 306.406808 
L 76.369091 306.406808 
z
" style="fill:#1f77b4;stroke:#000000;stroke-linejoin:miter;stroke-width:0.4;"/>
   </g>
   <g id="patch_6">
    <path clip-path="url(#pfbb9442694)" d="M 77.637273 307.584 
L 78.905455 307.584 
L 78.905455 305.952793 
L 77.637273 305.952793 
z
" style="fill:#1f77b4;stroke:#000000;stroke-linejoin:miter;stroke-width:0.4;"/>
   </g>
   <g id="patch_7">
    <path clip-path="url(#pfbb9442694)" d="M 78.905455 307.584 
L 80.173636 307.584 
L 80.173636 305.214574 
L 78.905455 305.214574 
z
" style="fill:#1f77b4;stroke:#000000;stroke-linejoin:miter;stroke-width:0.4;"/>
   </g>
   <g id="patch_8">
    <path clip-path="url(#pfbb9442694)" d="M 80.173636 307.584 
L 81.441818 307.584 
L 81.441818 54.144 
L 80.173636 54.144 
z
" style="fill:#1f77b4;stroke:#000000;stroke-linejoin:miter;stroke-width:0.4;"/>
   </g>
   <g id="patch_9">
    <path clip-path="url(#pfbb9442694)" d="M 81.441818 307.584 
L 82.71 307.584 
L 82.71 305.435169 
L 81.441818 305.435169 
z
" style="fill:#1f77b4;stroke:#000000;stroke-linejoin:miter;stroke-width:0.4;"/>
   </g>
   <g id="patch_10">
    <path clip-path="url(#pfbb9442694)" d="M 82.71 307.584 
L 83.978182 307.584 
L 83.978182 306.024322 
L 82.71 306.024322 
z
" style="fill:#1f77b4;stroke:#000000;stroke-linejoin:miter;stroke-width:0.4;"/>
   </g>
   <g id="patch_11">
    <path clip-path="url(#pfbb9442694)" d="M 83.978182 307.584 
L 85.246364 307.584 
L 85.246364 306.466586 
L 83.978182 306.466586 
z
" style="fill:#1f77b4;stroke:#000000;stroke-linejoin:miter;stroke-width:0.4;"/>
   </g>
   <g id="patch_12">
    <path clip-path="url(#pfbb9442694)" d="M 85.246364 307.584 
L 86.514545 307.584 
L 86.514545 306.938911 
L 85.246364 306.938911 
z
" style="fill:#1f77b4;stroke:#000000;stroke-linejoin:miter;stroke-width:0.4;"/>
   </g>
   <g id="patch_13">
    <path clip-path="url(#pfbb9442694)" d="M 86.514545 307.584 
L 87.782727 307.584 
L 87.782727 307.16482 
L 86.514545 307.16482 
z
" style="fill:#1f77b4;stroke:#000000;stroke-linejoin:miter;stroke-width:0.4;"/>
   </g>
   <g id="patch_14">
    <path clip-path="url(#pfbb9442694)" d="M 87.782727 307.584 
L 89.050909 307.584 
L 89.050909 307.279951 
L 87.782727 307.279951 
z
" style="fill:#1f77b4;stroke:#000000;stroke-linejoin:miter;stroke-width:0.4;"/>
   </g>
   <g id="patch_15">
    <path clip-path="url(#pfbb9442694)" d="M 89.050909 307.584 
L 90.319091 307.584 
L 90.319091 307.358868 
L 89.050909 307.358868 
z
" style="fill:#1f77b4;stroke:#000000;stroke-linejoin:miter;stroke-width:0.4;"/>
   </g>
   <g id="patch_16">
    <path clip-path="url(#pfbb9442694)" d="M 90.319091 307.584 
L 91.587273 307.584 
L 91.587273 307.420689 
L 90.319091 307.420689 
z
" style="fill:#1f77b4;stroke:#000000;stroke-linejoin:miter;stroke-width:0.4;"/>
   </g>
   <g id="patch_17">
    <path clip-path="url(#pfbb9442694)" d="M 91.587273 307.584 
L 92.855455 307.584 
L 92.855455 307.456719 
L 91.587273 307.456719 
z
" style="fill:#1f77b4;stroke:#000000;stroke-linejoin:miter;stroke-width:0.4;"/>
   </g>
   <g id="patch_18">
    <path clip-path="url(#pfbb9442694)" d="M 92.855455 307.584 
L 94.123636 307.584 
L 94.123636 307.485484 
L 92.855455 307.485484 
z
" style="fill:#1f77b4;stroke:#000000;stroke-linejoin:miter;stroke-width:0.4;"/>
   </g>
   <g id="patch_19">
    <path clip-path="url(#pfbb9442694)" d="M 94.123636 307.584 
L 95.391818 307.584 
L 95.391818 307.50539 
L 94.123636 307.50539 
z
" style="fill:#1f77b4;stroke:#000000;stroke-linejoin:miter;stroke-width:0.4;"/>
   </g>
   <g id="patch_20">
    <path clip-path="url(#pfbb9442694)" d="M 95.391818 307.584 
L 96.66 307.584 
L 96.66 307.520983 
L 95.391818 307.520983 
z
" style="fill:#1f77b4;stroke:#000000;stroke-linejoin:miter;stroke-width:0.4;"/>
   </g>
   <g id="patch_21">
    <path clip-path="url(#pfbb9442694)" d="M 96.66 307.584 
L 97.928182 307.584 
L 97.928182 307.529291 
L 96.66 307.529291 
z
" style="fill:#1f77b4;stroke:#000000;stroke-linejoin:miter;stroke-width:0.4;"/>
   </g>
   <g id="patch_22">
    <path clip-path="url(#pfbb9442694)" d="M 97.928182 307.584 
L 99.196364 307.584 
L 99.196364 307.536801 
L 97.928182 307.536801 
z
" style="fill:#1f77b4;stroke:#000000;stroke-linejoin:miter;stroke-width:0.4;"/>
   </g>
   <g id="patch_23">
    <path clip-path="url(#pfbb9442694)" d="M 99.196364 307.584 
L 100.464545 307.584 
L 100.464545 307.537016 
L 99.196364 307.537016 
z
" style="fill:#1f77b4;stroke:#000000;stroke-linejoin:miter;stroke-width:0.4;"/>
   </g>
   <g id="patch_24">
    <path clip-path="url(#pfbb9442694)" d="M 100.464545 307.584 
L 101.732727 307.584 
L 101.732727 307.548787 
L 100.464545 307.548787 
z
" style="fill:#1f77b4;stroke:#000000;stroke-linejoin:miter;stroke-width:0.4;"/>
   </g>
   <g id="patch_25">
    <path clip-path="url(#pfbb9442694)" d="M 101.732727 307.584 
L 103.000909 307.584 
L 103.000909 307.553191 
L 101.732727 307.553191 
z
" style="fill:#1f77b4;stroke:#000000;stroke-linejoin:miter;stroke-width:0.4;"/>
   </g>
   <g id="patch_26">
    <path clip-path="url(#pfbb9442694)" d="M 103.000909 307.584 
L 104.269091 307.584 
L 104.269091 307.556666 
L 103.000909 307.556666 
z
" style="fill:#1f77b4;stroke:#000000;stroke-linejoin:miter;stroke-width:0.4;"/>
   </g>
   <g id="patch_27">
    <path clip-path="url(#pfbb9442694)" d="M 104.269091 307.584 
L 105.537273 307.584 
L 105.537273 307.559292 
L 104.269091 307.559292 
z
" style="fill:#1f77b4;stroke:#000000;stroke-linejoin:miter;stroke-width:0.4;"/>
   </g>
   <g id="patch_28">
    <path clip-path="url(#pfbb9442694)" d="M 105.537273 307.584 
L 106.805455 307.584 
L 106.805455 307.561673 
L 105.537273 307.561673 
z
" style="fill:#1f77b4;stroke:#000000;stroke-linejoin:miter;stroke-width:0.4;"/>
   </g>
   <g id="patch_29">
    <path clip-path="url(#pfbb9442694)" d="M 106.805455 307.584 
L 108.073636 307.584 
L 108.073636 307.563441 
L 106.805455 307.563441 
z
" style="fill:#1f77b4;stroke:#000000;stroke-linejoin:miter;stroke-width:0.4;"/>
   </g>
   <g id="patch_30">
    <path clip-path="url(#pfbb9442694)" d="M 108.073636 307.584 
L 109.341818 307.584 
L 109.341818 307.564881 
L 108.073636 307.564881 
z
" style="fill:#1f77b4;stroke:#000000;stroke-linejoin:miter;stroke-width:0.4;"/>
   </g>
   <g id="patch_31">
    <path clip-path="url(#pfbb9442694)" d="M 109.341818 307.584 
L 110.61 307.584 
L 110.61 307.566363 
L 109.341818 307.566363 
z
" style="fill:#1f77b4;stroke:#000000;stroke-linejoin:miter;stroke-width:0.4;"/>
   </g>
   <g id="patch_32">
    <path clip-path="url(#pfbb9442694)" d="M 110.61 307.584 
L 111.878182 307.584 
L 111.878182 307.567119 
L 110.61 307.567119 
z
" style="fill:#1f77b4;stroke:#000000;stroke-linejoin:miter;stroke-width:0.4;"/>
   </g>
   <g id="patch_33">
    <path clip-path="url(#pfbb9442694)" d="M 111.878182 307.584 
L 113.146364 307.584 
L 113.146364 307.567865 
L 111.878182 307.567865 
z
" style="fill:#1f77b4;stroke:#000000;stroke-linejoin:miter;stroke-width:0.4;"/>
   </g>
   <g id="patch_34">
    <path clip-path="url(#pfbb9442694)" d="M 113.146364 307.584 
L 114.414545 307.584 
L 114.414545 307.567599 
L 113.146364 307.567599 
z
" style="fill:#1f77b4;stroke:#000000;stroke-linejoin:miter;stroke-width:0.4;"/>
   </g>
   <g id="patch_35">
    <path clip-path="url(#pfbb9442694)" d="M 114.414545 307.584 
L 115.682727 307.584 
L 115.682727 307.567324 
L 114.414545 307.567324 
z
" style="fill:#1f77b4;stroke:#000000;stroke-linejoin:miter;stroke-width:0.4;"/>
   </g>
   <g id="patch_36">
    <path clip-path="url(#pfbb9442694)" d="M 115.682727 307.584 
L 116.950909 307.584 
L 116.950909 307.566721 
L 115.682727 307.566721 
z
" style="fill:#1f77b4;stroke:#000000;stroke-linejoin:miter;stroke-width:0.4;"/>
   </g>
   <g id="patch_37">
    <path clip-path="url(#pfbb9442694)" d="M 116.950909 307.584 
L 118.219091 307.584 
L 118.219091 307.567916 
L 116.950909 307.567916 
z
" style="fill:#1f77b4;stroke:#000000;stroke-linejoin:miter;stroke-width:0.4;"/>
   </g>
   <g id="patch_38">
    <path clip-path="url(#pfbb9442694)" d="M 118.219091 307.584 
L 119.487273 307.584 
L 119.487273 307.563522 
L 118.219091 307.563522 
z
" style="fill:#1f77b4;stroke:#000000;stroke-linejoin:miter;stroke-width:0.4;"/>
   </g>
   <g id="patch_39">
    <path clip-path="url(#pfbb9442694)" d="M 119.487273 307.584 
L 120.755455 307.584 
L 120.755455 307.568018 
L 119.487273 307.568018 
z
" style="fill:#1f77b4;stroke:#000000;stroke-linejoin:miter;stroke-width:0.4;"/>
   </g>
   <g id="patch_40">
    <path clip-path="url(#pfbb9442694)" d="M 120.755455 307.584 
L 122.023636 307.584 
L 122.023636 307.569234 
L 120.755455 307.569234 
z
" style="fill:#1f77b4;stroke:#000000;stroke-linejoin:miter;stroke-width:0.4;"/>
   </g>
   <g id="patch_41">
    <path clip-path="url(#pfbb9442694)" d="M 122.023636 307.584 
L 123.291818 307.584 
L 123.291818 307.570318 
L 122.023636 307.570318 
z
" style="fill:#1f77b4;stroke:#000000;stroke-linejoin:miter;stroke-width:0.4;"/>
   </g>
   <g id="patch_42">
    <path clip-path="url(#pfbb9442694)" d="M 123.291818 307.584 
L 124.56 307.584 
L 124.56 307.57043 
L 123.291818 307.57043 
z
" style="fill:#1f77b4;stroke:#000000;stroke-linejoin:miter;stroke-width:0.4;"/>
   </g>
   <g id="patch_43">
    <path clip-path="url(#pfbb9442694)" d="M 124.56 307.584 
L 125.828182 307.584 
L 125.828182 307.569653 
L 124.56 307.569653 
z
" style="fill:#1f77b4;stroke:#000000;stroke-linejoin:miter;stroke-width:0.4;"/>
   </g>
   <g id="patch_44">
    <path clip-path="url(#pfbb9442694)" d="M 125.828182 307.584 
L 127.096364 307.584 
L 127.096364 307.569725 
L 125.828182 307.569725 
z
" style="fill:#1f77b4;stroke:#000000;stroke-linejoin:miter;stroke-width:0.4;"/>
   </g>
   <g id="patch_45">
    <path clip-path="url(#pfbb9442694)" d="M 127.096364 307.584 
L 128.364545 307.584 
L 128.364545 307.57092 
L 127.096364 307.57092 
z
" style="fill:#1f77b4;stroke:#000000;stroke-linejoin:miter;stroke-width:0.4;"/>
   </g>
   <g id="patch_46">
    <path clip-path="url(#pfbb9442694)" d="M 128.364545 307.584 
L 129.632727 307.584 
L 129.632727 307.569878 
L 128.364545 307.569878 
z
" style="fill:#1f77b4;stroke:#000000;stroke-linejoin:miter;stroke-width:0.4;"/>
   </g>
   <g id="patch_47">
    <path clip-path="url(#pfbb9442694)" d="M 129.632727 307.584 
L 130.900909 307.584 
L 130.900909 307.570726 
L 129.632727 307.570726 
z
" style="fill:#1f77b4;stroke:#000000;stroke-linejoin:miter;stroke-width:0.4;"/>
   </g>
   <g id="patch_48">
    <path clip-path="url(#pfbb9442694)" d="M 130.900909 307.584 
L 132.169091 307.584 
L 132.169091 307.570522 
L 130.900909 307.570522 
z
" style="fill:#1f77b4;stroke:#000000;stroke-linejoin:miter;stroke-width:0.4;"/>
   </g>
   <g id="patch_49">
    <path clip-path="url(#pfbb9442694)" d="M 132.169091 307.584 
L 133.437273 307.584 
L 133.437273 307.570491 
L 132.169091 307.570491 
z
" style="fill:#1f77b4;stroke:#000000;stroke-linejoin:miter;stroke-width:0.4;"/>
   </g>
   <g id="patch_50">
    <path clip-path="url(#pfbb9442694)" d="M 133.437273 307.584 
L 134.705455 307.584 
L 134.705455 307.570563 
L 133.437273 307.570563 
z
" style="fill:#1f77b4;stroke:#000000;stroke-linejoin:miter;stroke-width:0.4;"/>
   </g>
   <g id="patch_51">
    <path clip-path="url(#pfbb9442694)" d="M 134.705455 307.584 
L 135.973636 307.584 
L 135.973636 307.570154 
L 134.705455 307.570154 
z
" style="fill:#1f77b4;stroke:#000000;stroke-linejoin:miter;stroke-width:0.4;"/>
   </g>
   <g id="patch_52">
    <path clip-path="url(#pfbb9442694)" d="M 135.973636 307.584 
L 137.241818 307.584 
L 137.241818 307.565484 
L 135.973636 307.565484 
z
" style="fill:#1f77b4;stroke:#000000;stroke-linejoin:miter;stroke-width:0.4;"/>
   </g>
   <g id="patch_53">
    <path clip-path="url(#pfbb9442694)" d="M 137.241818 307.584 
L 138.51 307.584 
L 138.51 307.567232 
L 137.241818 307.567232 
z
" style="fill:#1f77b4;stroke:#000000;stroke-linejoin:miter;stroke-width:0.4;"/>
   </g>
   <g id="patch_54">
    <path clip-path="url(#pfbb9442694)" d="M 138.51 307.584 
L 139.778182 307.584 
L 139.778182 307.569204 
L 138.51 307.569204 
z
" style="fill:#1f77b4;stroke:#000000;stroke-linejoin:miter;stroke-width:0.4;"/>
   </g>
   <g id="patch_55">
    <path clip-path="url(#pfbb9442694)" d="M 139.778182 307.584 
L 141.046364 307.584 
L 141.046364 307.564299 
L 139.778182 307.564299 
z
" style="fill:#1f77b4;stroke:#000000;stroke-linejoin:miter;stroke-width:0.4;"/>
   </g>
   <g id="patch_56">
    <path clip-path="url(#pfbb9442694)" d="M 141.046364 307.584 
L 142.314545 307.584 
L 142.314545 307.57043 
L 141.046364 307.57043 
z
" style="fill:#1f77b4;stroke:#000000;stroke-linejoin:miter;stroke-width:0.4;"/>
   </g>
   <g id="patch_57">
    <path clip-path="url(#pfbb9442694)" d="M 142.314545 307.584 
L 143.582727 307.584 
L 143.582727 307.569715 
L 142.314545 307.569715 
z
" style="fill:#1f77b4;stroke:#000000;stroke-linejoin:miter;stroke-width:0.4;"/>
   </g>
   <g id="patch_58">
    <path clip-path="url(#pfbb9442694)" d="M 143.582727 307.584 
L 144.850909 307.584 
L 144.850909 307.570573 
L 143.582727 307.570573 
z
" style="fill:#1f77b4;stroke:#000000;stroke-linejoin:miter;stroke-width:0.4;"/>
   </g>
   <g id="patch_59">
    <path clip-path="url(#pfbb9442694)" d="M 144.850909 307.584 
L 146.119091 307.584 
L 146.119091 307.571135 
L 144.850909 307.571135 
z
" style="fill:#1f77b4;stroke:#000000;stroke-linejoin:miter;stroke-width:0.4;"/>
   </g>
   <g id="patch_60">
    <path clip-path="url(#pfbb9442694)" d="M 146.119091 307.584 
L 147.387273 307.584 
L 147.387273 307.570338 
L 146.119091 307.570338 
z
" style="fill:#1f77b4;stroke:#000000;stroke-linejoin:miter;stroke-width:0.4;"/>
   </g>
   <g id="patch_61">
    <path clip-path="url(#pfbb9442694)" d="M 147.387273 307.584 
L 148.655455 307.584 
L 148.655455 307.570471 
L 147.387273 307.570471 
z
" style="fill:#1f77b4;stroke:#000000;stroke-linejoin:miter;stroke-width:0.4;"/>
   </g>
   <g id="patch_62">
    <path clip-path="url(#pfbb9442694)" d="M 148.655455 307.584 
L 149.923636 307.584 
L 149.923636 307.570757 
L 148.655455 307.570757 
z
" style="fill:#1f77b4;stroke:#000000;stroke-linejoin:miter;stroke-width:0.4;"/>
   </g>
   <g id="patch_63">
    <path clip-path="url(#pfbb9442694)" d="M 149.923636 307.584 
L 151.191818 307.584 
L 151.191818 307.569408 
L 149.923636 307.569408 
z
" style="fill:#1f77b4;stroke:#000000;stroke-linejoin:miter;stroke-width:0.4;"/>
   </g>
   <g id="patch_64">
    <path clip-path="url(#pfbb9442694)" d="M 151.191818 307.584 
L 152.46 307.584 
L 152.46 307.570307 
L 151.191818 307.570307 
z
" style="fill:#1f77b4;stroke:#000000;stroke-linejoin:miter;stroke-width:0.4;"/>
   </g>
   <g id="patch_65">
    <path clip-path="url(#pfbb9442694)" d="M 152.46 307.584 
L 153.728182 307.584 
L 153.728182 307.570307 
L 152.46 307.570307 
z
" style="fill:#1f77b4;stroke:#000000;stroke-linejoin:miter;stroke-width:0.4;"/>
   </g>
   <g id="patch_66">
    <path clip-path="url(#pfbb9442694)" d="M 153.728182 307.584 
L 154.996364 307.584 
L 154.996364 307.569418 
L 153.728182 307.569418 
z
" style="fill:#1f77b4;stroke:#000000;stroke-linejoin:miter;stroke-width:0.4;"/>
   </g>
   <g id="patch_67">
    <path clip-path="url(#pfbb9442694)" d="M 154.996364 307.584 
L 156.264545 307.584 
L 156.264545 307.568417 
L 154.996364 307.568417 
z
" style="fill:#1f77b4;stroke:#000000;stroke-linejoin:miter;stroke-width:0.4;"/>
   </g>
   <g id="patch_68">
    <path clip-path="url(#pfbb9442694)" d="M 156.264545 307.584 
L 157.532727 307.584 
L 157.532727 307.565638 
L 156.264545 307.565638 
z
" style="fill:#1f77b4;stroke:#000000;stroke-linejoin:miter;stroke-width:0.4;"/>
   </g>
   <g id="patch_69">
    <path clip-path="url(#pfbb9442694)" d="M 157.532727 307.584 
L 158.800909 307.584 
L 158.800909 307.560835 
L 157.532727 307.560835 
z
" style="fill:#1f77b4;stroke:#000000;stroke-linejoin:miter;stroke-width:0.4;"/>
   </g>
   <g id="patch_70">
    <path clip-path="url(#pfbb9442694)" d="M 158.800909 307.584 
L 160.069091 307.584 
L 160.069091 307.569776 
L 158.800909 307.569776 
z
" style="fill:#1f77b4;stroke:#000000;stroke-linejoin:miter;stroke-width:0.4;"/>
   </g>
   <g id="patch_71">
    <path clip-path="url(#pfbb9442694)" d="M 160.069091 307.584 
L 161.337273 307.584 
L 161.337273 307.568632 
L 160.069091 307.568632 
z
" style="fill:#1f77b4;stroke:#000000;stroke-linejoin:miter;stroke-width:0.4;"/>
   </g>
   <g id="patch_72">
    <path clip-path="url(#pfbb9442694)" d="M 161.337273 307.584 
L 162.605455 307.584 
L 162.605455 307.569623 
L 161.337273 307.569623 
z
" style="fill:#1f77b4;stroke:#000000;stroke-linejoin:miter;stroke-width:0.4;"/>
   </g>
   <g id="patch_73">
    <path clip-path="url(#pfbb9442694)" d="M 162.605455 307.584 
L 163.873636 307.584 
L 163.873636 307.570266 
L 162.605455 307.570266 
z
" style="fill:#1f77b4;stroke:#000000;stroke-linejoin:miter;stroke-width:0.4;"/>
   </g>
   <g id="patch_74">
    <path clip-path="url(#pfbb9442694)" d="M 163.873636 307.584 
L 165.141818 307.584 
L 165.141818 307.570011 
L 163.873636 307.570011 
z
" style="fill:#1f77b4;stroke:#000000;stroke-linejoin:miter;stroke-width:0.4;"/>
   </g>
   <g id="patch_75">
    <path clip-path="url(#pfbb9442694)" d="M 165.141818 307.584 
L 166.41 307.584 
L 166.41 307.570828 
L 165.141818 307.570828 
z
" style="fill:#1f77b4;stroke:#000000;stroke-linejoin:miter;stroke-width:0.4;"/>
   </g>
   <g id="patch_76">
    <path clip-path="url(#pfbb9442694)" d="M 166.41 307.584 
L 167.678182 307.584 
L 167.678182 307.570522 
L 166.41 307.570522 
z
" style="fill:#1f77b4;stroke:#000000;stroke-linejoin:miter;stroke-width:0.4;"/>
   </g>
   <g id="patch_77">
    <path clip-path="url(#pfbb9442694)" d="M 167.678182 307.584 
L 168.946364 307.584 
L 168.946364 307.570226 
L 167.678182 307.570226 
z
" style="fill:#1f77b4;stroke:#000000;stroke-linejoin:miter;stroke-width:0.4;"/>
   </g>
   <g id="patch_78">
    <path clip-path="url(#pfbb9442694)" d="M 168.946364 307.584 
L 170.214545 307.584 
L 170.214545 307.57045 
L 168.946364 307.57045 
z
" style="fill:#1f77b4;stroke:#000000;stroke-linejoin:miter;stroke-width:0.4;"/>
   </g>
   <g id="patch_79">
    <path clip-path="url(#pfbb9442694)" d="M 170.214545 307.584 
L 171.482727 307.584 
L 171.482727 307.570001 
L 170.214545 307.570001 
z
" style="fill:#1f77b4;stroke:#000000;stroke-linejoin:miter;stroke-width:0.4;"/>
   </g>
   <g id="patch_80">
    <path clip-path="url(#pfbb9442694)" d="M 171.482727 307.584 
L 172.750909 307.584 
L 172.750909 307.570113 
L 171.482727 307.570113 
z
" style="fill:#1f77b4;stroke:#000000;stroke-linejoin:miter;stroke-width:0.4;"/>
   </g>
   <g id="patch_81">
    <path clip-path="url(#pfbb9442694)" d="M 172.750909 307.584 
L 174.019091 307.584 
L 174.019091 307.569224 
L 172.750909 307.569224 
z
" style="fill:#1f77b4;stroke:#000000;stroke-linejoin:miter;stroke-width:0.4;"/>
   </g>
   <g id="patch_82">
    <path clip-path="url(#pfbb9442694)" d="M 174.019091 307.584 
L 175.287273 307.584 
L 175.287273 307.569878 
L 174.019091 307.569878 
z
" style="fill:#1f77b4;stroke:#000000;stroke-linejoin:miter;stroke-width:0.4;"/>
   </g>
   <g id="patch_83">
    <path clip-path="url(#pfbb9442694)" d="M 175.287273 307.584 
L 176.555455 307.584 
L 176.555455 307.562879 
L 175.287273 307.562879 
z
" style="fill:#1f77b4;stroke:#000000;stroke-linejoin:miter;stroke-width:0.4;"/>
   </g>
   <g id="patch_84">
    <path clip-path="url(#pfbb9442694)" d="M 176.555455 307.584 
L 177.823636 307.584 
L 177.823636 307.568478 
L 176.555455 307.568478 
z
" style="fill:#1f77b4;stroke:#000000;stroke-linejoin:miter;stroke-width:0.4;"/>
   </g>
   <g id="patch_85">
    <path clip-path="url(#pfbb9442694)" d="M 177.823636 307.584 
L 179.091818 307.584 
L 179.091818 307.562868 
L 177.823636 307.562868 
z
" style="fill:#1f77b4;stroke:#000000;stroke-linejoin:miter;stroke-width:0.4;"/>
   </g>
   <g id="patch_86">
    <path clip-path="url(#pfbb9442694)" d="M 179.091818 307.584 
L 180.36 307.584 
L 180.36 307.568264 
L 179.091818 307.568264 
z
" style="fill:#1f77b4;stroke:#000000;stroke-linejoin:miter;stroke-width:0.4;"/>
   </g>
   <g id="patch_87">
    <path clip-path="url(#pfbb9442694)" d="M 180.36 307.584 
L 181.628182 307.584 
L 181.628182 307.559578 
L 180.36 307.559578 
z
" style="fill:#1f77b4;stroke:#000000;stroke-linejoin:miter;stroke-width:0.4;"/>
   </g>
   <g id="patch_88">
    <path clip-path="url(#pfbb9442694)" d="M 181.628182 307.584 
L 182.896364 307.584 
L 182.896364 307.568376 
L 181.628182 307.568376 
z
" style="fill:#1f77b4;stroke:#000000;stroke-linejoin:miter;stroke-width:0.4;"/>
   </g>
   <g id="patch_89">
    <path clip-path="url(#pfbb9442694)" d="M 182.896364 307.584 
L 184.164545 307.584 
L 184.164545 307.569408 
L 182.896364 307.569408 
z
" style="fill:#1f77b4;stroke:#000000;stroke-linejoin:miter;stroke-width:0.4;"/>
   </g>
   <g id="patch_90">
    <path clip-path="url(#pfbb9442694)" d="M 184.164545 307.584 
L 185.432727 307.584 
L 185.432727 307.570532 
L 184.164545 307.570532 
z
" style="fill:#1f77b4;stroke:#000000;stroke-linejoin:miter;stroke-width:0.4;"/>
   </g>
   <g id="patch_91">
    <path clip-path="url(#pfbb9442694)" d="M 185.432727 307.584 
L 186.700909 307.584 
L 186.700909 307.571115 
L 185.432727 307.571115 
z
" style="fill:#1f77b4;stroke:#000000;stroke-linejoin:miter;stroke-width:0.4;"/>
   </g>
   <g id="patch_92">
    <path clip-path="url(#pfbb9442694)" d="M 186.700909 307.584 
L 187.969091 307.584 
L 187.969091 307.569899 
L 186.700909 307.569899 
z
" style="fill:#1f77b4;stroke:#000000;stroke-linejoin:miter;stroke-width:0.4;"/>
   </g>
   <g id="patch_93">
    <path clip-path="url(#pfbb9442694)" d="M 187.969091 307.584 
L 189.237273 307.584 
L 189.237273 307.570021 
L 187.969091 307.570021 
z
" style="fill:#1f77b4;stroke:#000000;stroke-linejoin:miter;stroke-width:0.4;"/>
   </g>
   <g id="patch_94">
    <path clip-path="url(#pfbb9442694)" d="M 189.237273 307.584 
L 190.505455 307.584 
L 190.505455 307.570491 
L 189.237273 307.570491 
z
" style="fill:#1f77b4;stroke:#000000;stroke-linejoin:miter;stroke-width:0.4;"/>
   </g>
   <g id="patch_95">
    <path clip-path="url(#pfbb9442694)" d="M 190.505455 307.584 
L 191.773636 307.584 
L 191.773636 307.56858 
L 190.505455 307.56858 
z
" style="fill:#1f77b4;stroke:#000000;stroke-linejoin:miter;stroke-width:0.4;"/>
   </g>
   <g id="patch_96">
    <path clip-path="url(#pfbb9442694)" d="M 191.773636 307.584 
L 193.041818 307.584 
L 193.041818 307.567078 
L 191.773636 307.567078 
z
" style="fill:#1f77b4;stroke:#000000;stroke-linejoin:miter;stroke-width:0.4;"/>
   </g>
   <g id="patch_97">
    <path clip-path="url(#pfbb9442694)" d="M 193.041818 307.584 
L 194.31 307.584 
L 194.31 307.56108 
L 193.041818 307.56108 
z
" style="fill:#1f77b4;stroke:#000000;stroke-linejoin:miter;stroke-width:0.4;"/>
   </g>
   <g id="patch_98">
    <path clip-path="url(#pfbb9442694)" d="M 194.31 307.584 
L 195.578182 307.584 
L 195.578182 307.556788 
L 194.31 307.556788 
z
" style="fill:#1f77b4;stroke:#000000;stroke-linejoin:miter;stroke-width:0.4;"/>
   </g>
   <g id="patch_99">
    <path clip-path="url(#pfbb9442694)" d="M 195.578182 307.584 
L 196.846364 307.584 
L 196.846364 307.561458 
L 195.578182 307.561458 
z
" style="fill:#1f77b4;stroke:#000000;stroke-linejoin:miter;stroke-width:0.4;"/>
   </g>
   <g id="patch_100">
    <path clip-path="url(#pfbb9442694)" d="M 196.846364 307.584 
L 198.114545 307.584 
L 198.114545 307.567221 
L 196.846364 307.567221 
z
" style="fill:#1f77b4;stroke:#000000;stroke-linejoin:miter;stroke-width:0.4;"/>
   </g>
   <g id="patch_101">
    <path clip-path="url(#pfbb9442694)" d="M 198.114545 307.584 
L 199.382727 307.584 
L 199.382727 307.570134 
L 198.114545 307.570134 
z
" style="fill:#1f77b4;stroke:#000000;stroke-linejoin:miter;stroke-width:0.4;"/>
   </g>
   <g id="patch_102">
    <path clip-path="url(#pfbb9442694)" d="M 199.382727 307.584 
L 200.650909 307.584 
L 200.650909 307.569521 
L 199.382727 307.569521 
z
" style="fill:#1f77b4;stroke:#000000;stroke-linejoin:miter;stroke-width:0.4;"/>
   </g>
   <g id="patch_103">
    <path clip-path="url(#pfbb9442694)" d="M 200.650909 307.584 
L 201.919091 307.584 
L 201.919091 307.569449 
L 200.650909 307.569449 
z
" style="fill:#1f77b4;stroke:#000000;stroke-linejoin:miter;stroke-width:0.4;"/>
   </g>
   <g id="patch_104">
    <path clip-path="url(#pfbb9442694)" d="M 201.919091 307.584 
L 203.187273 307.584 
L 203.187273 307.569991 
L 201.919091 307.569991 
z
" style="fill:#1f77b4;stroke:#000000;stroke-linejoin:miter;stroke-width:0.4;"/>
   </g>
   <g id="patch_105">
    <path clip-path="url(#pfbb9442694)" d="M 203.187273 307.584 
L 204.455455 307.584 
L 204.455455 307.569275 
L 203.187273 307.569275 
z
" style="fill:#1f77b4;stroke:#000000;stroke-linejoin:miter;stroke-width:0.4;"/>
   </g>
   <g id="patch_106">
    <path clip-path="url(#pfbb9442694)" d="M 204.455455 307.584 
L 205.723636 307.584 
L 205.723636 307.570757 
L 204.455455 307.570757 
z
" style="fill:#1f77b4;stroke:#000000;stroke-linejoin:miter;stroke-width:0.4;"/>
   </g>
   <g id="patch_107">
    <path clip-path="url(#pfbb9442694)" d="M 205.723636 307.584 
L 206.991818 307.584 
L 206.991818 307.570001 
L 205.723636 307.570001 
z
" style="fill:#1f77b4;stroke:#000000;stroke-linejoin:miter;stroke-width:0.4;"/>
   </g>
   <g id="patch_108">
    <path clip-path="url(#pfbb9442694)" d="M 206.991818 307.584 
L 208.26 307.584 
L 208.26 307.569602 
L 206.991818 307.569602 
z
" style="fill:#1f77b4;stroke:#000000;stroke-linejoin:miter;stroke-width:0.4;"/>
   </g>
   <g id="patch_109">
    <path clip-path="url(#pfbb9442694)" d="M 208.26 307.584 
L 209.528182 307.584 
L 209.528182 307.570072 
L 208.26 307.570072 
z
" style="fill:#1f77b4;stroke:#000000;stroke-linejoin:miter;stroke-width:0.4;"/>
   </g>
   <g id="patch_110">
    <path clip-path="url(#pfbb9442694)" d="M 209.528182 307.584 
L 210.796364 307.584 
L 210.796364 307.569245 
L 209.528182 307.569245 
z
" style="fill:#1f77b4;stroke:#000000;stroke-linejoin:miter;stroke-width:0.4;"/>
   </g>
   <g id="patch_111">
    <path clip-path="url(#pfbb9442694)" d="M 210.796364 307.584 
L 212.064545 307.584 
L 212.064545 307.569429 
L 210.796364 307.569429 
z
" style="fill:#1f77b4;stroke:#000000;stroke-linejoin:miter;stroke-width:0.4;"/>
   </g>
   <g id="patch_112">
    <path clip-path="url(#pfbb9442694)" d="M 212.064545 307.584 
L 213.332727 307.584 
L 213.332727 307.567722 
L 212.064545 307.567722 
z
" style="fill:#1f77b4;stroke:#000000;stroke-linejoin:miter;stroke-width:0.4;"/>
   </g>
   <g id="patch_113">
    <path clip-path="url(#pfbb9442694)" d="M 213.332727 307.584 
L 214.600909 307.584 
L 214.600909 307.567436 
L 213.332727 307.567436 
z
" style="fill:#1f77b4;stroke:#000000;stroke-linejoin:miter;stroke-width:0.4;"/>
   </g>
   <g id="patch_114">
    <path clip-path="url(#pfbb9442694)" d="M 214.600909 307.584 
L 215.869091 307.584 
L 215.869091 307.566118 
L 214.600909 307.566118 
z
" style="fill:#1f77b4;stroke:#000000;stroke-linejoin:miter;stroke-width:0.4;"/>
   </g>
   <g id="patch_115">
    <path clip-path="url(#pfbb9442694)" d="M 215.869091 307.584 
L 217.137273 307.584 
L 217.137273 307.544118 
L 215.869091 307.544118 
z
" style="fill:#1f77b4;stroke:#000000;stroke-linejoin:miter;stroke-width:0.4;"/>
   </g>
   <g id="patch_116">
    <path clip-path="url(#pfbb9442694)" d="M 217.137273 307.584 
L 218.405455 307.584 
L 218.405455 307.534318 
L 217.137273 307.534318 
z
" style="fill:#1f77b4;stroke:#000000;stroke-linejoin:miter;stroke-width:0.4;"/>
   </g>
   <g id="patch_117">
    <path clip-path="url(#pfbb9442694)" d="M 218.405455 307.584 
L 219.673636 307.584 
L 219.673636 307.568867 
L 218.405455 307.568867 
z
" style="fill:#1f77b4;stroke:#000000;stroke-linejoin:miter;stroke-width:0.4;"/>
   </g>
   <g id="patch_118">
    <path clip-path="url(#pfbb9442694)" d="M 219.673636 307.584 
L 220.941818 307.584 
L 220.941818 307.568938 
L 219.673636 307.568938 
z
" style="fill:#1f77b4;stroke:#000000;stroke-linejoin:miter;stroke-width:0.4;"/>
   </g>
   <g id="patch_119">
    <path clip-path="url(#pfbb9442694)" d="M 220.941818 307.584 
L 222.21 307.584 
L 222.21 307.570103 
L 220.941818 307.570103 
z
" style="fill:#1f77b4;stroke:#000000;stroke-linejoin:miter;stroke-width:0.4;"/>
   </g>
   <g id="patch_120">
    <path clip-path="url(#pfbb9442694)" d="M 222.21 307.584 
L 223.478182 307.584 
L 223.478182 307.569316 
L 222.21 307.569316 
z
" style="fill:#1f77b4;stroke:#000000;stroke-linejoin:miter;stroke-width:0.4;"/>
   </g>
   <g id="patch_121">
    <path clip-path="url(#pfbb9442694)" d="M 223.478182 307.584 
L 224.746364 307.584 
L 224.746364 307.568151 
L 223.478182 307.568151 
z
" style="fill:#1f77b4;stroke:#000000;stroke-linejoin:miter;stroke-width:0.4;"/>
   </g>
   <g id="patch_122">
    <path clip-path="url(#pfbb9442694)" d="M 224.746364 307.584 
L 226.014545 307.584 
L 226.014545 307.56904 
L 224.746364 307.56904 
z
" style="fill:#1f77b4;stroke:#000000;stroke-linejoin:miter;stroke-width:0.4;"/>
   </g>
   <g id="patch_123">
    <path clip-path="url(#pfbb9442694)" d="M 226.014545 307.584 
L 227.282727 307.584 
L 227.282727 307.568958 
L 226.014545 307.568958 
z
" style="fill:#1f77b4;stroke:#000000;stroke-linejoin:miter;stroke-width:0.4;"/>
   </g>
   <g id="patch_124">
    <path clip-path="url(#pfbb9442694)" d="M 227.282727 307.584 
L 228.550909 307.584 
L 228.550909 307.568458 
L 227.282727 307.568458 
z
" style="fill:#1f77b4;stroke:#000000;stroke-linejoin:miter;stroke-width:0.4;"/>
   </g>
   <g id="patch_125">
    <path clip-path="url(#pfbb9442694)" d="M 228.550909 307.584 
L 229.819091 307.584 
L 229.819091 307.568662 
L 228.550909 307.568662 
z
" style="fill:#1f77b4;stroke:#000000;stroke-linejoin:miter;stroke-width:0.4;"/>
   </g>
   <g id="patch_126">
    <path clip-path="url(#pfbb9442694)" d="M 229.819091 307.584 
L 231.087273 307.584 
L 231.087273 307.567589 
L 229.819091 307.567589 
z
" style="fill:#1f77b4;stroke:#000000;stroke-linejoin:miter;stroke-width:0.4;"/>
   </g>
   <g id="patch_127">
    <path clip-path="url(#pfbb9442694)" d="M 231.087273 307.584 
L 232.355455 307.584 
L 232.355455 307.566547 
L 231.087273 307.566547 
z
" style="fill:#1f77b4;stroke:#000000;stroke-linejoin:miter;stroke-width:0.4;"/>
   </g>
   <g id="patch_128">
    <path clip-path="url(#pfbb9442694)" d="M 232.355455 307.584 
L 233.623636 307.584 
L 233.623636 307.517887 
L 232.355455 307.517887 
z
" style="fill:#1f77b4;stroke:#000000;stroke-linejoin:miter;stroke-width:0.4;"/>
   </g>
   <g id="patch_129">
    <path clip-path="url(#pfbb9442694)" d="M 233.623636 307.584 
L 234.891818 307.584 
L 234.891818 307.53534 
L 233.623636 307.53534 
z
" style="fill:#1f77b4;stroke:#000000;stroke-linejoin:miter;stroke-width:0.4;"/>
   </g>
   <g id="patch_130">
    <path clip-path="url(#pfbb9442694)" d="M 234.891818 307.584 
L 236.16 307.584 
L 236.16 307.567579 
L 234.891818 307.567579 
z
" style="fill:#1f77b4;stroke:#000000;stroke-linejoin:miter;stroke-width:0.4;"/>
   </g>
   <g id="patch_131">
    <path clip-path="url(#pfbb9442694)" d="M 236.16 307.584 
L 237.428182 307.584 
L 237.428182 307.563768 
L 236.16 307.563768 
z
" style="fill:#1f77b4;stroke:#000000;stroke-linejoin:miter;stroke-width:0.4;"/>
   </g>
   <g id="patch_132">
    <path clip-path="url(#pfbb9442694)" d="M 237.428182 307.584 
L 238.696364 307.584 
L 238.696364 307.567068 
L 237.428182 307.567068 
z
" style="fill:#1f77b4;stroke:#000000;stroke-linejoin:miter;stroke-width:0.4;"/>
   </g>
   <g id="patch_133">
    <path clip-path="url(#pfbb9442694)" d="M 238.696364 307.584 
L 239.964545 307.584 
L 239.964545 307.568601 
L 238.696364 307.568601 
z
" style="fill:#1f77b4;stroke:#000000;stroke-linejoin:miter;stroke-width:0.4;"/>
   </g>
   <g id="patch_134">
    <path clip-path="url(#pfbb9442694)" d="M 239.964545 307.584 
L 241.232727 307.584 
L 241.232727 307.569633 
L 239.964545 307.569633 
z
" style="fill:#1f77b4;stroke:#000000;stroke-linejoin:miter;stroke-width:0.4;"/>
   </g>
   <g id="patch_135">
    <path clip-path="url(#pfbb9442694)" d="M 241.232727 307.584 
L 242.500909 307.584 
L 242.500909 307.569214 
L 241.232727 307.569214 
z
" style="fill:#1f77b4;stroke:#000000;stroke-linejoin:miter;stroke-width:0.4;"/>
   </g>
   <g id="patch_136">
    <path clip-path="url(#pfbb9442694)" d="M 242.500909 307.584 
L 243.769091 307.584 
L 243.769091 307.56904 
L 242.500909 307.56904 
z
" style="fill:#1f77b4;stroke:#000000;stroke-linejoin:miter;stroke-width:0.4;"/>
   </g>
   <g id="patch_137">
    <path clip-path="url(#pfbb9442694)" d="M 243.769091 307.584 
L 245.037273 307.584 
L 245.037273 307.568938 
L 243.769091 307.568938 
z
" style="fill:#1f77b4;stroke:#000000;stroke-linejoin:miter;stroke-width:0.4;"/>
   </g>
   <g id="patch_138">
    <path clip-path="url(#pfbb9442694)" d="M 245.037273 307.584 
L 246.305455 307.584 
L 246.305455 307.569572 
L 245.037273 307.569572 
z
" style="fill:#1f77b4;stroke:#000000;stroke-linejoin:miter;stroke-width:0.4;"/>
   </g>
   <g id="patch_139">
    <path clip-path="url(#pfbb9442694)" d="M 246.305455 307.584 
L 247.573636 307.584 
L 247.573636 307.56995 
L 246.305455 307.56995 
z
" style="fill:#1f77b4;stroke:#000000;stroke-linejoin:miter;stroke-width:0.4;"/>
   </g>
   <g id="patch_140">
    <path clip-path="url(#pfbb9442694)" d="M 247.573636 307.584 
L 248.841818 307.584 
L 248.841818 307.570399 
L 247.573636 307.570399 
z
" style="fill:#1f77b4;stroke:#000000;stroke-linejoin:miter;stroke-width:0.4;"/>
   </g>
   <g id="patch_141">
    <path clip-path="url(#pfbb9442694)" d="M 248.841818 307.584 
L 250.11 307.584 
L 250.11 307.570113 
L 248.841818 307.570113 
z
" style="fill:#1f77b4;stroke:#000000;stroke-linejoin:miter;stroke-width:0.4;"/>
   </g>
   <g id="patch_142">
    <path clip-path="url(#pfbb9442694)" d="M 250.11 307.584 
L 251.378182 307.584 
L 251.378182 307.568458 
L 250.11 307.568458 
z
" style="fill:#1f77b4;stroke:#000000;stroke-linejoin:miter;stroke-width:0.4;"/>
   </g>
   <g id="patch_143">
    <path clip-path="url(#pfbb9442694)" d="M 251.378182 307.584 
L 252.646364 307.584 
L 252.646364 307.568775 
L 251.378182 307.568775 
z
" style="fill:#1f77b4;stroke:#000000;stroke-linejoin:miter;stroke-width:0.4;"/>
   </g>
   <g id="patch_144">
    <path clip-path="url(#pfbb9442694)" d="M 252.646364 307.584 
L 253.914545 307.584 
L 253.914545 307.559394 
L 252.646364 307.559394 
z
" style="fill:#1f77b4;stroke:#000000;stroke-linejoin:miter;stroke-width:0.4;"/>
   </g>
   <g id="patch_145">
    <path clip-path="url(#pfbb9442694)" d="M 253.914545 307.584 
L 255.182727 307.584 
L 255.182727 307.557974 
L 253.914545 307.557974 
z
" style="fill:#1f77b4;stroke:#000000;stroke-linejoin:miter;stroke-width:0.4;"/>
   </g>
   <g id="patch_146">
    <path clip-path="url(#pfbb9442694)" d="M 255.182727 307.584 
L 256.450909 307.584 
L 256.450909 307.549472 
L 255.182727 307.549472 
z
" style="fill:#1f77b4;stroke:#000000;stroke-linejoin:miter;stroke-width:0.4;"/>
   </g>
   <g id="patch_147">
    <path clip-path="url(#pfbb9442694)" d="M 256.450909 307.584 
L 257.719091 307.584 
L 257.719091 307.558577 
L 256.450909 307.558577 
z
" style="fill:#1f77b4;stroke:#000000;stroke-linejoin:miter;stroke-width:0.4;"/>
   </g>
   <g id="patch_148">
    <path clip-path="url(#pfbb9442694)" d="M 257.719091 307.584 
L 258.987273 307.584 
L 258.987273 307.530885 
L 257.719091 307.530885 
z
" style="fill:#1f77b4;stroke:#000000;stroke-linejoin:miter;stroke-width:0.4;"/>
   </g>
   <g id="patch_149">
    <path clip-path="url(#pfbb9442694)" d="M 258.987273 307.584 
L 260.255455 307.584 
L 260.255455 307.567569 
L 258.987273 307.567569 
z
" style="fill:#1f77b4;stroke:#000000;stroke-linejoin:miter;stroke-width:0.4;"/>
   </g>
   <g id="patch_150">
    <path clip-path="url(#pfbb9442694)" d="M 260.255455 307.584 
L 261.523636 307.584 
L 261.523636 307.570266 
L 260.255455 307.570266 
z
" style="fill:#1f77b4;stroke:#000000;stroke-linejoin:miter;stroke-width:0.4;"/>
   </g>
   <g id="patch_151">
    <path clip-path="url(#pfbb9442694)" d="M 261.523636 307.584 
L 262.791818 307.584 
L 262.791818 307.570767 
L 261.523636 307.570767 
z
" style="fill:#1f77b4;stroke:#000000;stroke-linejoin:miter;stroke-width:0.4;"/>
   </g>
   <g id="patch_152">
    <path clip-path="url(#pfbb9442694)" d="M 262.791818 307.584 
L 264.06 307.584 
L 264.06 307.571585 
L 262.791818 307.571585 
z
" style="fill:#1f77b4;stroke:#000000;stroke-linejoin:miter;stroke-width:0.4;"/>
   </g>
   <g id="patch_153">
    <path clip-path="url(#pfbb9442694)" d="M 264.06 307.584 
L 265.328182 307.584 
L 265.328182 307.570563 
L 264.06 307.570563 
z
" style="fill:#1f77b4;stroke:#000000;stroke-linejoin:miter;stroke-width:0.4;"/>
   </g>
   <g id="patch_154">
    <path clip-path="url(#pfbb9442694)" d="M 265.328182 307.584 
L 266.596364 307.584 
L 266.596364 307.570379 
L 265.328182 307.570379 
z
" style="fill:#1f77b4;stroke:#000000;stroke-linejoin:miter;stroke-width:0.4;"/>
   </g>
   <g id="patch_155">
    <path clip-path="url(#pfbb9442694)" d="M 266.596364 307.584 
L 267.864545 307.584 
L 267.864545 307.570839 
L 266.596364 307.570839 
z
" style="fill:#1f77b4;stroke:#000000;stroke-linejoin:miter;stroke-width:0.4;"/>
   </g>
   <g id="patch_156">
    <path clip-path="url(#pfbb9442694)" d="M 267.864545 307.584 
L 269.132727 307.584 
L 269.132727 307.563318 
L 267.864545 307.563318 
z
" style="fill:#1f77b4;stroke:#000000;stroke-linejoin:miter;stroke-width:0.4;"/>
   </g>
   <g id="patch_157">
    <path clip-path="url(#pfbb9442694)" d="M 269.132727 307.584 
L 270.400909 307.584 
L 270.400909 307.56483 
L 269.132727 307.56483 
z
" style="fill:#1f77b4;stroke:#000000;stroke-linejoin:miter;stroke-width:0.4;"/>
   </g>
   <g id="patch_158">
    <path clip-path="url(#pfbb9442694)" d="M 270.400909 307.584 
L 271.669091 307.584 
L 271.669091 307.569827 
L 270.400909 307.569827 
z
" style="fill:#1f77b4;stroke:#000000;stroke-linejoin:miter;stroke-width:0.4;"/>
   </g>
   <g id="patch_159">
    <path clip-path="url(#pfbb9442694)" d="M 271.669091 307.584 
L 272.937273 307.584 
L 272.937273 307.562521 
L 271.669091 307.562521 
z
" style="fill:#1f77b4;stroke:#000000;stroke-linejoin:miter;stroke-width:0.4;"/>
   </g>
   <g id="patch_160">
    <path clip-path="url(#pfbb9442694)" d="M 272.937273 307.584 
L 274.205455 307.584 
L 274.205455 307.548041 
L 272.937273 307.548041 
z
" style="fill:#1f77b4;stroke:#000000;stroke-linejoin:miter;stroke-width:0.4;"/>
   </g>
   <g id="patch_161">
    <path clip-path="url(#pfbb9442694)" d="M 274.205455 307.584 
L 275.473636 307.584 
L 275.473636 307.5433 
L 274.205455 307.5433 
z
" style="fill:#1f77b4;stroke:#000000;stroke-linejoin:miter;stroke-width:0.4;"/>
   </g>
   <g id="patch_162">
    <path clip-path="url(#pfbb9442694)" d="M 275.473636 307.584 
L 276.741818 307.584 
L 276.741818 307.575151 
L 275.473636 307.575151 
z
" style="fill:#1f77b4;stroke:#000000;stroke-linejoin:miter;stroke-width:0.4;"/>
   </g>
   <g id="patch_163">
    <path clip-path="url(#pfbb9442694)" d="M 276.741818 307.584 
L 278.01 307.584 
L 278.01 307.575733 
L 276.741818 307.575733 
z
" style="fill:#1f77b4;stroke:#000000;stroke-linejoin:miter;stroke-width:0.4;"/>
   </g>
   <g id="patch_164">
    <path clip-path="url(#pfbb9442694)" d="M 278.01 307.584 
L 279.278182 307.584 
L 279.278182 307.576714 
L 278.01 307.576714 
z
" style="fill:#1f77b4;stroke:#000000;stroke-linejoin:miter;stroke-width:0.4;"/>
   </g>
   <g id="patch_165">
    <path clip-path="url(#pfbb9442694)" d="M 279.278182 307.584 
L 280.546364 307.584 
L 280.546364 307.577797 
L 279.278182 307.577797 
z
" style="fill:#1f77b4;stroke:#000000;stroke-linejoin:miter;stroke-width:0.4;"/>
   </g>
   <g id="patch_166">
    <path clip-path="url(#pfbb9442694)" d="M 280.546364 307.584 
L 281.814545 307.584 
L 281.814545 307.578114 
L 280.546364 307.578114 
z
" style="fill:#1f77b4;stroke:#000000;stroke-linejoin:miter;stroke-width:0.4;"/>
   </g>
   <g id="patch_167">
    <path clip-path="url(#pfbb9442694)" d="M 281.814545 307.584 
L 283.082727 307.584 
L 283.082727 307.578707 
L 281.814545 307.578707 
z
" style="fill:#1f77b4;stroke:#000000;stroke-linejoin:miter;stroke-width:0.4;"/>
   </g>
   <g id="patch_168">
    <path clip-path="url(#pfbb9442694)" d="M 283.082727 307.584 
L 284.350909 307.584 
L 284.350909 307.576776 
L 283.082727 307.576776 
z
" style="fill:#1f77b4;stroke:#000000;stroke-linejoin:miter;stroke-width:0.4;"/>
   </g>
   <g id="patch_169">
    <path clip-path="url(#pfbb9442694)" d="M 284.350909 307.584 
L 285.619091 307.584 
L 285.619091 307.579228 
L 284.350909 307.579228 
z
" style="fill:#1f77b4;stroke:#000000;stroke-linejoin:miter;stroke-width:0.4;"/>
   </g>
   <g id="patch_170">
    <path clip-path="url(#pfbb9442694)" d="M 285.619091 307.584 
L 286.887273 307.584 
L 286.887273 307.579013 
L 285.619091 307.579013 
z
" style="fill:#1f77b4;stroke:#000000;stroke-linejoin:miter;stroke-width:0.4;"/>
   </g>
   <g id="patch_171">
    <path clip-path="url(#pfbb9442694)" d="M 286.887273 307.584 
L 288.155455 307.584 
L 288.155455 307.579013 
L 286.887273 307.579013 
z
" style="fill:#1f77b4;stroke:#000000;stroke-linejoin:miter;stroke-width:0.4;"/>
   </g>
   <g id="patch_172">
    <path clip-path="url(#pfbb9442694)" d="M 288.155455 307.584 
L 289.423636 307.584 
L 289.423636 307.577287 
L 288.155455 307.577287 
z
" style="fill:#1f77b4;stroke:#000000;stroke-linejoin:miter;stroke-width:0.4;"/>
   </g>
   <g id="patch_173">
    <path clip-path="url(#pfbb9442694)" d="M 289.423636 307.584 
L 290.691818 307.584 
L 290.691818 307.572402 
L 289.423636 307.572402 
z
" style="fill:#1f77b4;stroke:#000000;stroke-linejoin:miter;stroke-width:0.4;"/>
   </g>
   <g id="patch_174">
    <path clip-path="url(#pfbb9442694)" d="M 290.691818 307.584 
L 291.96 307.584 
L 291.96 307.56761 
L 290.691818 307.56761 
z
" style="fill:#1f77b4;stroke:#000000;stroke-linejoin:miter;stroke-width:0.4;"/>
   </g>
   <g id="patch_175">
    <path clip-path="url(#pfbb9442694)" d="M 291.96 307.584 
L 293.228182 307.584 
L 293.228182 307.578186 
L 291.96 307.578186 
z
" style="fill:#1f77b4;stroke:#000000;stroke-linejoin:miter;stroke-width:0.4;"/>
   </g>
   <g id="patch_176">
    <path clip-path="url(#pfbb9442694)" d="M 293.228182 307.584 
L 294.496364 307.584 
L 294.496364 307.575263 
L 293.228182 307.575263 
z
" style="fill:#1f77b4;stroke:#000000;stroke-linejoin:miter;stroke-width:0.4;"/>
   </g>
   <g id="patch_177">
    <path clip-path="url(#pfbb9442694)" d="M 294.496364 307.584 
L 295.764545 307.584 
L 295.764545 307.577603 
L 294.496364 307.577603 
z
" style="fill:#1f77b4;stroke:#000000;stroke-linejoin:miter;stroke-width:0.4;"/>
   </g>
   <g id="patch_178">
    <path clip-path="url(#pfbb9442694)" d="M 295.764545 307.584 
L 297.032727 307.584 
L 297.032727 307.577143 
L 295.764545 307.577143 
z
" style="fill:#1f77b4;stroke:#000000;stroke-linejoin:miter;stroke-width:0.4;"/>
   </g>
   <g id="patch_179">
    <path clip-path="url(#pfbb9442694)" d="M 297.032727 307.584 
L 298.300909 307.584 
L 298.300909 307.576673 
L 297.032727 307.576673 
z
" style="fill:#1f77b4;stroke:#000000;stroke-linejoin:miter;stroke-width:0.4;"/>
   </g>
   <g id="patch_180">
    <path clip-path="url(#pfbb9442694)" d="M 298.300909 307.584 
L 299.569091 307.584 
L 299.569091 307.576949 
L 298.300909 307.576949 
z
" style="fill:#1f77b4;stroke:#000000;stroke-linejoin:miter;stroke-width:0.4;"/>
   </g>
   <g id="patch_181">
    <path clip-path="url(#pfbb9442694)" d="M 299.569091 307.584 
L 300.837273 307.584 
L 300.837273 307.576224 
L 299.569091 307.576224 
z
" style="fill:#1f77b4;stroke:#000000;stroke-linejoin:miter;stroke-width:0.4;"/>
   </g>
   <g id="patch_182">
    <path clip-path="url(#pfbb9442694)" d="M 300.837273 307.584 
L 302.105455 307.584 
L 302.105455 307.576214 
L 300.837273 307.576214 
z
" style="fill:#1f77b4;stroke:#000000;stroke-linejoin:miter;stroke-width:0.4;"/>
   </g>
   <g id="patch_183">
    <path clip-path="url(#pfbb9442694)" d="M 302.105455 307.584 
L 303.373636 307.584 
L 303.373636 307.575345 
L 302.105455 307.575345 
z
" style="fill:#1f77b4;stroke:#000000;stroke-linejoin:miter;stroke-width:0.4;"/>
   </g>
   <g id="patch_184">
    <path clip-path="url(#pfbb9442694)" d="M 303.373636 307.584 
L 304.641818 307.584 
L 304.641818 307.575927 
L 303.373636 307.575927 
z
" style="fill:#1f77b4;stroke:#000000;stroke-linejoin:miter;stroke-width:0.4;"/>
   </g>
   <g id="patch_185">
    <path clip-path="url(#pfbb9442694)" d="M 304.641818 307.584 
L 305.91 307.584 
L 305.91 307.575345 
L 304.641818 307.575345 
z
" style="fill:#1f77b4;stroke:#000000;stroke-linejoin:miter;stroke-width:0.4;"/>
   </g>
   <g id="patch_186">
    <path clip-path="url(#pfbb9442694)" d="M 305.91 307.584 
L 307.178182 307.584 
L 307.178182 307.57419 
L 305.91 307.57419 
z
" style="fill:#1f77b4;stroke:#000000;stroke-linejoin:miter;stroke-width:0.4;"/>
   </g>
   <g id="patch_187">
    <path clip-path="url(#pfbb9442694)" d="M 307.178182 307.584 
L 308.446364 307.584 
L 308.446364 307.575417 
L 307.178182 307.575417 
z
" style="fill:#1f77b4;stroke:#000000;stroke-linejoin:miter;stroke-width:0.4;"/>
   </g>
   <g id="patch_188">
    <path clip-path="url(#pfbb9442694)" d="M 308.446364 307.584 
L 309.714545 307.584 
L 309.714545 307.57466 
L 308.446364 307.57466 
z
" style="fill:#1f77b4;stroke:#000000;stroke-linejoin:miter;stroke-width:0.4;"/>
   </g>
   <g id="patch_189">
    <path clip-path="url(#pfbb9442694)" d="M 309.714545 307.584 
L 310.982727 307.584 
L 310.982727 307.576336 
L 309.714545 307.576336 
z
" style="fill:#1f77b4;stroke:#000000;stroke-linejoin:miter;stroke-width:0.4;"/>
   </g>
   <g id="patch_190">
    <path clip-path="url(#pfbb9442694)" d="M 310.982727 307.584 
L 312.250909 307.584 
L 312.250909 307.575335 
L 310.982727 307.575335 
z
" style="fill:#1f77b4;stroke:#000000;stroke-linejoin:miter;stroke-width:0.4;"/>
   </g>
   <g id="patch_191">
    <path clip-path="url(#pfbb9442694)" d="M 312.250909 307.584 
L 313.519091 307.584 
L 313.519091 307.573485 
L 312.250909 307.573485 
z
" style="fill:#1f77b4;stroke:#000000;stroke-linejoin:miter;stroke-width:0.4;"/>
   </g>
   <g id="patch_192">
    <path clip-path="url(#pfbb9442694)" d="M 313.519091 307.584 
L 314.787273 307.584 
L 314.787273 307.577317 
L 313.519091 307.577317 
z
" style="fill:#1f77b4;stroke:#000000;stroke-linejoin:miter;stroke-width:0.4;"/>
   </g>
   <g id="patch_193">
    <path clip-path="url(#pfbb9442694)" d="M 314.787273 307.584 
L 316.055455 307.584 
L 316.055455 307.578513 
L 314.787273 307.578513 
z
" style="fill:#1f77b4;stroke:#000000;stroke-linejoin:miter;stroke-width:0.4;"/>
   </g>
   <g id="patch_194">
    <path clip-path="url(#pfbb9442694)" d="M 316.055455 307.584 
L 317.323636 307.584 
L 317.323636 307.578829 
L 316.055455 307.578829 
z
" style="fill:#1f77b4;stroke:#000000;stroke-linejoin:miter;stroke-width:0.4;"/>
   </g>
   <g id="patch_195">
    <path clip-path="url(#pfbb9442694)" d="M 317.323636 307.584 
L 318.591818 307.584 
L 318.591818 307.579391 
L 317.323636 307.579391 
z
" style="fill:#1f77b4;stroke:#000000;stroke-linejoin:miter;stroke-width:0.4;"/>
   </g>
   <g id="patch_196">
    <path clip-path="url(#pfbb9442694)" d="M 318.591818 307.584 
L 319.86 307.584 
L 319.86 307.579575 
L 318.591818 307.579575 
z
" style="fill:#1f77b4;stroke:#000000;stroke-linejoin:miter;stroke-width:0.4;"/>
   </g>
   <g id="patch_197">
    <path clip-path="url(#pfbb9442694)" d="M 319.86 307.584 
L 321.128182 307.584 
L 321.128182 307.58025 
L 319.86 307.58025 
z
" style="fill:#1f77b4;stroke:#000000;stroke-linejoin:miter;stroke-width:0.4;"/>
   </g>
   <g id="patch_198">
    <path clip-path="url(#pfbb9442694)" d="M 321.128182 307.584 
L 322.396364 307.584 
L 322.396364 307.58025 
L 321.128182 307.58025 
z
" style="fill:#1f77b4;stroke:#000000;stroke-linejoin:miter;stroke-width:0.4;"/>
   </g>
   <g id="patch_199">
    <path clip-path="url(#pfbb9442694)" d="M 322.396364 307.584 
L 323.664545 307.584 
L 323.664545 307.580659 
L 322.396364 307.580659 
z
" style="fill:#1f77b4;stroke:#000000;stroke-linejoin:miter;stroke-width:0.4;"/>
   </g>
   <g id="patch_200">
    <path clip-path="url(#pfbb9442694)" d="M 323.664545 307.584 
L 324.932727 307.584 
L 324.932727 307.580587 
L 323.664545 307.580587 
z
" style="fill:#1f77b4;stroke:#000000;stroke-linejoin:miter;stroke-width:0.4;"/>
   </g>
   <g id="patch_201">
    <path clip-path="url(#pfbb9442694)" d="M 324.932727 307.584 
L 326.200909 307.584 
L 326.200909 307.581026 
L 324.932727 307.581026 
z
" style="fill:#1f77b4;stroke:#000000;stroke-linejoin:miter;stroke-width:0.4;"/>
   </g>
   <g id="patch_202">
    <path clip-path="url(#pfbb9442694)" d="M 326.200909 307.584 
L 327.469091 307.584 
L 327.469091 307.580883 
L 326.200909 307.580883 
z
" style="fill:#1f77b4;stroke:#000000;stroke-linejoin:miter;stroke-width:0.4;"/>
   </g>
   <g id="patch_203">
    <path clip-path="url(#pfbb9442694)" d="M 327.469091 307.584 
L 328.737273 307.584 
L 328.737273 307.580189 
L 327.469091 307.580189 
z
" style="fill:#1f77b4;stroke:#000000;stroke-linejoin:miter;stroke-width:0.4;"/>
   </g>
   <g id="patch_204">
    <path clip-path="url(#pfbb9442694)" d="M 328.737273 307.584 
L 330.005455 307.584 
L 330.005455 307.580362 
L 328.737273 307.580362 
z
" style="fill:#1f77b4;stroke:#000000;stroke-linejoin:miter;stroke-width:0.4;"/>
   </g>
   <g id="patch_205">
    <path clip-path="url(#pfbb9442694)" d="M 330.005455 307.584 
L 331.273636 307.584 
L 331.273636 307.569439 
L 330.005455 307.569439 
z
" style="fill:#1f77b4;stroke:#000000;stroke-linejoin:miter;stroke-width:0.4;"/>
   </g>
   <g id="patch_206">
    <path clip-path="url(#pfbb9442694)" d="M 331.273636 307.584 
L 332.541818 307.584 
L 332.541818 307.579688 
L 331.273636 307.579688 
z
" style="fill:#1f77b4;stroke:#000000;stroke-linejoin:miter;stroke-width:0.4;"/>
   </g>
   <g id="patch_207">
    <path clip-path="url(#pfbb9442694)" d="M 332.541818 307.584 
L 333.81 307.584 
L 333.81 307.580342 
L 332.541818 307.580342 
z
" style="fill:#1f77b4;stroke:#000000;stroke-linejoin:miter;stroke-width:0.4;"/>
   </g>
   <g id="patch_208">
    <path clip-path="url(#pfbb9442694)" d="M 333.81 307.584 
L 335.078182 307.584 
L 335.078182 307.580904 
L 333.81 307.580904 
z
" style="fill:#1f77b4;stroke:#000000;stroke-linejoin:miter;stroke-width:0.4;"/>
   </g>
   <g id="patch_209">
    <path clip-path="url(#pfbb9442694)" d="M 335.078182 307.584 
L 336.346364 307.584 
L 336.346364 307.580945 
L 335.078182 307.580945 
z
" style="fill:#1f77b4;stroke:#000000;stroke-linejoin:miter;stroke-width:0.4;"/>
   </g>
   <g id="patch_210">
    <path clip-path="url(#pfbb9442694)" d="M 336.346364 307.584 
L 337.614545 307.584 
L 337.614545 307.580863 
L 336.346364 307.580863 
z
" style="fill:#1f77b4;stroke:#000000;stroke-linejoin:miter;stroke-width:0.4;"/>
   </g>
   <g id="patch_211">
    <path clip-path="url(#pfbb9442694)" d="M 337.614545 307.584 
L 338.882727 307.584 
L 338.882727 307.580832 
L 337.614545 307.580832 
z
" style="fill:#1f77b4;stroke:#000000;stroke-linejoin:miter;stroke-width:0.4;"/>
   </g>
   <g id="patch_212">
    <path clip-path="url(#pfbb9442694)" d="M 338.882727 307.584 
L 340.150909 307.584 
L 340.150909 307.580914 
L 338.882727 307.580914 
z
" style="fill:#1f77b4;stroke:#000000;stroke-linejoin:miter;stroke-width:0.4;"/>
   </g>
   <g id="patch_213">
    <path clip-path="url(#pfbb9442694)" d="M 340.150909 307.584 
L 341.419091 307.584 
L 341.419091 307.581026 
L 340.150909 307.581026 
z
" style="fill:#1f77b4;stroke:#000000;stroke-linejoin:miter;stroke-width:0.4;"/>
   </g>
   <g id="patch_214">
    <path clip-path="url(#pfbb9442694)" d="M 341.419091 307.584 
L 342.687273 307.584 
L 342.687273 307.580832 
L 341.419091 307.580832 
z
" style="fill:#1f77b4;stroke:#000000;stroke-linejoin:miter;stroke-width:0.4;"/>
   </g>
   <g id="patch_215">
    <path clip-path="url(#pfbb9442694)" d="M 342.687273 307.584 
L 343.955455 307.584 
L 343.955455 307.581047 
L 342.687273 307.581047 
z
" style="fill:#1f77b4;stroke:#000000;stroke-linejoin:miter;stroke-width:0.4;"/>
   </g>
   <g id="patch_216">
    <path clip-path="url(#pfbb9442694)" d="M 343.955455 307.584 
L 345.223636 307.584 
L 345.223636 307.580607 
L 343.955455 307.580607 
z
" style="fill:#1f77b4;stroke:#000000;stroke-linejoin:miter;stroke-width:0.4;"/>
   </g>
   <g id="patch_217">
    <path clip-path="url(#pfbb9442694)" d="M 345.223636 307.584 
L 346.491818 307.584 
L 346.491818 307.580751 
L 345.223636 307.580751 
z
" style="fill:#1f77b4;stroke:#000000;stroke-linejoin:miter;stroke-width:0.4;"/>
   </g>
   <g id="patch_218">
    <path clip-path="url(#pfbb9442694)" d="M 346.491818 307.584 
L 347.76 307.584 
L 347.76 307.580434 
L 346.491818 307.580434 
z
" style="fill:#1f77b4;stroke:#000000;stroke-linejoin:miter;stroke-width:0.4;"/>
   </g>
   <g id="patch_219">
    <path clip-path="url(#pfbb9442694)" d="M 347.76 307.584 
L 349.028182 307.584 
L 349.028182 307.578911 
L 347.76 307.578911 
z
" style="fill:#1f77b4;stroke:#000000;stroke-linejoin:miter;stroke-width:0.4;"/>
   </g>
   <g id="patch_220">
    <path clip-path="url(#pfbb9442694)" d="M 349.028182 307.584 
L 350.296364 307.584 
L 350.296364 307.578809 
L 349.028182 307.578809 
z
" style="fill:#1f77b4;stroke:#000000;stroke-linejoin:miter;stroke-width:0.4;"/>
   </g>
   <g id="patch_221">
    <path clip-path="url(#pfbb9442694)" d="M 350.296364 307.584 
L 351.564545 307.584 
L 351.564545 307.579954 
L 350.296364 307.579954 
z
" style="fill:#1f77b4;stroke:#000000;stroke-linejoin:miter;stroke-width:0.4;"/>
   </g>
   <g id="patch_222">
    <path clip-path="url(#pfbb9442694)" d="M 351.564545 307.584 
L 352.832727 307.584 
L 352.832727 307.577971 
L 351.564545 307.577971 
z
" style="fill:#1f77b4;stroke:#000000;stroke-linejoin:miter;stroke-width:0.4;"/>
   </g>
   <g id="patch_223">
    <path clip-path="url(#pfbb9442694)" d="M 352.832727 307.584 
L 354.100909 307.584 
L 354.100909 307.579606 
L 352.832727 307.579606 
z
" style="fill:#1f77b4;stroke:#000000;stroke-linejoin:miter;stroke-width:0.4;"/>
   </g>
   <g id="patch_224">
    <path clip-path="url(#pfbb9442694)" d="M 354.100909 307.584 
L 355.369091 307.584 
L 355.369091 307.578799 
L 354.100909 307.578799 
z
" style="fill:#1f77b4;stroke:#000000;stroke-linejoin:miter;stroke-width:0.4;"/>
   </g>
   <g id="patch_225">
    <path clip-path="url(#pfbb9442694)" d="M 355.369091 307.584 
L 356.637273 307.584 
L 356.637273 307.577808 
L 355.369091 307.577808 
z
" style="fill:#1f77b4;stroke:#000000;stroke-linejoin:miter;stroke-width:0.4;"/>
   </g>
   <g id="patch_226">
    <path clip-path="url(#pfbb9442694)" d="M 356.637273 307.584 
L 357.905455 307.584 
L 357.905455 307.577654 
L 356.637273 307.577654 
z
" style="fill:#1f77b4;stroke:#000000;stroke-linejoin:miter;stroke-width:0.4;"/>
   </g>
   <g id="patch_227">
    <path clip-path="url(#pfbb9442694)" d="M 357.905455 307.584 
L 359.173636 307.584 
L 359.173636 307.576663 
L 357.905455 307.576663 
z
" style="fill:#1f77b4;stroke:#000000;stroke-linejoin:miter;stroke-width:0.4;"/>
   </g>
   <g id="patch_228">
    <path clip-path="url(#pfbb9442694)" d="M 359.173636 307.584 
L 360.441818 307.584 
L 360.441818 307.575713 
L 359.173636 307.575713 
z
" style="fill:#1f77b4;stroke:#000000;stroke-linejoin:miter;stroke-width:0.4;"/>
   </g>
   <g id="patch_229">
    <path clip-path="url(#pfbb9442694)" d="M 360.441818 307.584 
L 361.71 307.584 
L 361.71 307.573904 
L 360.441818 307.573904 
z
" style="fill:#1f77b4;stroke:#000000;stroke-linejoin:miter;stroke-width:0.4;"/>
   </g>
   <g id="patch_230">
    <path clip-path="url(#pfbb9442694)" d="M 361.71 307.584 
L 362.978182 307.584 
L 362.978182 307.573404 
L 361.71 307.573404 
z
" style="fill:#1f77b4;stroke:#000000;stroke-linejoin:miter;stroke-width:0.4;"/>
   </g>
   <g id="patch_231">
    <path clip-path="url(#pfbb9442694)" d="M 362.978182 307.584 
L 364.246364 307.584 
L 364.246364 307.572167 
L 362.978182 307.572167 
z
" style="fill:#1f77b4;stroke:#000000;stroke-linejoin:miter;stroke-width:0.4;"/>
   </g>
   <g id="patch_232">
    <path clip-path="url(#pfbb9442694)" d="M 364.246364 307.584 
L 365.514545 307.584 
L 365.514545 307.570696 
L 364.246364 307.570696 
z
" style="fill:#1f77b4;stroke:#000000;stroke-linejoin:miter;stroke-width:0.4;"/>
   </g>
   <g id="patch_233">
    <path clip-path="url(#pfbb9442694)" d="M 365.514545 307.584 
L 366.782727 307.584 
L 366.782727 307.567926 
L 365.514545 307.567926 
z
" style="fill:#1f77b4;stroke:#000000;stroke-linejoin:miter;stroke-width:0.4;"/>
   </g>
   <g id="patch_234">
    <path clip-path="url(#pfbb9442694)" d="M 366.782727 307.584 
L 368.050909 307.584 
L 368.050909 307.567446 
L 366.782727 307.567446 
z
" style="fill:#1f77b4;stroke:#000000;stroke-linejoin:miter;stroke-width:0.4;"/>
   </g>
   <g id="patch_235">
    <path clip-path="url(#pfbb9442694)" d="M 368.050909 307.584 
L 369.319091 307.584 
L 369.319091 307.56622 
L 368.050909 307.56622 
z
" style="fill:#1f77b4;stroke:#000000;stroke-linejoin:miter;stroke-width:0.4;"/>
   </g>
   <g id="patch_236">
    <path clip-path="url(#pfbb9442694)" d="M 369.319091 307.584 
L 370.587273 307.584 
L 370.587273 307.563533 
L 369.319091 307.563533 
z
" style="fill:#1f77b4;stroke:#000000;stroke-linejoin:miter;stroke-width:0.4;"/>
   </g>
   <g id="patch_237">
    <path clip-path="url(#pfbb9442694)" d="M 370.587273 307.584 
L 371.855455 307.584 
L 371.855455 307.562562 
L 370.587273 307.562562 
z
" style="fill:#1f77b4;stroke:#000000;stroke-linejoin:miter;stroke-width:0.4;"/>
   </g>
   <g id="patch_238">
    <path clip-path="url(#pfbb9442694)" d="M 371.855455 307.584 
L 373.123636 307.584 
L 373.123636 307.560559 
L 371.855455 307.560559 
z
" style="fill:#1f77b4;stroke:#000000;stroke-linejoin:miter;stroke-width:0.4;"/>
   </g>
   <g id="patch_239">
    <path clip-path="url(#pfbb9442694)" d="M 373.123636 307.584 
L 374.391818 307.584 
L 374.391818 307.558198 
L 373.123636 307.558198 
z
" style="fill:#1f77b4;stroke:#000000;stroke-linejoin:miter;stroke-width:0.4;"/>
   </g>
   <g id="patch_240">
    <path clip-path="url(#pfbb9442694)" d="M 374.391818 307.584 
L 375.66 307.584 
L 375.66 307.554591 
L 374.391818 307.554591 
z
" style="fill:#1f77b4;stroke:#000000;stroke-linejoin:miter;stroke-width:0.4;"/>
   </g>
   <g id="patch_241">
    <path clip-path="url(#pfbb9442694)" d="M 375.66 307.584 
L 376.928182 307.584 
L 376.928182 307.548144 
L 375.66 307.548144 
z
" style="fill:#1f77b4;stroke:#000000;stroke-linejoin:miter;stroke-width:0.4;"/>
   </g>
   <g id="patch_242">
    <path clip-path="url(#pfbb9442694)" d="M 376.928182 307.584 
L 378.196364 307.584 
L 378.196364 307.538436 
L 376.928182 307.538436 
z
" style="fill:#1f77b4;stroke:#000000;stroke-linejoin:miter;stroke-width:0.4;"/>
   </g>
   <g id="patch_243">
    <path clip-path="url(#pfbb9442694)" d="M 378.196364 307.584 
L 379.464545 307.584 
L 379.464545 307.526 
L 378.196364 307.526 
z
" style="fill:#1f77b4;stroke:#000000;stroke-linejoin:miter;stroke-width:0.4;"/>
   </g>
   <g id="patch_244">
    <path clip-path="url(#pfbb9442694)" d="M 379.464545 307.584 
L 380.732727 307.584 
L 380.732727 307.504726 
L 379.464545 307.504726 
z
" style="fill:#1f77b4;stroke:#000000;stroke-linejoin:miter;stroke-width:0.4;"/>
   </g>
   <g id="patch_245">
    <path clip-path="url(#pfbb9442694)" d="M 380.732727 307.584 
L 382.000909 307.584 
L 382.000909 307.472599 
L 380.732727 307.472599 
z
" style="fill:#1f77b4;stroke:#000000;stroke-linejoin:miter;stroke-width:0.4;"/>
   </g>
   <g id="patch_246">
    <path clip-path="url(#pfbb9442694)" d="M 382.000909 307.584 
L 383.269091 307.584 
L 383.269091 307.416357 
L 382.000909 307.416357 
z
" style="fill:#1f77b4;stroke:#000000;stroke-linejoin:miter;stroke-width:0.4;"/>
   </g>
   <g id="patch_247">
    <path clip-path="url(#pfbb9442694)" d="M 383.269091 307.584 
L 384.537273 307.584 
L 384.537273 307.330093 
L 383.269091 307.330093 
z
" style="fill:#1f77b4;stroke:#000000;stroke-linejoin:miter;stroke-width:0.4;"/>
   </g>
   <g id="patch_248">
    <path clip-path="url(#pfbb9442694)" d="M 384.537273 307.584 
L 385.805455 307.584 
L 385.805455 307.229973 
L 384.537273 307.229973 
z
" style="fill:#1f77b4;stroke:#000000;stroke-linejoin:miter;stroke-width:0.4;"/>
   </g>
   <g id="patch_249">
    <path clip-path="url(#pfbb9442694)" d="M 385.805455 307.584 
L 387.073636 307.584 
L 387.073636 307.060419 
L 385.805455 307.060419 
z
" style="fill:#1f77b4;stroke:#000000;stroke-linejoin:miter;stroke-width:0.4;"/>
   </g>
   <g id="patch_250">
    <path clip-path="url(#pfbb9442694)" d="M 387.073636 307.584 
L 388.341818 307.584 
L 388.341818 281.08174 
L 387.073636 281.08174 
z
" style="fill:#1f77b4;stroke:#000000;stroke-linejoin:miter;stroke-width:0.4;"/>
   </g>
   <g id="patch_251">
    <path clip-path="url(#pfbb9442694)" d="M 388.341818 307.584 
L 389.61 307.584 
L 389.61 306.974839 
L 388.341818 306.974839 
z
" style="fill:#1f77b4;stroke:#000000;stroke-linejoin:miter;stroke-width:0.4;"/>
   </g>
   <g id="patch_252">
    <path clip-path="url(#pfbb9442694)" d="M 389.61 307.584 
L 390.878182 307.584 
L 390.878182 307.023142 
L 389.61 307.023142 
z
" style="fill:#1f77b4;stroke:#000000;stroke-linejoin:miter;stroke-width:0.4;"/>
   </g>
   <g id="patch_253">
    <path clip-path="url(#pfbb9442694)" d="M 390.878182 307.584 
L 392.146364 307.584 
L 392.146364 307.009674 
L 390.878182 307.009674 
z
" style="fill:#1f77b4;stroke:#000000;stroke-linejoin:miter;stroke-width:0.4;"/>
   </g>
   <g id="patch_254">
    <path clip-path="url(#pfbb9442694)" d="M 392.146364 307.584 
L 393.414545 307.584 
L 393.414545 306.867893 
L 392.146364 306.867893 
z
" style="fill:#1f77b4;stroke:#000000;stroke-linejoin:miter;stroke-width:0.4;"/>
   </g>
   <g id="patch_255">
    <path clip-path="url(#pfbb9442694)" d="M 393.414545 307.584 
L 394.682727 307.584 
L 394.682727 306.600447 
L 393.414545 306.600447 
z
" style="fill:#1f77b4;stroke:#000000;stroke-linejoin:miter;stroke-width:0.4;"/>
   </g>
   <g id="patch_256">
    <path clip-path="url(#pfbb9442694)" d="M 394.682727 307.584 
L 395.950909 307.584 
L 395.950909 306.176301 
L 394.682727 306.176301 
z
" style="fill:#1f77b4;stroke:#000000;stroke-linejoin:miter;stroke-width:0.4;"/>
   </g>
   <g id="patch_257">
    <path clip-path="url(#pfbb9442694)" d="M 395.950909 307.584 
L 397.219091 307.584 
L 397.219091 304.52851 
L 395.950909 304.52851 
z
" style="fill:#1f77b4;stroke:#000000;stroke-linejoin:miter;stroke-width:0.4;"/>
   </g>
   <g id="patch_258">
    <path clip-path="url(#pfbb9442694)" d="M 397.219091 307.584 
L 398.487273 307.584 
L 398.487273 129.007183 
L 397.219091 129.007183 
z
" style="fill:#1f77b4;stroke:#000000;stroke-linejoin:miter;stroke-width:0.4;"/>
   </g>
   <g id="matplotlib.axis_1">
    <g id="xtick_1">
     <g id="line2d_1">
      <defs>
       <path d="M 0 0 
L 0 3.5 
" id="m39f4b0f4b7" style="stroke:#000000;stroke-width:0.8;"/>
      </defs>
      <g>
       <use style="stroke:#000000;stroke-width:0.8;" x="74.466818" xlink:href="#m39f4b0f4b7" y="307.584"/>
      </g>
     </g>
     <g id="text_1">
      <!-- 0 -->
      <g transform="translate(71.285568 322.182437)scale(0.1 -0.1)">
       <defs>
        <path d="M 31.78125 66.40625 
Q 24.171875 66.40625 20.328125 58.90625 
Q 16.5 51.421875 16.5 36.375 
Q 16.5 21.390625 20.328125 13.890625 
Q 24.171875 6.390625 31.78125 6.390625 
Q 39.453125 6.390625 43.28125 13.890625 
Q 47.125 21.390625 47.125 36.375 
Q 47.125 51.421875 43.28125 58.90625 
Q 39.453125 66.40625 31.78125 66.40625 
z
M 31.78125 74.21875 
Q 44.046875 74.21875 50.515625 64.515625 
Q 56.984375 54.828125 56.984375 36.375 
Q 56.984375 17.96875 50.515625 8.265625 
Q 44.046875 -1.421875 31.78125 -1.421875 
Q 19.53125 -1.421875 13.0625 8.265625 
Q 6.59375 17.96875 6.59375 36.375 
Q 6.59375 54.828125 13.0625 64.515625 
Q 19.53125 74.21875 31.78125 74.21875 
z
" id="DejaVuSans-48"/>
       </defs>
       <use xlink:href="#DejaVuSans-48"/>
      </g>
     </g>
    </g>
    <g id="xtick_2">
     <g id="line2d_2">
      <g>
       <use style="stroke:#000000;stroke-width:0.8;" x="137.875909" xlink:href="#m39f4b0f4b7" y="307.584"/>
      </g>
     </g>
     <g id="text_2">
      <!-- 50 -->
      <g transform="translate(131.513409 322.182437)scale(0.1 -0.1)">
       <defs>
        <path d="M 10.796875 72.90625 
L 49.515625 72.90625 
L 49.515625 64.59375 
L 19.828125 64.59375 
L 19.828125 46.734375 
Q 21.96875 47.46875 24.109375 47.828125 
Q 26.265625 48.1875 28.421875 48.1875 
Q 40.625 48.1875 47.75 41.5 
Q 54.890625 34.8125 54.890625 23.390625 
Q 54.890625 11.625 47.5625 5.09375 
Q 40.234375 -1.421875 26.90625 -1.421875 
Q 22.3125 -1.421875 17.546875 -0.640625 
Q 12.796875 0.140625 7.71875 1.703125 
L 7.71875 11.625 
Q 12.109375 9.234375 16.796875 8.0625 
Q 21.484375 6.890625 26.703125 6.890625 
Q 35.15625 6.890625 40.078125 11.328125 
Q 45.015625 15.765625 45.015625 23.390625 
Q 45.015625 31 40.078125 35.4375 
Q 35.15625 39.890625 26.703125 39.890625 
Q 22.75 39.890625 18.8125 39.015625 
Q 14.890625 38.140625 10.796875 36.28125 
z
" id="DejaVuSans-53"/>
       </defs>
       <use xlink:href="#DejaVuSans-53"/>
       <use x="63.623047" xlink:href="#DejaVuSans-48"/>
      </g>
     </g>
    </g>
    <g id="xtick_3">
     <g id="line2d_3">
      <g>
       <use style="stroke:#000000;stroke-width:0.8;" x="201.285" xlink:href="#m39f4b0f4b7" y="307.584"/>
      </g>
     </g>
     <g id="text_3">
      <!-- 100 -->
      <g transform="translate(191.74125 322.182437)scale(0.1 -0.1)">
       <defs>
        <path d="M 12.40625 8.296875 
L 28.515625 8.296875 
L 28.515625 63.921875 
L 10.984375 60.40625 
L 10.984375 69.390625 
L 28.421875 72.90625 
L 38.28125 72.90625 
L 38.28125 8.296875 
L 54.390625 8.296875 
L 54.390625 0 
L 12.40625 0 
z
" id="DejaVuSans-49"/>
       </defs>
       <use xlink:href="#DejaVuSans-49"/>
       <use x="63.623047" xlink:href="#DejaVuSans-48"/>
       <use x="127.246094" xlink:href="#DejaVuSans-48"/>
      </g>
     </g>
    </g>
    <g id="xtick_4">
     <g id="line2d_4">
      <g>
       <use style="stroke:#000000;stroke-width:0.8;" x="264.694091" xlink:href="#m39f4b0f4b7" y="307.584"/>
      </g>
     </g>
     <g id="text_4">
      <!-- 150 -->
      <g transform="translate(255.150341 322.182437)scale(0.1 -0.1)">
       <use xlink:href="#DejaVuSans-49"/>
       <use x="63.623047" xlink:href="#DejaVuSans-53"/>
       <use x="127.246094" xlink:href="#DejaVuSans-48"/>
      </g>
     </g>
    </g>
    <g id="xtick_5">
     <g id="line2d_5">
      <g>
       <use style="stroke:#000000;stroke-width:0.8;" x="328.103182" xlink:href="#m39f4b0f4b7" y="307.584"/>
      </g>
     </g>
     <g id="text_5">
      <!-- 200 -->
      <g transform="translate(318.559432 322.182437)scale(0.1 -0.1)">
       <defs>
        <path d="M 19.1875 8.296875 
L 53.609375 8.296875 
L 53.609375 0 
L 7.328125 0 
L 7.328125 8.296875 
Q 12.9375 14.109375 22.625 23.890625 
Q 32.328125 33.6875 34.8125 36.53125 
Q 39.546875 41.84375 41.421875 45.53125 
Q 43.3125 49.21875 43.3125 52.78125 
Q 43.3125 58.59375 39.234375 62.25 
Q 35.15625 65.921875 28.609375 65.921875 
Q 23.96875 65.921875 18.8125 64.3125 
Q 13.671875 62.703125 7.8125 59.421875 
L 7.8125 69.390625 
Q 13.765625 71.78125 18.9375 73 
Q 24.125 74.21875 28.421875 74.21875 
Q 39.75 74.21875 46.484375 68.546875 
Q 53.21875 62.890625 53.21875 53.421875 
Q 53.21875 48.921875 51.53125 44.890625 
Q 49.859375 40.875 45.40625 35.40625 
Q 44.1875 33.984375 37.640625 27.21875 
Q 31.109375 20.453125 19.1875 8.296875 
z
" id="DejaVuSans-50"/>
       </defs>
       <use xlink:href="#DejaVuSans-50"/>
       <use x="63.623047" xlink:href="#DejaVuSans-48"/>
       <use x="127.246094" xlink:href="#DejaVuSans-48"/>
      </g>
     </g>
    </g>
    <g id="xtick_6">
     <g id="line2d_6">
      <g>
       <use style="stroke:#000000;stroke-width:0.8;" x="391.512273" xlink:href="#m39f4b0f4b7" y="307.584"/>
      </g>
     </g>
     <g id="text_6">
      <!-- 250 -->
      <g transform="translate(381.968523 322.182437)scale(0.1 -0.1)">
       <use xlink:href="#DejaVuSans-50"/>
       <use x="63.623047" xlink:href="#DejaVuSans-53"/>
       <use x="127.246094" xlink:href="#DejaVuSans-48"/>
      </g>
     </g>
    </g>
    <g id="text_7">
     <!-- Symbols -->
     <g transform="translate(214.92875 335.860562)scale(0.1 -0.1)">
      <defs>
       <path d="M 53.515625 70.515625 
L 53.515625 60.890625 
Q 47.90625 63.578125 42.921875 64.890625 
Q 37.9375 66.21875 33.296875 66.21875 
Q 25.25 66.21875 20.875 63.09375 
Q 16.5 59.96875 16.5 54.203125 
Q 16.5 49.359375 19.40625 46.890625 
Q 22.3125 44.4375 30.421875 42.921875 
L 36.375 41.703125 
Q 47.40625 39.59375 52.65625 34.296875 
Q 57.90625 29 57.90625 20.125 
Q 57.90625 9.515625 50.796875 4.046875 
Q 43.703125 -1.421875 29.984375 -1.421875 
Q 24.8125 -1.421875 18.96875 -0.25 
Q 13.140625 0.921875 6.890625 3.21875 
L 6.890625 13.375 
Q 12.890625 10.015625 18.65625 8.296875 
Q 24.421875 6.59375 29.984375 6.59375 
Q 38.421875 6.59375 43.015625 9.90625 
Q 47.609375 13.234375 47.609375 19.390625 
Q 47.609375 24.75 44.3125 27.78125 
Q 41.015625 30.8125 33.5 32.328125 
L 27.484375 33.5 
Q 16.453125 35.6875 11.515625 40.375 
Q 6.59375 45.0625 6.59375 53.421875 
Q 6.59375 63.09375 13.40625 68.65625 
Q 20.21875 74.21875 32.171875 74.21875 
Q 37.3125 74.21875 42.625 73.28125 
Q 47.953125 72.359375 53.515625 70.515625 
z
" id="DejaVuSans-83"/>
       <path d="M 32.171875 -5.078125 
Q 28.375 -14.84375 24.75 -17.8125 
Q 21.140625 -20.796875 15.09375 -20.796875 
L 7.90625 -20.796875 
L 7.90625 -13.28125 
L 13.1875 -13.28125 
Q 16.890625 -13.28125 18.9375 -11.515625 
Q 21 -9.765625 23.484375 -3.21875 
L 25.09375 0.875 
L 2.984375 54.6875 
L 12.5 54.6875 
L 29.59375 11.921875 
L 46.6875 54.6875 
L 56.203125 54.6875 
z
" id="DejaVuSans-121"/>
       <path d="M 52 44.1875 
Q 55.375 50.25 60.0625 53.125 
Q 64.75 56 71.09375 56 
Q 79.640625 56 84.28125 50.015625 
Q 88.921875 44.046875 88.921875 33.015625 
L 88.921875 0 
L 79.890625 0 
L 79.890625 32.71875 
Q 79.890625 40.578125 77.09375 44.375 
Q 74.3125 48.1875 68.609375 48.1875 
Q 61.625 48.1875 57.5625 43.546875 
Q 53.515625 38.921875 53.515625 30.90625 
L 53.515625 0 
L 44.484375 0 
L 44.484375 32.71875 
Q 44.484375 40.625 41.703125 44.40625 
Q 38.921875 48.1875 33.109375 48.1875 
Q 26.21875 48.1875 22.15625 43.53125 
Q 18.109375 38.875 18.109375 30.90625 
L 18.109375 0 
L 9.078125 0 
L 9.078125 54.6875 
L 18.109375 54.6875 
L 18.109375 46.1875 
Q 21.1875 51.21875 25.484375 53.609375 
Q 29.78125 56 35.6875 56 
Q 41.65625 56 45.828125 52.96875 
Q 50 49.953125 52 44.1875 
z
" id="DejaVuSans-109"/>
       <path d="M 48.6875 27.296875 
Q 48.6875 37.203125 44.609375 42.84375 
Q 40.53125 48.484375 33.40625 48.484375 
Q 26.265625 48.484375 22.1875 42.84375 
Q 18.109375 37.203125 18.109375 27.296875 
Q 18.109375 17.390625 22.1875 11.75 
Q 26.265625 6.109375 33.40625 6.109375 
Q 40.53125 6.109375 44.609375 11.75 
Q 48.6875 17.390625 48.6875 27.296875 
z
M 18.109375 46.390625 
Q 20.953125 51.265625 25.265625 53.625 
Q 29.59375 56 35.59375 56 
Q 45.5625 56 51.78125 48.09375 
Q 58.015625 40.1875 58.015625 27.296875 
Q 58.015625 14.40625 51.78125 6.484375 
Q 45.5625 -1.421875 35.59375 -1.421875 
Q 29.59375 -1.421875 25.265625 0.953125 
Q 20.953125 3.328125 18.109375 8.203125 
L 18.109375 0 
L 9.078125 0 
L 9.078125 75.984375 
L 18.109375 75.984375 
z
" id="DejaVuSans-98"/>
       <path d="M 30.609375 48.390625 
Q 23.390625 48.390625 19.1875 42.75 
Q 14.984375 37.109375 14.984375 27.296875 
Q 14.984375 17.484375 19.15625 11.84375 
Q 23.34375 6.203125 30.609375 6.203125 
Q 37.796875 6.203125 41.984375 11.859375 
Q 46.1875 17.53125 46.1875 27.296875 
Q 46.1875 37.015625 41.984375 42.703125 
Q 37.796875 48.390625 30.609375 48.390625 
z
M 30.609375 56 
Q 42.328125 56 49.015625 48.375 
Q 55.71875 40.765625 55.71875 27.296875 
Q 55.71875 13.875 49.015625 6.21875 
Q 42.328125 -1.421875 30.609375 -1.421875 
Q 18.84375 -1.421875 12.171875 6.21875 
Q 5.515625 13.875 5.515625 27.296875 
Q 5.515625 40.765625 12.171875 48.375 
Q 18.84375 56 30.609375 56 
z
" id="DejaVuSans-111"/>
       <path d="M 9.421875 75.984375 
L 18.40625 75.984375 
L 18.40625 0 
L 9.421875 0 
z
" id="DejaVuSans-108"/>
       <path d="M 44.28125 53.078125 
L 44.28125 44.578125 
Q 40.484375 46.53125 36.375 47.5 
Q 32.28125 48.484375 27.875 48.484375 
Q 21.1875 48.484375 17.84375 46.4375 
Q 14.5 44.390625 14.5 40.28125 
Q 14.5 37.15625 16.890625 35.375 
Q 19.28125 33.59375 26.515625 31.984375 
L 29.59375 31.296875 
Q 39.15625 29.25 43.1875 25.515625 
Q 47.21875 21.78125 47.21875 15.09375 
Q 47.21875 7.46875 41.1875 3.015625 
Q 35.15625 -1.421875 24.609375 -1.421875 
Q 20.21875 -1.421875 15.453125 -0.5625 
Q 10.6875 0.296875 5.421875 2 
L 5.421875 11.28125 
Q 10.40625 8.6875 15.234375 7.390625 
Q 20.0625 6.109375 24.8125 6.109375 
Q 31.15625 6.109375 34.5625 8.28125 
Q 37.984375 10.453125 37.984375 14.40625 
Q 37.984375 18.0625 35.515625 20.015625 
Q 33.0625 21.96875 24.703125 23.78125 
L 21.578125 24.515625 
Q 13.234375 26.265625 9.515625 29.90625 
Q 5.8125 33.546875 5.8125 39.890625 
Q 5.8125 47.609375 11.28125 51.796875 
Q 16.75 56 26.8125 56 
Q 31.78125 56 36.171875 55.265625 
Q 40.578125 54.546875 44.28125 53.078125 
z
" id="DejaVuSans-115"/>
      </defs>
      <use xlink:href="#DejaVuSans-83"/>
      <use x="63.476562" xlink:href="#DejaVuSans-121"/>
      <use x="122.65625" xlink:href="#DejaVuSans-109"/>
      <use x="220.068359" xlink:href="#DejaVuSans-98"/>
      <use x="283.544922" xlink:href="#DejaVuSans-111"/>
      <use x="344.726562" xlink:href="#DejaVuSans-108"/>
      <use x="372.509766" xlink:href="#DejaVuSans-115"/>
     </g>
    </g>
   </g>
   <g id="matplotlib.axis_2">
    <g id="ytick_1">
     <g id="line2d_7">
      <defs>
       <path d="M 0 0 
L -3.5 0 
" id="md5e1b40163" style="stroke:#000000;stroke-width:0.8;"/>
      </defs>
      <g>
       <use style="stroke:#000000;stroke-width:0.8;" x="57.6" xlink:href="#md5e1b40163" y="307.584"/>
      </g>
     </g>
     <g id="text_8">
      <!-- 0.0 -->
      <g transform="translate(34.696875 311.383219)scale(0.1 -0.1)">
       <defs>
        <path d="M 10.6875 12.40625 
L 21 12.40625 
L 21 0 
L 10.6875 0 
z
" id="DejaVuSans-46"/>
       </defs>
       <use xlink:href="#DejaVuSans-48"/>
       <use x="63.623047" xlink:href="#DejaVuSans-46"/>
       <use x="95.410156" xlink:href="#DejaVuSans-48"/>
      </g>
     </g>
    </g>
    <g id="ytick_2">
     <g id="line2d_8">
      <g>
       <use style="stroke:#000000;stroke-width:0.8;" x="57.6" xlink:href="#md5e1b40163" y="256.491919"/>
      </g>
     </g>
     <g id="text_9">
      <!-- 0.5 -->
      <g transform="translate(34.696875 260.291138)scale(0.1 -0.1)">
       <use xlink:href="#DejaVuSans-48"/>
       <use x="63.623047" xlink:href="#DejaVuSans-46"/>
       <use x="95.410156" xlink:href="#DejaVuSans-53"/>
      </g>
     </g>
    </g>
    <g id="ytick_3">
     <g id="line2d_9">
      <g>
       <use style="stroke:#000000;stroke-width:0.8;" x="57.6" xlink:href="#md5e1b40163" y="205.399838"/>
      </g>
     </g>
     <g id="text_10">
      <!-- 1.0 -->
      <g transform="translate(34.696875 209.199056)scale(0.1 -0.1)">
       <use xlink:href="#DejaVuSans-49"/>
       <use x="63.623047" xlink:href="#DejaVuSans-46"/>
       <use x="95.410156" xlink:href="#DejaVuSans-48"/>
      </g>
     </g>
    </g>
    <g id="ytick_4">
     <g id="line2d_10">
      <g>
       <use style="stroke:#000000;stroke-width:0.8;" x="57.6" xlink:href="#md5e1b40163" y="154.307757"/>
      </g>
     </g>
     <g id="text_11">
      <!-- 1.5 -->
      <g transform="translate(34.696875 158.106975)scale(0.1 -0.1)">
       <use xlink:href="#DejaVuSans-49"/>
       <use x="63.623047" xlink:href="#DejaVuSans-46"/>
       <use x="95.410156" xlink:href="#DejaVuSans-53"/>
      </g>
     </g>
    </g>
    <g id="ytick_5">
     <g id="line2d_11">
      <g>
       <use style="stroke:#000000;stroke-width:0.8;" x="57.6" xlink:href="#md5e1b40163" y="103.215675"/>
      </g>
     </g>
     <g id="text_12">
      <!-- 2.0 -->
      <g transform="translate(34.696875 107.014894)scale(0.1 -0.1)">
       <use xlink:href="#DejaVuSans-50"/>
       <use x="63.623047" xlink:href="#DejaVuSans-46"/>
       <use x="95.410156" xlink:href="#DejaVuSans-48"/>
      </g>
     </g>
    </g>
    <g id="ytick_6">
     <g id="line2d_12">
      <g>
       <use style="stroke:#000000;stroke-width:0.8;" x="57.6" xlink:href="#md5e1b40163" y="52.123594"/>
      </g>
     </g>
     <g id="text_13">
      <!-- 2.5 -->
      <g transform="translate(34.696875 55.922813)scale(0.1 -0.1)">
       <use xlink:href="#DejaVuSans-50"/>
       <use x="63.623047" xlink:href="#DejaVuSans-46"/>
       <use x="95.410156" xlink:href="#DejaVuSans-53"/>
      </g>
     </g>
    </g>
    <g id="text_14">
     <!-- Absolute frequency -->
     <g transform="translate(28.617187 223.04675)rotate(-90)scale(0.1 -0.1)">
      <defs>
       <path d="M 34.1875 63.1875 
L 20.796875 26.90625 
L 47.609375 26.90625 
z
M 28.609375 72.90625 
L 39.796875 72.90625 
L 67.578125 0 
L 57.328125 0 
L 50.6875 18.703125 
L 17.828125 18.703125 
L 11.1875 0 
L 0.78125 0 
z
" id="DejaVuSans-65"/>
       <path d="M 8.5 21.578125 
L 8.5 54.6875 
L 17.484375 54.6875 
L 17.484375 21.921875 
Q 17.484375 14.15625 20.5 10.265625 
Q 23.53125 6.390625 29.59375 6.390625 
Q 36.859375 6.390625 41.078125 11.03125 
Q 45.3125 15.671875 45.3125 23.6875 
L 45.3125 54.6875 
L 54.296875 54.6875 
L 54.296875 0 
L 45.3125 0 
L 45.3125 8.40625 
Q 42.046875 3.421875 37.71875 1 
Q 33.40625 -1.421875 27.6875 -1.421875 
Q 18.265625 -1.421875 13.375 4.4375 
Q 8.5 10.296875 8.5 21.578125 
z
M 31.109375 56 
z
" id="DejaVuSans-117"/>
       <path d="M 18.3125 70.21875 
L 18.3125 54.6875 
L 36.8125 54.6875 
L 36.8125 47.703125 
L 18.3125 47.703125 
L 18.3125 18.015625 
Q 18.3125 11.328125 20.140625 9.421875 
Q 21.96875 7.515625 27.59375 7.515625 
L 36.8125 7.515625 
L 36.8125 0 
L 27.59375 0 
Q 17.1875 0 13.234375 3.875 
Q 9.28125 7.765625 9.28125 18.015625 
L 9.28125 47.703125 
L 2.6875 47.703125 
L 2.6875 54.6875 
L 9.28125 54.6875 
L 9.28125 70.21875 
z
" id="DejaVuSans-116"/>
       <path d="M 56.203125 29.59375 
L 56.203125 25.203125 
L 14.890625 25.203125 
Q 15.484375 15.921875 20.484375 11.0625 
Q 25.484375 6.203125 34.421875 6.203125 
Q 39.59375 6.203125 44.453125 7.46875 
Q 49.3125 8.734375 54.109375 11.28125 
L 54.109375 2.78125 
Q 49.265625 0.734375 44.1875 -0.34375 
Q 39.109375 -1.421875 33.890625 -1.421875 
Q 20.796875 -1.421875 13.15625 6.1875 
Q 5.515625 13.8125 5.515625 26.8125 
Q 5.515625 40.234375 12.765625 48.109375 
Q 20.015625 56 32.328125 56 
Q 43.359375 56 49.78125 48.890625 
Q 56.203125 41.796875 56.203125 29.59375 
z
M 47.21875 32.234375 
Q 47.125 39.59375 43.09375 43.984375 
Q 39.0625 48.390625 32.421875 48.390625 
Q 24.90625 48.390625 20.390625 44.140625 
Q 15.875 39.890625 15.1875 32.171875 
z
" id="DejaVuSans-101"/>
       <path id="DejaVuSans-32"/>
       <path d="M 37.109375 75.984375 
L 37.109375 68.5 
L 28.515625 68.5 
Q 23.6875 68.5 21.796875 66.546875 
Q 19.921875 64.59375 19.921875 59.515625 
L 19.921875 54.6875 
L 34.71875 54.6875 
L 34.71875 47.703125 
L 19.921875 47.703125 
L 19.921875 0 
L 10.890625 0 
L 10.890625 47.703125 
L 2.296875 47.703125 
L 2.296875 54.6875 
L 10.890625 54.6875 
L 10.890625 58.5 
Q 10.890625 67.625 15.140625 71.796875 
Q 19.390625 75.984375 28.609375 75.984375 
z
" id="DejaVuSans-102"/>
       <path d="M 41.109375 46.296875 
Q 39.59375 47.171875 37.8125 47.578125 
Q 36.03125 48 33.890625 48 
Q 26.265625 48 22.1875 43.046875 
Q 18.109375 38.09375 18.109375 28.8125 
L 18.109375 0 
L 9.078125 0 
L 9.078125 54.6875 
L 18.109375 54.6875 
L 18.109375 46.1875 
Q 20.953125 51.171875 25.484375 53.578125 
Q 30.03125 56 36.53125 56 
Q 37.453125 56 38.578125 55.875 
Q 39.703125 55.765625 41.0625 55.515625 
z
" id="DejaVuSans-114"/>
       <path d="M 14.796875 27.296875 
Q 14.796875 17.390625 18.875 11.75 
Q 22.953125 6.109375 30.078125 6.109375 
Q 37.203125 6.109375 41.296875 11.75 
Q 45.40625 17.390625 45.40625 27.296875 
Q 45.40625 37.203125 41.296875 42.84375 
Q 37.203125 48.484375 30.078125 48.484375 
Q 22.953125 48.484375 18.875 42.84375 
Q 14.796875 37.203125 14.796875 27.296875 
z
M 45.40625 8.203125 
Q 42.578125 3.328125 38.25 0.953125 
Q 33.9375 -1.421875 27.875 -1.421875 
Q 17.96875 -1.421875 11.734375 6.484375 
Q 5.515625 14.40625 5.515625 27.296875 
Q 5.515625 40.1875 11.734375 48.09375 
Q 17.96875 56 27.875 56 
Q 33.9375 56 38.25 53.625 
Q 42.578125 51.265625 45.40625 46.390625 
L 45.40625 54.6875 
L 54.390625 54.6875 
L 54.390625 -20.796875 
L 45.40625 -20.796875 
z
" id="DejaVuSans-113"/>
       <path d="M 54.890625 33.015625 
L 54.890625 0 
L 45.90625 0 
L 45.90625 32.71875 
Q 45.90625 40.484375 42.875 44.328125 
Q 39.84375 48.1875 33.796875 48.1875 
Q 26.515625 48.1875 22.3125 43.546875 
Q 18.109375 38.921875 18.109375 30.90625 
L 18.109375 0 
L 9.078125 0 
L 9.078125 54.6875 
L 18.109375 54.6875 
L 18.109375 46.1875 
Q 21.34375 51.125 25.703125 53.5625 
Q 30.078125 56 35.796875 56 
Q 45.21875 56 50.046875 50.171875 
Q 54.890625 44.34375 54.890625 33.015625 
z
" id="DejaVuSans-110"/>
       <path d="M 48.78125 52.59375 
L 48.78125 44.1875 
Q 44.96875 46.296875 41.140625 47.34375 
Q 37.3125 48.390625 33.40625 48.390625 
Q 24.65625 48.390625 19.8125 42.84375 
Q 14.984375 37.3125 14.984375 27.296875 
Q 14.984375 17.28125 19.8125 11.734375 
Q 24.65625 6.203125 33.40625 6.203125 
Q 37.3125 6.203125 41.140625 7.25 
Q 44.96875 8.296875 48.78125 10.40625 
L 48.78125 2.09375 
Q 45.015625 0.34375 40.984375 -0.53125 
Q 36.96875 -1.421875 32.421875 -1.421875 
Q 20.0625 -1.421875 12.78125 6.34375 
Q 5.515625 14.109375 5.515625 27.296875 
Q 5.515625 40.671875 12.859375 48.328125 
Q 20.21875 56 33.015625 56 
Q 37.15625 56 41.109375 55.140625 
Q 45.0625 54.296875 48.78125 52.59375 
z
" id="DejaVuSans-99"/>
      </defs>
      <use xlink:href="#DejaVuSans-65"/>
      <use x="68.408203" xlink:href="#DejaVuSans-98"/>
      <use x="131.884766" xlink:href="#DejaVuSans-115"/>
      <use x="183.984375" xlink:href="#DejaVuSans-111"/>
      <use x="245.166016" xlink:href="#DejaVuSans-108"/>
      <use x="272.949219" xlink:href="#DejaVuSans-117"/>
      <use x="336.328125" xlink:href="#DejaVuSans-116"/>
      <use x="375.537109" xlink:href="#DejaVuSans-101"/>
      <use x="437.060547" xlink:href="#DejaVuSans-32"/>
      <use x="468.847656" xlink:href="#DejaVuSans-102"/>
      <use x="504.052734" xlink:href="#DejaVuSans-114"/>
      <use x="542.916016" xlink:href="#DejaVuSans-101"/>
      <use x="604.439453" xlink:href="#DejaVuSans-113"/>
      <use x="667.916016" xlink:href="#DejaVuSans-117"/>
      <use x="731.294922" xlink:href="#DejaVuSans-101"/>
      <use x="792.818359" xlink:href="#DejaVuSans-110"/>
      <use x="856.197266" xlink:href="#DejaVuSans-99"/>
      <use x="911.177734" xlink:href="#DejaVuSans-121"/>
     </g>
    </g>
    <g id="text_15">
     <!-- 1e7 -->
     <g transform="translate(57.6 38.472)scale(0.1 -0.1)">
      <defs>
       <path d="M 8.203125 72.90625 
L 55.078125 72.90625 
L 55.078125 68.703125 
L 28.609375 0 
L 18.3125 0 
L 43.21875 64.59375 
L 8.203125 64.59375 
z
" id="DejaVuSans-55"/>
      </defs>
      <use xlink:href="#DejaVuSans-49"/>
      <use x="63.623047" xlink:href="#DejaVuSans-101"/>
      <use x="125.146484" xlink:href="#DejaVuSans-55"/>
     </g>
    </g>
   </g>
   <g id="patch_259">
    <path d="M 57.6 307.584 
L 57.6 41.472 
" style="fill:none;stroke:#000000;stroke-linecap:square;stroke-linejoin:miter;stroke-width:0.8;"/>
   </g>
   <g id="patch_260">
    <path d="M 414.72 307.584 
L 414.72 41.472 
" style="fill:none;stroke:#000000;stroke-linecap:square;stroke-linejoin:miter;stroke-width:0.8;"/>
   </g>
   <g id="patch_261">
    <path d="M 57.6 307.584 
L 414.72 307.584 
" style="fill:none;stroke:#000000;stroke-linecap:square;stroke-linejoin:miter;stroke-width:0.8;"/>
   </g>
   <g id="patch_262">
    <path d="M 57.6 41.472 
L 414.72 41.472 
" style="fill:none;stroke:#000000;stroke-linecap:square;stroke-linejoin:miter;stroke-width:0.8;"/>
   </g>
   <g id="text_16">
    <!-- Histogram of data\original\pattern.bmp -->
    <g transform="translate(118.037813 35.472)scale(0.12 -0.12)">
     <defs>
      <path d="M 9.8125 72.90625 
L 19.671875 72.90625 
L 19.671875 43.015625 
L 55.515625 43.015625 
L 55.515625 72.90625 
L 65.375 72.90625 
L 65.375 0 
L 55.515625 0 
L 55.515625 34.71875 
L 19.671875 34.71875 
L 19.671875 0 
L 9.8125 0 
z
" id="DejaVuSans-72"/>
      <path d="M 9.421875 54.6875 
L 18.40625 54.6875 
L 18.40625 0 
L 9.421875 0 
z
M 9.421875 75.984375 
L 18.40625 75.984375 
L 18.40625 64.59375 
L 9.421875 64.59375 
z
" id="DejaVuSans-105"/>
      <path d="M 45.40625 27.984375 
Q 45.40625 37.75 41.375 43.109375 
Q 37.359375 48.484375 30.078125 48.484375 
Q 22.859375 48.484375 18.828125 43.109375 
Q 14.796875 37.75 14.796875 27.984375 
Q 14.796875 18.265625 18.828125 12.890625 
Q 22.859375 7.515625 30.078125 7.515625 
Q 37.359375 7.515625 41.375 12.890625 
Q 45.40625 18.265625 45.40625 27.984375 
z
M 54.390625 6.78125 
Q 54.390625 -7.171875 48.1875 -13.984375 
Q 42 -20.796875 29.203125 -20.796875 
Q 24.46875 -20.796875 20.265625 -20.09375 
Q 16.0625 -19.390625 12.109375 -17.921875 
L 12.109375 -9.1875 
Q 16.0625 -11.328125 19.921875 -12.34375 
Q 23.78125 -13.375 27.78125 -13.375 
Q 36.625 -13.375 41.015625 -8.765625 
Q 45.40625 -4.15625 45.40625 5.171875 
L 45.40625 9.625 
Q 42.625 4.78125 38.28125 2.390625 
Q 33.9375 0 27.875 0 
Q 17.828125 0 11.671875 7.65625 
Q 5.515625 15.328125 5.515625 27.984375 
Q 5.515625 40.671875 11.671875 48.328125 
Q 17.828125 56 27.875 56 
Q 33.9375 56 38.28125 53.609375 
Q 42.625 51.21875 45.40625 46.390625 
L 45.40625 54.6875 
L 54.390625 54.6875 
z
" id="DejaVuSans-103"/>
      <path d="M 34.28125 27.484375 
Q 23.390625 27.484375 19.1875 25 
Q 14.984375 22.515625 14.984375 16.5 
Q 14.984375 11.71875 18.140625 8.90625 
Q 21.296875 6.109375 26.703125 6.109375 
Q 34.1875 6.109375 38.703125 11.40625 
Q 43.21875 16.703125 43.21875 25.484375 
L 43.21875 27.484375 
z
M 52.203125 31.203125 
L 52.203125 0 
L 43.21875 0 
L 43.21875 8.296875 
Q 40.140625 3.328125 35.546875 0.953125 
Q 30.953125 -1.421875 24.3125 -1.421875 
Q 15.921875 -1.421875 10.953125 3.296875 
Q 6 8.015625 6 15.921875 
Q 6 25.140625 12.171875 29.828125 
Q 18.359375 34.515625 30.609375 34.515625 
L 43.21875 34.515625 
L 43.21875 35.40625 
Q 43.21875 41.609375 39.140625 45 
Q 35.0625 48.390625 27.6875 48.390625 
Q 23 48.390625 18.546875 47.265625 
Q 14.109375 46.140625 10.015625 43.890625 
L 10.015625 52.203125 
Q 14.9375 54.109375 19.578125 55.046875 
Q 24.21875 56 28.609375 56 
Q 40.484375 56 46.34375 49.84375 
Q 52.203125 43.703125 52.203125 31.203125 
z
" id="DejaVuSans-97"/>
      <path d="M 45.40625 46.390625 
L 45.40625 75.984375 
L 54.390625 75.984375 
L 54.390625 0 
L 45.40625 0 
L 45.40625 8.203125 
Q 42.578125 3.328125 38.25 0.953125 
Q 33.9375 -1.421875 27.875 -1.421875 
Q 17.96875 -1.421875 11.734375 6.484375 
Q 5.515625 14.40625 5.515625 27.296875 
Q 5.515625 40.1875 11.734375 48.09375 
Q 17.96875 56 27.875 56 
Q 33.9375 56 38.25 53.625 
Q 42.578125 51.265625 45.40625 46.390625 
z
M 14.796875 27.296875 
Q 14.796875 17.390625 18.875 11.75 
Q 22.953125 6.109375 30.078125 6.109375 
Q 37.203125 6.109375 41.296875 11.75 
Q 45.40625 17.390625 45.40625 27.296875 
Q 45.40625 37.203125 41.296875 42.84375 
Q 37.203125 48.484375 30.078125 48.484375 
Q 22.953125 48.484375 18.875 42.84375 
Q 14.796875 37.203125 14.796875 27.296875 
z
" id="DejaVuSans-100"/>
      <path d="M 8.296875 72.90625 
L 33.6875 -9.28125 
L 25.390625 -9.28125 
L 0 72.90625 
z
" id="DejaVuSans-92"/>
      <path d="M 18.109375 8.203125 
L 18.109375 -20.796875 
L 9.078125 -20.796875 
L 9.078125 54.6875 
L 18.109375 54.6875 
L 18.109375 46.390625 
Q 20.953125 51.265625 25.265625 53.625 
Q 29.59375 56 35.59375 56 
Q 45.5625 56 51.78125 48.09375 
Q 58.015625 40.1875 58.015625 27.296875 
Q 58.015625 14.40625 51.78125 6.484375 
Q 45.5625 -1.421875 35.59375 -1.421875 
Q 29.59375 -1.421875 25.265625 0.953125 
Q 20.953125 3.328125 18.109375 8.203125 
z
M 48.6875 27.296875 
Q 48.6875 37.203125 44.609375 42.84375 
Q 40.53125 48.484375 33.40625 48.484375 
Q 26.265625 48.484375 22.1875 42.84375 
Q 18.109375 37.203125 18.109375 27.296875 
Q 18.109375 17.390625 22.1875 11.75 
Q 26.265625 6.109375 33.40625 6.109375 
Q 40.53125 6.109375 44.609375 11.75 
Q 48.6875 17.390625 48.6875 27.296875 
z
" id="DejaVuSans-112"/>
     </defs>
     <use xlink:href="#DejaVuSans-72"/>
     <use x="75.195312" xlink:href="#DejaVuSans-105"/>
     <use x="102.978516" xlink:href="#DejaVuSans-115"/>
     <use x="155.078125" xlink:href="#DejaVuSans-116"/>
     <use x="194.287109" xlink:href="#DejaVuSans-111"/>
     <use x="255.46875" xlink:href="#DejaVuSans-103"/>
     <use x="318.945312" xlink:href="#DejaVuSans-114"/>
     <use x="360.058594" xlink:href="#DejaVuSans-97"/>
     <use x="421.337891" xlink:href="#DejaVuSans-109"/>
     <use x="518.75" xlink:href="#DejaVuSans-32"/>
     <use x="550.537109" xlink:href="#DejaVuSans-111"/>
     <use x="611.71875" xlink:href="#DejaVuSans-102"/>
     <use x="646.923828" xlink:href="#DejaVuSans-32"/>
     <use x="678.710938" xlink:href="#DejaVuSans-100"/>
     <use x="742.1875" xlink:href="#DejaVuSans-97"/>
     <use x="803.466797" xlink:href="#DejaVuSans-116"/>
     <use x="842.675781" xlink:href="#DejaVuSans-97"/>
     <use x="903.955078" xlink:href="#DejaVuSans-92"/>
     <use x="937.646484" xlink:href="#DejaVuSans-111"/>
     <use x="998.828125" xlink:href="#DejaVuSans-114"/>
     <use x="1039.941406" xlink:href="#DejaVuSans-105"/>
     <use x="1067.724609" xlink:href="#DejaVuSans-103"/>
     <use x="1131.201172" xlink:href="#DejaVuSans-105"/>
     <use x="1158.984375" xlink:href="#DejaVuSans-110"/>
     <use x="1222.363281" xlink:href="#DejaVuSans-97"/>
     <use x="1283.642578" xlink:href="#DejaVuSans-108"/>
     <use x="1311.425781" xlink:href="#DejaVuSans-92"/>
     <use x="1345.117188" xlink:href="#DejaVuSans-112"/>
     <use x="1408.59375" xlink:href="#DejaVuSans-97"/>
     <use x="1469.873047" xlink:href="#DejaVuSans-116"/>
     <use x="1509.082031" xlink:href="#DejaVuSans-116"/>
     <use x="1548.291016" xlink:href="#DejaVuSans-101"/>
     <use x="1609.814453" xlink:href="#DejaVuSans-114"/>
     <use x="1649.177734" xlink:href="#DejaVuSans-110"/>
     <use x="1712.556641" xlink:href="#DejaVuSans-46"/>
     <use x="1744.34375" xlink:href="#DejaVuSans-98"/>
     <use x="1807.820312" xlink:href="#DejaVuSans-109"/>
     <use x="1905.232422" xlink:href="#DejaVuSans-112"/>
    </g>
   </g>
  </g>
 </g>
 <defs>
  <clipPath id="pfbb9442694">
   <rect height="266.112" width="357.12" x="57.6" y="41.472"/>
  </clipPath>
 </defs>
</svg>
